<?xml version="1.0" standalone="no"?>
<!DOCTYPE svg PUBLIC "-//W3C//DTD SVG 20010904//EN"
 "http://www.w3.org/TR/2001/REC-SVG-20010904/DTD/svg10.dtd">
<svg version="1.0" xmlns="http://www.w3.org/2000/svg"
 width="1408.000000pt" height="1408.000000pt" viewBox="0 0 1408.000000 1408.000000"
 preserveAspectRatio="xMidYMid meet">
<metadata>
Created by potrace 1.14, written by Peter Selinger 2001-2017
</metadata>
<g transform="translate(0.000000,1408.000000) scale(0.100000,-0.100000)"
fill="#000000" stroke="none">
<path d="M3616 10322 c-2 -1 -25 -5 -52 -7 -27 -3 -62 -7 -79 -10 -16 -2 -48
-7 -70 -10 -78 -12 -93 -15 -206 -44 -133 -35 -273 -84 -379 -133 -41 -19 -79
-36 -85 -38 -5 -2 -32 -16 -58 -32 -26 -15 -52 -28 -57 -28 -6 0 -10 -4 -10
-10 0 -5 -5 -10 -12 -10 -10 0 -165 -96 -178 -110 -3 -4 -23 -19 -45 -36 -22
-16 -49 -36 -60 -44 -24 -18 -234 -228 -255 -255 -9 -11 -32 -42 -53 -70 -20
-27 -40 -54 -45 -60 -17 -21 -68 -113 -103 -185 -65 -134 -104 -258 -135 -435
-10 -60 -12 -312 -3 -380 4 -33 11 -91 14 -128 4 -38 8 -78 11 -90 2 -12 6
-39 9 -62 3 -22 10 -69 15 -105 6 -36 12 -83 15 -105 3 -22 7 -50 9 -62 3 -13
7 -42 11 -65 14 -80 16 -93 36 -193 22 -114 38 -181 81 -350 16 -66 31 -127
33 -135 2 -8 8 -35 14 -60 35 -154 45 -358 27 -550 -4 -41 -9 -95 -11 -120 -2
-25 -6 -63 -9 -85 -3 -22 -9 -69 -12 -105 -4 -36 -8 -68 -10 -71 -1 -3 -6 -31
-9 -63 -4 -31 -8 -65 -10 -76 -2 -10 -6 -40 -10 -67 -4 -26 -9 -59 -11 -73 -2
-14 -7 -45 -10 -70 -3 -25 -8 -48 -10 -52 -7 -11 10 -17 77 -23 57 -6 100 -12
204 -29 17 -3 82 -19 145 -36 63 -17 122 -32 130 -35 8 -2 15 -4 15 -5 0 -1 7
-3 15 -5 29 -7 130 -45 182 -69 69 -32 131 -57 133 -54 1 2 27 56 57 120 65
135 111 209 226 363 4 6 32 44 62 85 30 41 57 77 60 80 4 3 35 43 70 90 36 47
67 87 70 90 3 3 28 34 55 70 27 36 52 67 55 70 3 3 19 23 35 45 16 22 35 47
42 55 47 58 146 186 188 240 27 36 52 67 55 70 3 3 46 59 95 125 50 66 92 122
95 125 3 3 17 21 30 40 13 19 29 40 35 46 5 6 17 22 25 34 14 21 44 62 63 85
45 57 359 523 391 580 9 17 22 39 29 50 41 65 77 129 144 255 55 103 81 154
82 163 0 4 12 29 26 56 40 80 137 337 150 401 2 8 10 44 19 80 20 85 27 126
30 176 2 23 5 45 8 50 6 13 3 199 -6 268 -15 126 -84 343 -122 387 -8 8 -14
19 -14 24 0 17 -103 145 -163 202 -62 58 -177 143 -194 143 -5 0 -15 6 -21 13
-7 6 -16 12 -20 13 -4 0 -32 12 -62 26 -57 26 -168 65 -211 74 -190 39 -256
47 -432 48 -76 1 -140 0 -141 -2z"/>
<path d="M12499 10326 c-2 -2 -44 -7 -94 -11 -49 -3 -108 -8 -130 -11 -22 -2
-65 -6 -95 -9 -30 -2 -71 -7 -90 -10 -19 -3 -60 -7 -90 -10 -30 -3 -62 -8 -70
-10 -8 -2 -39 -7 -69 -10 -30 -4 -63 -9 -75 -11 -12 -2 -34 -6 -51 -9 -16 -3
-43 -7 -60 -10 -16 -3 -41 -8 -55 -10 -23 -3 -143 -30 -180 -39 -8 -2 -44 -11
-80 -20 -64 -17 -151 -42 -180 -53 -8 -3 -20 -7 -25 -8 -6 -2 -40 -14 -75 -28
-79 -30 -98 -37 -106 -36 -4 0 -10 -3 -13 -8 -3 -4 -33 -21 -66 -37 -33 -16
-63 -34 -67 -40 -4 -6 -8 -7 -8 -3 0 5 -18 -5 -39 -22 -21 -17 -42 -31 -45
-31 -3 0 -20 -12 -38 -27 -142 -124 -208 -245 -213 -393 -2 -68 18 -189 39
-229 13 -23 13 -24 32 -5 18 18 88 74 149 119 125 93 301 181 432 216 69 18
223 36 223 26 0 -6 -248 -127 -261 -127 -5 0 -9 -3 -9 -8 0 -4 -21 -18 -47
-31 -27 -14 -58 -34 -70 -45 -13 -11 -23 -15 -23 -10 0 5 -4 4 -8 -1 -4 -6
-32 -28 -62 -50 -80 -57 -181 -163 -210 -220 -59 -121 -19 -226 110 -287 53
-25 140 -49 151 -42 4 2 10 0 13 -4 6 -11 256 -8 311 3 22 5 49 10 60 11 11 1
20 3 20 4 0 1 9 3 20 5 34 4 189 56 203 67 6 6 12 7 12 2 0 -4 5 -3 12 4 7 7
20 12 29 12 10 0 19 4 21 8 2 4 23 18 48 30 53 25 118 62 140 79 8 7 44 34 80
60 109 81 212 191 327 349 45 60 160 290 168 336 2 9 8 25 14 36 5 10 12 30
15 43 3 13 14 54 25 92 11 37 23 82 26 100 3 17 7 41 9 52 5 23 14 94 25 182
7 56 2 91 -10 79z"/>
<path d="M4690 10161 c1 -3 20 -18 43 -33 88 -56 199 -162 278 -266 44 -58
138 -231 143 -264 1 -7 4 -17 8 -23 7 -13 37 -135 46 -188 11 -68 7 -377 -6
-437 -6 -30 -14 -71 -17 -90 -3 -19 -17 -75 -31 -125 -14 -49 -27 -97 -29
-105 -5 -25 -81 -221 -106 -275 -12 -27 -23 -52 -24 -55 -6 -21 -68 -141 -76
-145 -5 -4 -7 -10 -4 -15 3 -5 1 -11 -5 -15 -5 -3 -19 -25 -30 -48 -11 -23
-25 -49 -30 -57 -5 -8 -41 -67 -81 -130 -70 -114 -152 -235 -198 -291 -13 -17
-22 -32 -20 -34 3 -2 25 7 49 19 36 18 101 44 130 51 3 1 12 5 20 8 20 8 206
54 245 60 17 3 59 10 95 16 36 6 85 13 110 15 25 3 74 8 110 11 36 4 126 8
202 10 75 1 141 5 146 9 5 3 12 3 15 -1 4 -3 62 -7 129 -8 68 -2 155 -6 193
-9 39 -4 97 -9 130 -12 33 -2 84 -9 113 -14 29 -5 56 -9 60 -8 6 2 124 -17
177 -29 11 -2 43 -8 70 -13 28 -6 59 -12 70 -14 18 -4 165 -43 190 -50 6 -2
24 -6 40 -11 46 -11 248 -83 307 -108 28 -12 99 -46 157 -74 108 -54 119 -55
122 -8 2 26 6 53 12 90 3 17 9 57 12 90 3 33 8 71 10 85 30 199 39 336 39 640
0 352 -10 475 -69 785 -3 17 -8 36 -11 44 -2 8 -7 30 -10 50 -3 20 -9 43 -14
51 -4 8 -11 33 -15 55 -5 22 -10 45 -11 50 -9 30 -45 133 -53 150 -5 11 -21
50 -36 88 l-27 67 -72 1 c-103 3 -204 11 -281 24 -16 2 -47 7 -67 10 -82 11
-134 20 -188 30 -14 3 -37 8 -52 10 -16 3 -39 7 -53 10 -14 3 -37 7 -52 10
-16 3 -38 7 -50 10 -13 3 -26 6 -30 7 -5 1 -24 5 -43 10 -19 5 -46 11 -60 14
-14 3 -88 21 -165 40 -149 38 -165 42 -192 48 -10 2 -47 12 -83 21 -36 9 -72
19 -80 20 -8 2 -47 13 -85 24 -39 11 -81 22 -95 25 -14 3 -50 13 -80 21 -30 9
-62 18 -70 20 -8 3 -42 11 -75 19 -33 8 -85 21 -117 30 -31 8 -67 17 -80 20
-12 2 -43 9 -68 16 -51 14 -41 12 -180 39 -162 31 -250 43 -250 32z"/>
<path d="M10158 10016 c-1 -2 -68 -6 -148 -10 -80 -3 -163 -9 -185 -11 -22 -3
-60 -7 -85 -9 -25 -3 -65 -7 -90 -11 -92 -13 -111 -15 -162 -20 -29 -3 -64 -8
-76 -11 -13 -3 -56 -7 -95 -10 -38 -3 -74 -7 -79 -10 -8 -5 -3 -761 6 -899 8
-123 37 -361 52 -435 3 -14 6 -34 8 -45 9 -51 17 -85 36 -150 11 -38 23 -81
26 -95 3 -14 9 -29 15 -34 5 -6 9 -19 9 -31 0 -12 4 -25 8 -31 5 -5 15 -25 22
-44 14 -37 55 -125 137 -300 55 -114 119 -273 114 -279 -1 -2 1 -7 6 -10 11
-8 97 -285 120 -386 2 -11 6 -29 8 -40 3 -11 8 -31 11 -45 24 -102 32 -141 59
-289 9 -52 20 -104 25 -116 5 -14 37 -36 84 -60 41 -20 78 -40 81 -43 6 -7 45
-21 170 -63 112 -38 327 -83 445 -93 293 -26 590 -26 890 -1 123 11 187 17
285 29 28 4 68 8 90 11 22 2 66 9 99 14 32 6 61 10 65 9 3 -1 17 2 31 5 14 3
43 9 65 11 38 5 66 10 125 21 14 3 43 7 65 10 22 3 63 10 91 16 28 5 61 12 75
14 13 3 35 7 49 10 14 3 39 8 55 11 39 6 70 12 70 14 0 1 14 4 30 6 17 3 111
23 210 45 99 22 191 42 204 45 12 3 51 11 85 19 33 8 72 16 86 19 134 29 124
23 205 136 41 58 79 110 85 117 5 7 10 15 10 17 0 3 17 32 37 63 21 32 43 67
49 78 6 11 24 45 41 75 52 93 107 202 137 270 16 36 41 92 56 125 15 33 30 71
34 85 4 14 14 40 23 59 8 18 16 39 17 45 1 6 5 17 9 24 5 6 6 12 2 12 -3 0 1
13 10 29 19 38 9 44 -38 21 -21 -10 -41 -19 -45 -19 -4 -1 -29 -7 -57 -15
-127 -37 -303 -39 -366 -5 -12 6 -23 8 -26 5 -5 -5 -173 80 -183 93 -3 3 -23
19 -45 35 -38 28 -214 202 -264 262 -19 23 -81 102 -134 169 -4 6 -15 20 -25
32 -10 12 -27 34 -38 49 -10 14 -28 38 -40 53 -39 49 -179 236 -204 272 -56
83 -302 339 -325 339 -5 0 -28 -19 -50 -42 -35 -37 -76 -74 -160 -146 -11 -10
-40 -31 -65 -47 -25 -17 -47 -33 -50 -36 -12 -15 -183 -106 -262 -140 -79 -33
-202 -76 -246 -84 -9 -2 -17 -4 -17 -5 0 -1 -8 -3 -17 -5 -9 -2 -39 -8 -67
-14 -28 -6 -55 -10 -59 -10 -4 1 -9 0 -12 -1 -13 -6 -76 -11 -186 -14 -137 -5
-220 9 -321 54 -152 69 -286 204 -353 355 -12 28 -25 57 -30 66 -4 8 -18 55
-30 105 -24 94 -33 287 -16 369 4 22 10 54 13 70 13 74 68 200 124 282 32 46
30 50 -27 59 -22 3 -50 7 -64 10 -14 3 -63 7 -110 10 -47 2 -90 6 -97 8 -6 3
-13 3 -15 2z"/>
<path d="M790 9852 c-90 -13 -183 -62 -251 -132 -118 -122 -141 -281 -75 -520
15 -56 109 -256 126 -270 4 -3 10 -12 14 -20 11 -23 29 -52 54 -87 28 -39 28
-38 -5 -51 -134 -53 -342 -61 -576 -23 -31 6 -62 13 -69 17 -7 4 -8 3 -4 -4
13 -22 141 -90 206 -110 118 -37 139 -40 252 -37 74 2 141 11 193 24 44 12 85
23 90 24 6 1 16 6 23 10 17 11 42 2 117 -44 90 -55 271 -127 360 -144 132 -25
185 -32 251 -34 44 -1 73 2 70 7 -3 5 -8 36 -11 68 -3 32 -7 59 -8 60 -1 1
-40 4 -87 8 -168 12 -279 41 -438 118 -95 45 -103 51 -90 67 7 10 44 56 81
102 38 46 71 91 75 99 3 8 14 24 24 34 10 11 18 24 18 28 0 5 9 18 20 30 10
12 17 25 14 29 -2 4 0 10 5 14 19 11 81 162 97 232 13 61 12 176 -2 231 -41
160 -190 269 -376 275 -40 2 -84 1 -98 -1z m119 -137 c209 -31 257 -282 113
-595 -45 -98 -161 -242 -203 -253 -13 -4 -30 6 -54 31 -19 21 -35 42 -35 49 0
6 -4 13 -9 15 -24 9 -106 216 -127 318 -9 45 -11 218 -3 250 26 100 91 169
174 184 15 3 29 7 31 9 4 4 54 1 113 -8z"/>
<path d="M9108 9854 c-2 -1 -30 -5 -63 -8 -109 -11 -140 -15 -180 -21 -22 -3
-62 -7 -90 -10 -27 -3 -63 -7 -80 -10 -16 -2 -86 -11 -155 -20 -122 -15 -170
-22 -220 -30 -14 -2 -52 -6 -84 -10 -33 -3 -73 -8 -90 -10 -17 -2 -53 -7 -81
-10 -27 -3 -68 -8 -90 -10 -88 -12 -123 -15 -200 -20 -44 -4 -96 -8 -115 -11
-34 -5 -155 -11 -258 -13 l-53 -1 16 -30 c8 -16 15 -33 16 -37 0 -5 13 -51 30
-103 27 -83 51 -167 65 -222 24 -103 36 -154 41 -183 2 -16 6 -39 8 -50 13
-67 25 -147 31 -195 3 -30 7 -68 9 -85 9 -71 18 -248 18 -347 0 -60 3 -108 6
-108 3 0 16 15 29 34 34 50 129 141 195 187 47 32 191 109 200 107 1 0 33 9
71 21 37 11 78 23 90 26 60 12 78 16 132 23 89 12 226 7 356 -12 153 -23 400
-139 523 -247 38 -34 48 -27 35 22 -5 19 -11 50 -14 69 -2 19 -7 46 -10 60 -3
14 -7 45 -10 70 -2 25 -7 52 -10 60 -3 8 -8 44 -11 80 -3 36 -7 83 -10 105 -5
46 -14 158 -20 260 -7 113 -8 461 -1 576 5 90 4 106 -9 106 -8 0 -16 -1 -17
-3z"/>
<path d="M13190 9835 c-47 -12 -95 -27 -106 -33 -12 -6 -24 -9 -27 -5 -4 3
-12 1 -19 -4 -7 -6 -38 -18 -68 -29 -30 -10 -62 -23 -70 -29 -8 -7 -31 -18
-50 -25 -55 -22 -163 -83 -190 -108 -16 -15 -49 -79 -51 -97 0 -2 -20 -43 -45
-91 -25 -48 -43 -90 -42 -94 2 -4 33 -41 69 -81 60 -67 94 -106 139 -162 8
-11 30 -35 47 -56 18 -20 33 -39 33 -43 0 -4 8 -15 18 -25 10 -10 47 -57 82
-106 l63 -87 44 57 c25 32 50 67 55 78 6 11 14 22 18 25 18 13 110 216 138
305 28 89 38 132 59 263 10 59 7 352 -3 360 -5 5 -47 -1 -94 -13z"/>
<path d="M8345 8602 c-107 -11 -281 -75 -352 -128 -17 -13 -36 -24 -42 -24
-20 0 -206 -195 -252 -265 -54 -81 -100 -177 -134 -278 -23 -67 -41 -153 -37
-169 1 -5 -2 -8 -6 -8 -10 0 -8 -309 2 -360 12 -57 27 -100 36 -100 12 0 144
-83 148 -92 2 -5 10 -8 18 -8 8 0 14 -4 14 -9 0 -5 14 -14 30 -21 17 -7 30
-16 30 -21 0 -5 6 -9 14 -9 8 0 16 -3 18 -7 2 -5 30 -28 63 -53 57 -42 83 -63
109 -85 6 -5 38 -32 71 -60 129 -107 359 -340 389 -394 5 -9 12 -18 15 -21 10
-9 65 -76 86 -105 11 -16 26 -34 33 -41 6 -7 12 -16 12 -19 0 -4 12 -24 28
-44 15 -20 32 -45 39 -56 7 -11 31 -51 54 -90 24 -38 42 -72 42 -75 0 -3 7
-16 16 -30 23 -33 94 -184 112 -235 7 -22 17 -45 21 -51 5 -6 15 -34 23 -62
l15 -51 88 43 c161 81 412 162 592 192 71 12 86 14 144 19 53 4 81 18 71 35
-2 3 -6 23 -9 45 -4 22 -9 54 -12 70 -3 17 -7 46 -9 65 -2 19 -4 35 -5 35 -2
0 -7 29 -14 75 -6 44 -14 99 -26 170 -5 30 -12 73 -15 95 -2 22 -6 49 -9 60
-2 11 -7 40 -11 65 -30 180 -99 523 -110 540 -2 4 -7 22 -10 41 -7 43 -27 116
-68 244 -17 55 -32 103 -33 108 -1 4 -3 9 -4 12 -1 3 -3 8 -5 13 -2 8 -1 6
-60 152 -100 247 -232 454 -386 609 -51 51 -99 91 -108 91 -5 0 -11 4 -13 9
-5 13 -125 83 -198 115 -60 27 -99 40 -160 52 -14 2 -38 7 -55 11 -34 7 -145
10 -190 5z"/>
<path d="M5485 7661 c-2 -2 -30 -5 -62 -7 -86 -5 -123 -10 -263 -34 -80 -15
-88 -16 -172 -40 -43 -11 -85 -23 -95 -25 -10 -2 -43 -13 -73 -25 -30 -12 -68
-25 -83 -30 -44 -14 -282 -133 -345 -173 -18 -12 53 -102 173 -217 99 -96 164
-152 255 -218 25 -18 65 -48 90 -66 111 -81 438 -261 549 -301 20 -7 54 -21
76 -31 22 -10 45 -19 50 -20 6 -1 48 -16 95 -32 82 -29 211 -69 254 -78 19 -5
57 -13 81 -18 6 -1 19 -5 30 -9 11 -3 37 -8 59 -12 21 -3 41 -7 45 -9 3 -2 30
-7 60 -11 30 -4 63 -9 75 -11 12 -3 39 -6 61 -9 22 -2 65 -6 95 -10 196 -21
493 -21 720 0 128 12 143 14 300 40 104 16 112 18 185 35 28 6 61 14 75 16 94
18 279 71 347 100 17 8 37 14 45 14 8 0 18 3 22 8 4 4 11 7 14 8 4 0 20 6 35
12 16 7 30 12 31 12 2 0 21 7 42 16 l37 16 -100 96 c-116 112 -151 142 -159
142 -4 0 -12 6 -18 13 -48 59 -507 367 -546 367 -5 0 -10 4 -12 8 -4 12 -289
150 -398 195 -94 38 -229 90 -245 94 -5 1 -17 4 -25 6 -8 2 -22 7 -30 10 -171
68 -554 146 -845 173 -76 7 -424 11 -430 5z"/>
<path d="M4220 7134 c-84 -116 -125 -169 -132 -172 -5 -2 -8 -9 -8 -14 0 -6
-7 -18 -15 -27 -18 -18 -565 -743 -580 -769 -5 -9 -16 -22 -22 -30 -29 -31 -6
-52 132 -116 44 -20 88 -41 97 -46 10 -6 22 -10 27 -10 5 0 22 -5 38 -12 15
-6 33 -12 38 -13 6 0 17 -4 25 -8 29 -12 120 -36 120 -31 0 3 9 0 19 -5 10 -6
35 -13 55 -15 19 -2 39 -7 43 -9 8 -5 79 -17 133 -23 14 -1 25 -3 25 -4 0 -1
14 -3 30 -5 17 -2 48 -6 70 -9 124 -16 231 -20 515 -20 277 0 489 7 551 19 10
2 55 7 98 10 44 3 90 8 103 11 13 2 41 6 63 9 57 6 126 15 155 20 14 2 48 7
75 10 28 4 64 10 80 14 17 4 42 7 58 7 15 -1 27 1 27 5 0 3 6 6 13 6 20 0 86
11 177 29 47 9 96 18 110 20 14 3 52 11 85 19 33 7 76 16 95 19 19 3 50 10 68
15 18 5 35 10 37 10 3 1 7 2 10 2 5 1 34 5 57 8 6 0 9 3 6 6 -3 3 -70 8 -148
11 -79 2 -155 6 -169 8 -14 3 -55 8 -91 11 -70 7 -101 12 -140 19 -14 3 -42 7
-62 10 -21 3 -57 10 -80 15 -24 6 -54 12 -68 15 -31 5 -220 54 -240 62 -8 3
-17 6 -20 6 -3 0 -41 14 -85 30 -44 16 -92 33 -106 38 -70 21 -410 189 -453
223 -13 10 -130 87 -158 103 -10 6 -31 22 -46 35 -15 13 -43 35 -62 49 -122
86 -355 319 -440 440 -13 19 -34 46 -46 59 l-22 23 -42 -58z"/>
<path d="M8385 6244 c-122 -39 -363 -113 -525 -161 -102 -31 -186 -56 -187
-57 -1 -1 27 -60 62 -131 58 -116 112 -253 136 -340 38 -142 77 -307 93 -385
2 -14 12 -59 21 -100 9 -41 18 -84 21 -95 3 -17 14 -58 38 -155 2 -8 12 -42
22 -75 10 -33 19 -64 20 -70 4 -24 78 -204 106 -260 33 -65 121 -205 159 -251
43 -52 194 -198 243 -234 26 -19 52 -40 59 -45 40 -33 206 -130 212 -123 6 6
22 150 30 258 2 36 5 65 5 65 6 0 13 248 13 445 1 222 -5 375 -18 485 -2 22
-7 63 -9 90 -3 28 -7 59 -10 70 -2 11 -7 46 -10 78 -4 33 -11 69 -15 80 -4 12
-6 32 -5 45 0 12 -3 22 -9 22 -6 0 -8 2 -5 5 9 9 -44 222 -76 310 -5 11 -12
34 -18 50 -22 63 -118 263 -138 288 -6 7 -30 39 -54 72 -25 33 -62 76 -83 96
-37 35 -39 36 -78 23z"/>
<path d="M3350 5932 c0 -4 -10 -18 -22 -32 -33 -36 -128 -176 -128 -188 0 -6
-4 -12 -8 -14 -18 -7 -136 -261 -147 -317 -2 -9 -10 -36 -18 -61 -9 -25 -19
-65 -22 -90 -4 -24 -8 -47 -11 -51 -16 -27 -24 -334 -10 -424 17 -106 50 -221
87 -301 18 -38 33 -71 33 -74 2 -12 54 -91 102 -156 100 -134 273 -273 429
-343 39 -18 79 -36 90 -41 33 -15 177 -59 214 -66 20 -4 43 -10 52 -15 25 -13
42 12 30 43 -5 14 -12 40 -15 60 -3 19 -8 41 -10 49 -3 8 -8 25 -10 39 -3 14
-12 57 -21 95 -8 39 -18 84 -21 100 -2 17 -7 37 -9 45 -2 8 -6 31 -9 50 -3 19
-8 46 -10 60 -3 14 -7 43 -11 65 -3 22 -8 54 -10 70 -14 82 -18 145 -19 315 0
162 4 239 20 328 2 12 6 34 8 48 3 14 10 47 16 74 6 26 13 54 14 61 9 49 72
252 87 284 6 12 11 27 13 35 1 8 9 31 18 50 8 19 12 36 9 37 -3 1 -49 13 -101
27 -193 50 -367 121 -542 219 -48 27 -68 33 -68 19z"/>
<path d="M9805 5779 c-22 -4 -58 -9 -80 -13 -22 -3 -49 -7 -60 -10 -11 -2 -39
-7 -62 -11 -24 -4 -45 -11 -49 -16 -3 -5 -9 -7 -13 -4 -5 2 -44 -7 -87 -21
-43 -14 -83 -27 -89 -28 -5 -2 -24 -9 -42 -16 -18 -6 -35 -11 -39 -10 -4 1
-10 -2 -13 -7 -3 -4 -31 -21 -61 -37 -79 -42 -135 -81 -133 -94 1 -5 5 -25 8
-44 3 -18 8 -46 12 -63 3 -16 7 -39 9 -50 1 -11 3 -20 4 -20 2 0 6 -25 15 -85
3 -25 8 -52 10 -60 3 -8 9 -44 14 -80 21 -138 51 -326 56 -350 3 -14 7 -38 10
-55 2 -16 9 -48 15 -70 6 -22 13 -51 16 -64 3 -14 8 -29 12 -35 3 -6 7 -17 9
-25 3 -25 105 -221 114 -221 5 0 9 -5 9 -11 0 -42 192 -229 326 -319 98 -66
260 -150 288 -150 6 0 16 -4 21 -9 11 -9 106 -37 118 -33 4 1 7 -3 7 -9 0 -5
4 -8 9 -4 5 3 8 15 6 28 -2 12 -9 60 -15 107 -17 127 -20 153 -25 180 -3 14
-7 48 -10 75 -4 28 -8 57 -10 65 -2 8 -7 41 -10 73 -4 32 -8 68 -11 80 -2 12
-7 42 -10 67 -3 25 -7 54 -8 65 -13 69 -16 95 -21 135 -3 25 -7 54 -9 65 -2
11 -7 43 -10 70 -8 58 -12 82 -22 150 -4 28 -8 62 -8 78 -1 15 -3 27 -6 27 -3
0 -5 10 -6 23 0 12 -3 42 -7 67 -8 57 -46 313 -53 360 -3 19 -7 49 -9 65 -2
17 -6 46 -10 65 -7 38 -9 47 -20 132 -8 61 -5 60 -80 47z"/>
<path d="M1889 5472 c-15 -73 -11 -409 6 -532 2 -14 6 -50 10 -80 3 -30 8 -61
11 -69 3 -8 7 -30 10 -50 8 -56 50 -217 79 -305 55 -168 162 -364 233 -427
143 -127 328 -217 503 -243 20 -3 44 -8 54 -12 20 -8 21 -14 -14 154 -11 56
-23 115 -25 130 -15 94 -26 192 -32 277 -7 87 -11 359 -6 368 2 4 5 39 7 77 4
75 11 127 30 237 10 61 47 208 56 225 10 19 -14 32 -146 81 -133 48 -183 64
-295 93 -125 32 -268 58 -390 69 -36 4 -71 8 -77 10 -7 3 -14 1 -14 -3z"/>
</g>
</svg>
