<svg width="173" height="346" viewBox="0 0 173 346" fill="none" xmlns="http://www.w3.org/2000/svg">
<path d="M155.669 272.654L152.518 271.759L149.517 275.474L141.238 273.123L140.663 268.392L137.411 267.469L140.107 287.289L142.959 288.099L155.669 272.654ZM147.617 277.881L142.627 284.032L141.59 276.169L147.617 277.881Z" fill="#209C3C"/>
<path d="M135.525 266.612L132.722 265.183L126.841 276.719L123.781 260.625L121.395 259.409L113.129 275.623L115.932 277.052L121.647 265.841L124.618 281.481L127.259 282.827L135.525 266.612Z" fill="#209C3C"/>
<path d="M114.722 254.584L112.151 252.64L102.961 264.793L98.3573 261.311L96.5697 263.675L108.349 272.582L110.137 270.218L105.533 266.737L114.722 254.584Z" fill="#209C3C"/>
<path d="M105.587 247.027L103.289 244.803L90.6328 257.882L92.931 260.106L105.587 247.027Z" fill="#209C3C"/>
<path d="M99.8337 241.543L94.5991 234.943C92.0788 231.765 89.0499 230.75 86.5035 232.769C84.5275 234.336 84.4909 236.257 85.2453 238.38C83.8552 237.756 82.163 237.506 80.4518 238.863C79.4536 239.654 78.938 240.594 78.8074 241.727C78.6388 243.188 79.2084 244.827 80.5009 246.456L85.5739 252.853L99.8337 241.543ZM89.6285 245.622L85.8395 248.627L82.9799 245.021C81.7035 243.412 81.6853 241.966 82.8057 241.078C84.1502 240.011 85.638 240.59 86.9143 242.199L89.6285 245.622ZM95.6584 240.84L91.7471 243.942L88.5967 239.969C87.0295 237.993 86.9832 236.47 88.1851 235.517C89.5092 234.467 91.0054 234.973 92.3625 236.684L95.6584 240.84Z" fill="#209C3C"/>
<path d="M89.0189 226.945L87.3656 224.208L71.7863 233.617L73.4396 236.354L89.0189 226.945Z" fill="#209C3C"/>
<path d="M81.7602 212.243C79.6159 207.08 74.1381 205.076 69.4079 207.041C64.6297 209.026 62.212 214.253 64.3563 219.416C66.5007 224.578 71.9785 226.582 76.7086 224.617C81.4868 222.632 83.9046 217.405 81.7602 212.243ZM79.027 213.322C80.4134 216.659 78.6875 220.163 75.422 221.52C72.1085 222.896 68.4759 221.674 67.0895 218.337C65.7032 214.999 67.429 211.495 70.6945 210.139C74.008 208.762 77.6407 209.984 79.027 213.322Z" fill="#209C3C"/>
<path d="M76.1715 195.804L75.5038 192.65L60.5982 195.806L59.4027 190.159L56.5029 190.773L59.5617 205.221L62.4614 204.607L61.2659 198.96L76.1715 195.804Z" fill="#209C3C"/>
<path d="M74.2541 184.164L73.9847 180.977L55.8494 182.511L56.1188 185.697L74.2541 184.164Z" fill="#209C3C"/>
<path d="M74.2341 167.932C74.402 164.53 73.258 162.391 71.378 160.398L69.1993 162.347C70.5766 163.977 71.415 165.45 71.3048 167.683C71.1331 171.163 68.1004 173.538 64.5427 173.363C60.9331 173.185 58.2009 170.525 58.3726 167.045C58.4751 164.968 59.4609 163.454 60.883 162.067L58.6211 159.899C56.8733 161.556 55.6047 163.524 55.4394 166.874C55.1678 172.38 59.2097 176.458 64.3774 176.713C69.649 176.973 73.9727 173.229 74.2341 167.932Z" fill="#209C3C"/>
<path d="M76.2227 150.912L77.1436 147.849L70.0474 145.716L72.6903 136.926L69.9016 136.088L67.2588 144.877L62.5031 143.447L65.4829 133.538L62.6942 132.699L58.7936 145.671L76.2227 150.912Z" fill="#209C3C"/>
<path d="M81.3121 135.003L82.7538 132.149L77.091 129.289L78.8726 125.761L86.5748 124.583L88.2744 121.218L79.909 122.498C80.4078 119.895 79.6152 117.485 76.9463 116.137C73.8132 114.555 70.6456 115.752 68.7234 119.558L65.0664 126.799L81.3121 135.003ZM74.5613 128.011L69.1074 125.257L71.2055 121.103C72.2721 118.991 73.8566 118.218 75.5972 119.097C77.2914 119.953 77.7026 121.791 76.6711 123.834L74.5613 128.011Z" fill="#209C3C"/>
<path d="M89.6142 119.363L97.7503 108.435L95.4563 106.727L89.23 115.09L85.3094 112.171L90.7593 104.851L88.4653 103.143L83.0154 110.463L79.2198 107.637L85.3685 99.3786L83.0745 97.6707L75.016 108.494L89.6142 119.363Z" fill="#209C3C"/>
<path d="M99.8731 106.102L109.733 96.7008L107.76 94.6309L100.214 101.826L96.8408 98.2881L103.446 91.9904L101.472 89.9205L94.8672 96.2182L91.6017 92.7935L99.0533 85.6884L97.0797 83.6185L87.3136 92.9305L99.8731 106.102Z" fill="#209C3C"/>
<path d="M174.081 163C172.63 165.482 172.527 168.49 172.657 169.683C174.464 167.028 178.525 161.277 180.319 159.515C182.56 157.313 184.718 160.92 185.049 168.523C185.38 176.126 177.778 182.272 173.755 185.343C169.733 188.413 159.544 190.052 160.896 188.284C162.248 186.516 161.435 181.588 163.385 169.101C164.944 159.113 173.578 157.033 177.7 157.242C178.583 157.287 175.531 160.518 174.081 163Z" fill="#209C3C"/>
<circle cx="147.717" cy="66.5516" r="5" transform="rotate(90.8338 147.717 66.5516)" fill="#209C3C"/>
</svg>
