<svg width="346" height="346" viewBox="0 0 346 346" fill="none" xmlns="http://www.w3.org/2000/svg">
<path d="M155.669 272.654L152.518 271.759L149.517 275.474L141.238 273.123L140.663 268.392L137.411 267.469L140.107 287.289L142.959 288.099L155.669 272.654ZM147.617 277.881L142.627 284.032L141.59 276.169L147.617 277.881Z" fill="#209C3C"/>
<path d="M135.525 266.612L132.722 265.183L126.841 276.719L123.781 260.625L121.395 259.409L113.129 275.623L115.932 277.052L121.647 265.841L124.618 281.481L127.259 282.827L135.525 266.612Z" fill="#209C3C"/>
<path d="M114.722 254.584L112.151 252.64L102.961 264.793L98.3573 261.311L96.5697 263.675L108.349 272.582L110.137 270.218L105.533 266.737L114.722 254.584Z" fill="#209C3C"/>
<path d="M105.587 247.027L103.289 244.803L90.6328 257.882L92.931 260.106L105.587 247.027Z" fill="#209C3C"/>
<path d="M99.8337 241.543L94.5991 234.943C92.0788 231.765 89.0499 230.75 86.5035 232.769C84.5275 234.336 84.4909 236.257 85.2453 238.38C83.8552 237.756 82.163 237.506 80.4518 238.863C79.4536 239.654 78.938 240.594 78.8074 241.727C78.6388 243.188 79.2084 244.827 80.5009 246.456L85.5739 252.853L99.8337 241.543ZM89.6285 245.622L85.8395 248.627L82.9799 245.021C81.7035 243.412 81.6853 241.966 82.8057 241.078C84.1502 240.011 85.638 240.59 86.9143 242.199L89.6285 245.622ZM95.6584 240.84L91.7471 243.942L88.5967 239.969C87.0295 237.993 86.9832 236.47 88.1851 235.517C89.5092 234.467 91.0054 234.973 92.3625 236.684L95.6584 240.84Z" fill="#209C3C"/>
<path d="M89.0189 226.945L87.3656 224.208L71.7863 233.617L73.4396 236.354L89.0189 226.945Z" fill="#209C3C"/>
<path d="M81.7602 212.243C79.6159 207.08 74.1381 205.076 69.4079 207.041C64.6297 209.026 62.212 214.253 64.3563 219.416C66.5007 224.578 71.9785 226.582 76.7086 224.617C81.4868 222.632 83.9046 217.405 81.7602 212.243ZM79.027 213.322C80.4134 216.659 78.6875 220.163 75.422 221.52C72.1085 222.896 68.4759 221.674 67.0895 218.337C65.7032 214.999 67.429 211.495 70.6945 210.139C74.008 208.762 77.6407 209.984 79.027 213.322Z" fill="#209C3C"/>
<path d="M76.1715 195.804L75.5038 192.65L60.5982 195.806L59.4027 190.159L56.5029 190.773L59.5617 205.221L62.4614 204.607L61.2659 198.96L76.1715 195.804Z" fill="#209C3C"/>
<path d="M74.2541 184.164L73.9847 180.977L55.8494 182.511L56.1188 185.697L74.2541 184.164Z" fill="#209C3C"/>
<path d="M74.2341 167.932C74.402 164.53 73.258 162.391 71.378 160.398L69.1993 162.347C70.5766 163.977 71.415 165.45 71.3048 167.683C71.1331 171.163 68.1004 173.538 64.5427 173.363C60.9331 173.185 58.2009 170.525 58.3726 167.045C58.4751 164.968 59.4609 163.454 60.883 162.067L58.6211 159.899C56.8733 161.556 55.6047 163.524 55.4394 166.874C55.1678 172.38 59.2097 176.458 64.3774 176.713C69.649 176.973 73.9727 173.229 74.2341 167.932Z" fill="#209C3C"/>
<path d="M76.2227 150.912L77.1436 147.849L70.0474 145.716L72.6903 136.926L69.9016 136.088L67.2588 144.877L62.5031 143.447L65.4829 133.538L62.6942 132.699L58.7936 145.671L76.2227 150.912Z" fill="#209C3C"/>
<path d="M81.3121 135.003L82.7538 132.149L77.091 129.289L78.8726 125.761L86.5748 124.583L88.2744 121.218L79.909 122.498C80.4078 119.895 79.6152 117.485 76.9463 116.137C73.8132 114.555 70.6456 115.752 68.7234 119.558L65.0664 126.799L81.3121 135.003ZM74.5613 128.011L69.1074 125.257L71.2055 121.103C72.2721 118.991 73.8566 118.218 75.5972 119.097C77.2914 119.953 77.7026 121.791 76.6711 123.834L74.5613 128.011Z" fill="#209C3C"/>
<path d="M89.6142 119.363L97.7503 108.435L95.4563 106.727L89.23 115.09L85.3094 112.171L90.7593 104.851L88.4653 103.143L83.0154 110.463L79.2198 107.637L85.3685 99.3786L83.0745 97.6707L75.016 108.494L89.6142 119.363Z" fill="#209C3C"/>
<path d="M99.8731 106.102L109.733 96.7008L107.76 94.6309L100.214 101.826L96.8408 98.2881L103.446 91.9904L101.472 89.9205L94.8672 96.2182L91.6017 92.7935L99.0533 85.6884L97.0797 83.6185L87.3136 92.9305L99.8731 106.102Z" fill="#209C3C"/>
<path d="M201.004 76.6493L203.998 77.7723L206.692 70.5908L214.823 73.6404L212.129 80.8219L215.123 81.945L221.515 64.9041L218.521 63.7811L215.864 70.8652L207.733 67.8156L210.39 60.7315L207.395 59.6084L201.004 76.6493Z" fill="#209C3C"/>
<path d="M225.357 88.118C230.098 91.0783 235.723 89.5322 238.435 85.1874C241.175 80.7985 240.111 75.1382 235.37 72.1778C230.628 69.2175 225.004 70.7637 222.291 75.1085C219.551 79.4974 220.615 85.1577 225.357 88.118ZM226.957 85.6533C223.891 83.7395 223.264 79.8841 225.136 76.8847C227.036 73.8411 230.704 72.7286 233.77 74.6425C236.835 76.5564 237.463 80.4117 235.59 83.4112C233.69 86.4547 230.022 87.5672 226.957 85.6533Z" fill="#209C3C"/>
<path d="M236.133 95.0948L238.465 97.2832L242.806 92.6572L245.688 95.3615L244.646 103.083L247.395 105.663L248.526 97.2763C250.883 98.489 253.418 98.4085 255.464 96.2282C257.866 93.6687 257.612 90.2923 254.503 87.3744L248.587 81.8234L236.133 95.0948ZM244.746 90.5906L248.927 86.1352L252.32 89.3199C254.046 90.939 254.34 92.6771 253.006 94.099C251.707 95.483 249.827 95.3588 248.158 93.7931L244.746 90.5906Z" fill="#209C3C"/>
<path d="M249.063 107.421L250.892 109.981L261.468 102.42L257.842 112.012L257.902 112.096L268.224 111.781L257.606 119.372L259.466 121.973L274.271 111.389L272.291 108.618L262.069 109.118L265.849 99.6075L263.868 96.8368L249.063 107.421Z" fill="#209C3C"/>
<path d="M264.427 133.209C266.627 138.348 272.125 140.294 276.834 138.279C281.591 136.243 283.953 130.99 281.753 125.851C279.554 120.712 274.055 118.766 269.346 120.781C264.59 122.817 262.228 128.07 264.427 133.209ZM267.149 132.101C265.727 128.779 267.415 125.256 270.666 123.865C273.965 122.453 277.61 123.636 279.032 126.959C280.454 130.281 278.766 133.804 275.515 135.195C272.216 136.607 268.571 135.424 267.149 132.101Z" fill="#209C3C"/>
<path d="M269.302 144.761L269.929 147.844L282.618 145.265L271.928 157.679L272.461 160.303L290.297 156.678L289.67 153.595L277.338 156.101L287.728 144.04L287.138 141.136L269.302 144.761Z" fill="#209C3C"/>
<path d="M272.837 164.352L273.085 177.974L275.944 177.922L275.755 167.497L280.642 167.409L280.808 176.533L283.667 176.481L283.502 167.357L288.233 167.271L288.42 177.565L291.279 177.513L291.034 164.022L272.837 164.352Z" fill="#209C3C"/>
<path d="M272.208 187.21L271.538 190.337L278.783 191.891L276.858 200.865L279.705 201.476L281.63 192.502L286.486 193.544L284.316 203.661L287.163 204.272L290.004 191.027L272.208 187.21Z" fill="#209C3C"/>
<path d="M268.444 203.714L267.244 206.678L273.124 209.06L271.64 212.723L264.061 214.534L262.646 218.028L270.877 216.06C270.595 218.695 271.584 221.032 274.355 222.154C277.609 223.472 280.666 222.018 282.267 218.066L285.313 210.547L268.444 203.714ZM275.75 210.124L281.413 212.418L279.666 216.731C278.778 218.924 277.263 219.825 275.455 219.093C273.696 218.381 273.134 216.582 273.993 214.461L275.75 210.124Z" fill="#209C3C"/>
<path d="M261.54 219.986L254.325 231.543L256.751 233.058L262.273 224.214L266.419 226.802L261.586 234.544L264.012 236.058L268.845 228.317L272.859 230.823L267.406 239.557L269.832 241.071L276.979 229.625L261.54 219.986Z" fill="#209C3C"/>
<path d="M252.345 234.206L243.293 244.388L245.431 246.289L252.357 238.496L256.011 241.744L249.948 248.564L252.085 250.465L258.148 243.644L261.685 246.788L254.845 254.483L256.982 256.383L265.947 246.298L252.345 234.206Z" fill="#209C3C"/>
<path d="M174.081 163C172.63 165.482 172.527 168.49 172.657 169.683C174.464 167.028 178.525 161.277 180.319 159.515C182.56 157.313 184.718 160.92 185.049 168.523C185.38 176.126 177.778 182.272 173.755 185.343C169.733 188.413 159.544 190.052 160.896 188.284C162.248 186.516 161.435 181.588 163.385 169.101C164.944 159.113 173.578 157.033 177.7 157.242C178.583 157.287 175.531 160.518 174.081 163Z" fill="#209C3C"/>
<circle cx="147.717" cy="66.5516" r="5" transform="rotate(90.8338 147.717 66.5516)" fill="#209C3C"/>
<circle cx="202.713" cy="273.374" r="5" transform="rotate(90.8338 202.713 273.374)" fill="#209C3C"/>
</svg>
