<svg width="50" height="35" viewBox="0 0 50 35" fill="none" xmlns="http://www.w3.org/2000/svg">
<path fill-rule="evenodd" clip-rule="evenodd" d="M2.08136 8.85802C2.2 8.38029 2.61018 7.7433 3.02713 7.58919C3.139 8.01385 2.47289 8.85802 2.08136 8.85802ZM41.2514 9.6046C41.1811 9.64546 41.1017 9.66777 41.0206 9.66948C40.9395 9.67118 40.8593 9.65222 40.7873 9.61434C40.7154 9.57647 40.6541 9.5209 40.609 9.45276C40.5639 9.38462 40.5365 9.3061 40.5294 9.22446C40.461 9.34545 40.4139 9.47756 40.3904 9.61487C40.511 9.61461 40.6268 9.66263 40.7125 9.74843C40.5599 9.74843 40.4057 9.73816 40.2531 9.73131C40.3091 9.2724 40.565 8.74843 41.065 8.67652C41.4548 8.62172 41.7701 8.96932 41.8735 9.31692L41.7616 9.36144C41.6514 9.01898 41.5311 8.88713 41.204 8.78268C41.2812 8.81696 41.3474 8.87211 41.3955 8.94203C41.4437 9.01196 41.4717 9.09395 41.4766 9.17897C41.4815 9.26398 41.4631 9.34871 41.4234 9.42382C41.3836 9.49892 41.3241 9.56148 41.2514 9.6046ZM5.62378 24.8768C5.74412 25.3408 6.04583 25.9127 6.22549 26.3134C6.66279 27.2894 7.17296 28.3836 7.27635 29.1011C7.36091 29.9879 7.35637 30.8812 7.26279 31.7671C7.24923 31.9178 7.46449 32.4966 7.51704 32.7312C7.61873 33.1952 7.75602 33.8014 8.00348 33.7842C8.25094 33.7671 8.07636 32.7466 8.3001 32.8596C8.34743 32.8933 8.38113 32.9432 8.39501 33C8.52891 33.3699 8.48315 33.5736 8.54247 33.8442V33.863V33.8836V33.9058V33.9144V33.9298V33.9435V33.9589V33.9743V33.9829V34V34.0086V34.0171V34.0325C8.55264 34.0548 8.56281 34.0788 8.57468 34.1027V34.113V34.1284L8.59841 34.1747L8.61027 34.1952V34.2038L8.62044 34.2243V34.2346V34.2449V34.2551V34.2654L8.634 34.286V34.2945V34.3048V34.3168C9.05265 34.976 9.40859 34.9024 9.57808 34.9144C10.1197 34.9717 10.664 35.0003 11.2086 35C11.4154 34.988 11.5205 34.9264 11.3781 34.6969C11.2001 34.4041 11.0086 34.2055 10.9408 34.0753C10.873 33.9452 10.7306 33.1832 10.7171 33.137C10.5476 32.4709 10.3425 31.8887 10.3391 31.6644C10.3173 30.9822 10.2236 30.3043 10.0594 29.6421C9.86152 28.709 9.7604 27.7575 9.75775 26.8031C9.7999 26.0578 9.95835 25.3239 10.2272 24.6285C10.7069 25.6833 11.6052 27.2055 11.7781 28.1165C11.8991 28.9617 11.9337 29.8172 11.8815 30.6695C11.8713 30.9178 12.1103 31.6165 12.2815 31.9795C12.5374 32.5274 12.6442 32.8236 12.7798 32.7312C13.0561 32.5428 12.6747 31.6113 12.9002 31.6644C13.09 31.7072 12.9578 33.0908 13.7748 33.6027C14.0829 33.7712 14.4296 33.8545 14.7799 33.8442C15.0697 33.8442 15.39 33.8271 15.6087 33.8442C15.8273 33.8613 16.5036 33.7894 16.1172 33.375C15.9325 33.1867 15.7729 32.9749 15.6426 32.7449V32.7363C15.5783 32.4191 15.4945 32.1063 15.3917 31.7997C15.2222 31.3134 15.0121 30.8425 14.9934 30.5308C14.9415 29.8785 14.8222 29.2334 14.6375 28.6062C14.4868 28.0056 14.3708 27.3967 14.29 26.7826C14.2095 26.0485 14.2095 25.3077 14.29 24.5737C14.3443 23.8545 14.4205 23.1388 14.5205 22.4127C14.651 22.4949 15.3155 22.8186 15.6443 23.0617C17.0629 24.1182 17.2528 23.3785 17.8257 22.935C18.5172 22.3973 19.1816 22.197 20.0918 22.1559L26.0461 21.9008C26.4105 22.7415 26.3461 23.084 26.4377 24.036C26.4207 24.036 26.5733 25.4059 26.5919 25.5463C26.719 26.6233 27.5716 27.8904 27.6563 28.5154C27.6652 28.6191 27.6652 28.7234 27.6563 28.8271C27.6275 29.512 27.3495 30.5394 27.3173 31.0719C27.3265 31.4025 27.3801 31.7303 27.4767 32.0462C27.7021 32.6747 27.5919 33.1353 27.8919 33.0616C27.9767 33.0411 28.0021 32.8476 28.0614 32.5377C28.1309 32.1695 28.1428 31.8151 28.2309 32.3048C28.3428 32.911 28.2055 33.0531 28.6157 33.7175C28.7489 33.9553 28.9546 34.1432 29.2021 34.2534C29.5513 34.3973 31.0784 34.4692 31.3852 34.4024C31.4818 34.3818 31.4326 34.2106 31.3598 34.125C31.1774 33.9186 31.0234 33.6882 30.9021 33.4401C30.7479 32.4606 30.3496 31.4041 30.3496 31.0822C30.384 30.4347 30.3539 29.7853 30.2598 29.1439C30.0596 28.1936 30.028 27.2149 30.1665 26.2535C30.2635 24.7869 30.452 23.3279 30.7309 21.8853L31.053 21.8477C31.0716 24.9093 32.2242 27.7946 32.2208 28.8425C32.2954 29.3665 32.0784 30.1798 32.1208 30.4949C32.1784 30.9178 32.3174 31.2552 32.6293 32.0069C32.9412 32.7586 33.0344 32.2123 33.0767 31.7843C33.1056 31.5 33.1157 31.2209 33.1157 31.2209C33.2208 31.286 33.4937 32.7243 33.6429 33.0017C33.7501 33.1861 33.8973 33.3436 34.0734 33.4622C34.2496 33.5809 34.4501 33.6576 34.6598 33.6866C35.0174 33.7372 35.3805 33.7308 35.7361 33.6678C36.0192 33.6164 36.5751 33.5873 36.4141 33.3253C36.3259 33.1849 35.7785 32.5959 35.6141 32.3921C35.5367 32.2792 35.4936 32.1459 35.4903 32.0086C35.4598 31.6952 35.3208 31.6147 35.2344 31.3236C35.1975 31.1599 35.1748 30.9931 35.1666 30.8254C35.109 30.1935 34.9107 29.7261 34.8446 29.3562C34.4039 26.9076 34.9496 23.2586 35.453 20.7946C37.6463 20.3922 38.8717 19.1371 39.804 18.5686C40.2226 18.3117 40.5023 18.1765 40.5023 18.1765C41.7589 18.0572 42.9307 17.4839 43.8023 16.5617C45.5193 16.4967 46.8905 15.8888 47.9787 14.6782C50.0533 15.2176 50.8058 11.4248 48.916 10.9813C47.7295 10.6971 46.7125 11.5806 46.1905 12.5823C46.1736 12.6148 46.1549 12.6508 46.138 12.6868C46.1193 12.6063 46.2464 11.6457 47.2109 10.9967C47.3386 10.9222 47.4711 10.8565 47.6075 10.7998L45.9125 9.33062C46.2634 7.72276 47.2888 7.66625 46.8803 5.19366L46.4363 2.49847C46.3719 2.11149 46.9803 0.929987 46.6753 0.527592C46.2871 0.0138965 44.7634 1.11834 43.5701 2.55155C42.9268 3.3608 42.3621 4.23066 41.8837 5.14914C41.826 5.21421 41.7904 5.24845 41.7904 5.24845C41.06 5.15183 40.3236 5.10948 39.587 5.12174C39.5768 4.55154 39.587 3.78613 39.487 3.41798C39.204 2.44025 38.0158 1.30841 36.8717 0.549851C35.9226 -0.0768581 35.1242 -0.331994 35.0073 0.683411C34.8378 2.26388 33.8208 2.85121 33.7869 4.9214C33.7775 5.17857 33.7866 5.4361 33.814 5.69194C28.297 6.41625 24.4088 5.79811 18.9426 5.05496C13.5985 4.32894 10.0001 4.86318 6.78143 6.41454C4.36445 7.58063 3.90003 9.38713 2.86781 9.9522C2.48814 10.1628 2.11865 10.2056 2.07119 9.54124C2.51696 9.40254 3.66613 8.95049 3.61359 7.68166C3.59664 7.25016 3.43562 6.97961 3.20171 6.84776C2.20509 6.28783 1.2305 7.70392 1.06439 8.63713C0.511842 8.38371 0.227092 7.40769 0.894899 6.44537C1.23389 5.95222 1.0288 5.94879 0.484723 6.56523C-0.0593528 7.18166 -0.394951 8.69193 0.879645 9.24501C0.677947 10.7861 1.82881 11.6919 2.88476 11.1971C2.6712 11.8666 2.51865 12.4368 2.62882 13.6662C2.70643 14.491 2.88404 15.303 3.15764 16.084C3.42544 16.8563 4.09834 17.9676 4.69326 18.911C5.07123 19.5069 5.48141 20.1388 5.61192 20.3528C5.74243 20.5669 5.75599 21.4059 5.78141 21.5001C6.17972 22.7672 5.98481 23.2877 5.76277 23.8579C5.56785 24.3511 5.44412 24.2689 5.59328 24.8751L5.62378 24.8768ZM49.2617 12.2621C49.4312 12.4659 49.6516 12.4008 49.7024 12.6765C49.7414 12.882 49.3431 13.0087 49.0973 12.7296C48.8753 12.4779 49.0109 11.9453 49.2668 12.2621H49.2617ZM47.321 12.2621C47.5719 11.9453 47.7075 12.4779 47.4905 12.7296C47.2448 13.0087 46.8448 12.882 46.8837 12.6765C46.9312 12.4008 47.1566 12.4659 47.321 12.2621Z" fill="#209C3C"/>
</svg>
