<svg width="56" height="36" viewBox="0 0 56 36" fill="none" xmlns="http://www.w3.org/2000/svg">
<path fill-rule="evenodd" clip-rule="evenodd" d="M6.28062 15.4933L6.35168 13.0802C5.41446 12.0241 4.93241 12.1707 4.69427 11.4097C4.07778 9.42167 4.01825 9.52933 2.03051 8.90193C1.28535 8.66619 0.857069 8.43231 2.42613 8.36178C4.2199 8.51399 6.30174 8.46387 7.91882 8.73302C8.1608 8.77385 8.39318 8.82212 8.61212 8.87966C8.7408 8.96876 10.6229 12.1039 10.7247 12.3637C10.3175 10.5929 9.82781 9.72794 8.80417 8.45459C8.19526 8.42529 7.58934 8.35332 6.9912 8.23927C5.16287 7.88659 4.7442 7.53205 3.4901 6.97705C2.236 6.42204 1.5715 5.02804 2.60666 5.51622C3.25196 5.81507 5.34725 6.2587 6.69929 6.39049C8.13776 6.53899 8.9367 6.84155 10.1562 7.27404C11.1799 6.51671 12.6318 5.57747 14.1298 5.0466C17.9247 3.72127 20.2236 1.77968 24.7272 1.44L33.0892 0.810743C33.0892 0.810743 39.496 -0.278848 42.3422 0.0682624C45.1884 0.415372 47.0283 0.526745 48.5705 1.61634C49.8668 2.53144 51.2035 3.02148 52.3021 4.53243C53.7943 3.97557 56.291 5.08929 55.5938 7.365C54.985 8.95205 54.6988 10.0602 55.5208 11.7252C55.6322 11.9517 56.289 13.3958 55.8512 13.6445C55.5362 13.8301 54.6989 12.3675 54.4684 11.7605C53.873 10.14 53.9883 8.21514 54.5663 7.1404C54.9697 6.38678 53.5696 6.14547 53.414 6.78029C53.4012 6.82697 53.3941 6.87494 53.3929 6.92322C54.0574 9.70752 53.8788 14.2032 52.7879 15.833C51.9871 17.0284 50.6754 20.3399 49.8495 22.0012C48.8893 23.9279 48.9162 25.2996 48.5052 27.4027L48.6242 29.2014C48.678 29.7824 48.2401 30.3355 48.1345 30.419C47.9946 30.0391 47.9193 29.6398 47.9117 29.2366L47.856 31.1597C47.6832 31.5309 44.8485 31.4734 44.9925 31.1986V31.1133H44.9753L45.1673 30.0868C45.4535 29.0454 46.0027 28.2399 46.2428 27.2876C46.4502 26.0829 46.5251 25.3293 46.4637 24.6889C46.2908 22.92 45.2653 21.9566 44.9541 20.1858C44.8293 19.4712 44.8485 18.7714 44.9407 17.7616C45.0963 16.0724 44.2435 16.2989 43.967 17.6428C43.7288 18.8011 43.3582 19.8702 42.7263 20.7018C42.1713 21.4443 41.6412 22.042 40.5734 22.4633C38.9179 23.1149 37.7656 23.3079 35.9258 23.5771C35.589 24.0404 35.3657 24.5717 35.2728 25.1307C35.1691 25.8027 35.4322 26.8514 35.3727 27.3953C35.3727 27.5178 35.148 28.0357 35.0731 28.535C34.9954 29.108 34.955 29.6852 34.9521 30.2631C34.9309 30.7791 35.3496 32.1193 35.4687 33.1087C35.557 33.84 35.1633 34.408 35.0135 34.2966L34.6294 32.9565L34.6544 34.9871C34.6544 35.5904 31.5547 35.3491 31.2397 35.2136C30.7327 34.9964 31.1898 34.3133 31.3434 33.8957C31.6449 33.0771 32.0425 32.2047 31.8504 30.51C31.5437 27.9783 30.9966 25.4792 30.2161 23.0443C28.7507 23.0945 27.3775 23.2058 26.0581 23.3079C25.845 24.4922 26.0965 25.1251 25.8661 25.7098C25.2899 27.1948 24.5217 27.4231 25.0575 28.7633C25.5934 30.1035 25.5588 32.2233 25.5588 32.2233C25.1747 32.188 24.9462 31.6664 24.8271 31.0706C24.685 31.5161 24.852 32.2604 24.8655 32.8562C24.7426 33.4372 21.2856 33.3722 21.0533 32.7449L21.9002 30.9963C22.703 28.1211 22.5033 26.5266 21.4777 23.5158H21.4374C19.7154 23.5053 18.0039 23.2552 16.3557 22.7733C11.6965 24.5534 11.8136 24.7372 6.80684 24.6073L3.68407 25.2235C3.39054 25.3032 3.07633 25.2671 2.81024 25.1233C2.2917 26.4041 1.09329 23.8239 1.16435 23.514C1.16435 23.514 1.26038 23.5381 1.40442 23.5864L1.10482 23.2392C0.528659 22.9942 -0.203056 22.5413 0.0523736 21.8935C0.204095 21.5055 0.48064 21.6355 0.762957 21.9455C0.966686 21.8372 1.18171 21.7501 1.40442 21.6856C4.37546 20.7408 5.03996 18.3853 6.29022 15.4933H6.28062ZM45.4477 28.0969C45.3651 27.5828 45.2806 26.9739 45.1961 26.3168C45.079 25.3887 45.3882 23.9038 45.5937 22.9163C45.1788 22.1237 44.7851 21.4796 44.6084 20.7891C44.2109 19.2261 43.6808 20.1691 42.9453 21.2234C42.5881 21.7357 42.1655 22.2295 41.6739 22.4856L43.0336 26.1461C43.6866 27.9057 42.6361 29.0176 41.9831 30.8515C41.6585 31.2859 44.4798 31.3843 44.6872 31.1671L45.0175 29.4687L44.8255 28.2473C45.0175 28.6315 44.9599 29.0789 45.2441 29.2942C45.2941 29.1624 45.5783 28.6538 45.4362 28.0969H45.4477ZM10.3348 14.1234C10.6782 14.6504 10.9015 15.2421 10.9897 15.859C11.0296 15.0754 10.8988 14.2925 10.6056 13.561C9.79708 13.9879 9.64537 14.5578 7.89577 14.1179C8.06286 14.3722 9.02888 14.6227 9.39378 14.5838C9.74863 14.5303 10.0764 14.3683 10.3291 14.1216L10.3348 14.1234ZM8.10127 15.3244C7.17174 15.7587 7.39068 15.6251 7.29082 16.6534C7.90922 16.2024 8.40471 16.1207 8.10127 15.3244Z" fill="#209C3C"/>
</svg>
