<svg width="54" height="30" viewBox="0 0 54 30" fill="none" xmlns="http://www.w3.org/2000/svg">
<path fill-rule="evenodd" clip-rule="evenodd" d="M47.2837 6.82333C47.1001 6.58638 46.8862 6.37411 46.6476 6.19183C46.8797 6.00396 47.1469 5.85398 47.3727 5.6661C47.9453 5.19248 47.6908 4.70465 46.9672 4.85463C46.7201 4.91075 46.4835 5.00504 46.2659 5.13407C45.1686 5.21458 43.0519 5.90766 42.4492 6.72387C43.2555 5.51613 44.4434 4.90357 45.8795 4.77727C46.1753 4.17734 45.6171 3.47795 46.3295 2.72489C46.3295 2.72489 46.6651 1.91341 46.6937 1.5203C46.7637 0.565159 46.6826 -0.689949 45.5932 0.459382C45.2603 0.802554 44.9708 1.18481 44.7313 1.59766C44.3687 2.27968 44.4943 2.63174 44.4943 2.63174C43.8089 3.35165 43.3461 3.92632 42.772 4.57361C37.0851 3.15273 28.1413 3.16063 24.9098 2.85593C24.9098 2.85593 19.2133 2.22443 13.9128 2.16917C9.68741 2.13128 5.84048 4.76622 4.80519 5.61243C3.52341 6.65598 0.907368 5.33299 1.52122 3.66425C1.9681 2.44703 1.40513 1.92762 0.963028 3.08958C-0.358511 6.56284 2.35772 7.13119 3.86533 7.54956C3.27532 9.30198 3.00338 11.408 4.1484 14.0572C4.49508 14.8576 4.82428 15.6043 4.78452 16.5469C4.74317 17.5825 3.77468 17.4136 3.03519 17.7341C1.69298 18.3182 1.66276 18.3909 1.61664 19.387C1.47669 22.4009 1.03141 22.3235 0.145614 25.2742C-0.000693232 25.7636 -0.172446 25.9831 0.377798 27.1229C0.536828 27.456 0.783324 26.5167 0.783324 26.5167C0.915319 27.516 1.10138 27.977 1.39082 28.1617C1.63095 28.3196 2.75689 28.2502 3.164 28.277C3.64109 28.307 3.73174 28.2454 3.37074 27.6313C2.77915 26.6225 2.47222 24.848 3.92417 22.3283C4.48236 21.3605 5.51447 20.9863 6.23487 20.448C7.88401 19.2229 9.1483 17.8746 11.529 17.7073C13.3531 17.5794 15.4363 19.2071 20.7861 19.1281C26.9644 19.035 31.3441 17.2857 31.6145 17.6583C32.5432 18.1161 31.2217 21.9051 31.174 24.4122C31.174 24.8179 31.6717 25.8883 31.7655 26.7061C31.9071 27.9691 31.756 29.0285 32.5782 29.3253C32.7372 29.3837 32.602 28.6606 32.8962 28.7522C32.9583 29.3963 33.0553 29.72 33.2541 29.8936C33.561 30.1589 35.2976 29.8526 35.595 29.7863C35.859 29.6063 34.4659 27.3755 34.1462 26.3225C34.0095 25.6515 33.9872 25.4226 34.5327 24.7438C36.4792 22.2809 37.0771 21.1742 37.5781 19.6554C37.6592 19.4076 38.0186 18.9513 38.4766 18.3024C37.9884 19.6586 37.5717 20.4653 37.0104 22.3693C37.8331 23.4089 38.4907 24.5674 38.9601 25.8047C39.0205 25.9625 39.5962 27.1829 40.0844 27.1766C40.2593 27.1766 39.7584 26.2562 40.1226 26.3336C40.8 27.7671 40.7046 28.0844 41.2708 28.0702L43.1791 28.0133C43.8741 27.9912 41.2914 25.0974 40.711 23.9938C39.5437 21.771 39.1716 20.1812 39.0555 17.9677C39.0284 17.4562 39.1827 16.9763 39.6725 16.7774C40.9925 16.2422 45.1718 15.6059 47.5047 15.3044C49.3177 15.0707 50.6631 15.1749 52.4903 15.2255C52.8704 15.0186 52.3122 14.7787 52.5523 14.5718C54.0854 15.0692 54.2222 11.2565 53.7801 11.7159C53.2489 12.2748 51.8987 11.4001 51.4232 11.0181C49.8733 9.80456 48.4841 8.40152 47.2885 6.84228L47.2837 6.82333ZM47.2344 5.38667C46.9354 5.65821 46.2897 5.95186 45.889 6.57073C45.4882 7.1896 45.3213 9.33828 43.8025 10.1119C44.3655 9.46932 44.4386 8.86466 44.5372 8.5568C44.8394 7.5985 44.8855 7.06488 45.2195 6.54232C45.6383 5.84948 46.3005 5.33494 47.0785 5.09776C47.5095 5.01251 47.4936 5.15143 47.2376 5.38667H47.2344ZM42.9501 9.79139C42.4301 8.93254 42.3808 7.51324 42.4206 7.37747C42.4936 7.70308 42.5892 8.02328 42.7068 8.33578C42.8293 8.67047 42.9708 8.47944 43.1076 8.75099C43.1998 8.93254 43.292 9.60667 43.3747 9.72824C43.4279 9.81444 43.4957 9.89082 43.5751 9.954C43.292 10.1656 43.098 10.0408 42.9501 9.79612V9.79139ZM7.41965 20.148C8.53678 19.3284 9.79128 18.7115 11.125 18.3261C10.6098 20.8316 10.0643 22.3756 11.2539 25.3484C11.5004 25.9641 13.4485 27.9802 12.4991 27.917L10.4539 27.7797C9.9021 27.7418 10.0691 27.6739 9.67469 26.2404C9.32642 26.163 9.64606 27.0835 9.46954 27.085C8.9845 27.085 8.64577 25.8694 8.61714 25.7115C8.38816 24.5777 8.22515 23.4317 8.12892 22.2793C7.95627 21.5495 7.71892 20.8363 7.41965 20.148ZM49.0744 10.7307C48.7674 10.5823 48.5559 10.3945 48.1917 10.3566C48.0534 10.4892 47.5334 10.1734 47.7878 9.78191C47.8785 9.64298 48.1822 9.61456 48.4939 9.90348C48.7627 10.1513 48.9201 10.5081 49.0744 10.7307Z" fill="#209C3C"/>
</svg>
