<svg width="51" height="34" viewBox="0 0 51 34" fill="none" xmlns="http://www.w3.org/2000/svg">
<path fill-rule="evenodd" clip-rule="evenodd" d="M2.62945 27.5331C3.55065 29.4686 6.20278 27.6575 6.05302 25.9658C5.7535 22.6228 7.96854 18.2658 9.36165 15.4946C11.1675 12.4677 19.1569 7.89886 22.3141 6.64776C25.4712 5.39666 26.4829 4.70048 31.021 3.57549C33.0149 3.08111 36.8825 3.78737 38.6308 3.89836C39.2107 3.26944 39.9317 2.66744 40.3635 1.96621C40.5151 1.72748 40.7036 1.51255 40.9225 1.3289C41.6487 0.711753 42.6778 0.368708 43.4179 0.245953C45.3839 -0.0785938 46.7039 -0.117276 46.6012 0.345161C46.4653 0.950532 45.9151 1.49201 45.6399 1.56096C44.6491 2.6069 44.4714 4.58781 43.9664 5.30753C44.8876 6.02049 45.7073 6.84768 46.4044 7.76769C46.8589 8.36129 46.9877 10.3439 48.3199 12.8999C48.8179 13.8584 49.1784 14.7648 49.7722 15.1112C49.0913 15.4155 48.8545 16.6633 48.2241 17.1291C47.8619 17.3981 47.5432 17.9699 47.6895 18.355C47.7328 18.0502 47.8685 17.7647 48.0796 17.5344C48.3965 17.2468 48.7135 17.0669 48.966 16.7911C49.0426 16.7053 49.2951 16.2664 49.4065 16.0882C49.464 15.9974 49.5215 15.9083 49.5807 15.8259C49.767 15.577 50.1118 15.2508 50.4514 15.2659C50.5346 15.2711 50.6143 15.3001 50.6803 15.3492C50.7464 15.3983 50.7958 15.4653 50.8223 15.5417C51.1949 16.3421 50.9964 17.8 50.0857 18.2188C49.4518 18.7232 48.7518 19.1319 47.9542 18.9301C46.3521 18.5265 45.7409 18.0388 44.3165 17.4166C43.8968 16.5422 43.5659 17.3494 44.2015 17.6638C45.0461 18.3449 47.1183 19.448 48.2172 19.1504C48.2398 19.1504 48.2659 19.1504 48.2886 19.1504C47.6059 19.823 42.6412 19.2647 41.7305 19.0108C40.9856 18.7742 40.2221 18.596 39.4475 18.4777C39.2873 18.6358 38.1833 18.814 37.2952 18.9553L36.9608 19.0074C37.0775 20.7193 37.2186 23.6032 37.4258 24.9132C37.633 26.2231 38.8677 29.4232 38.8677 29.4232C39.1829 30.3161 40.104 31.6815 39.815 32.1003C39.815 32.1003 37.8838 32.8973 37.2029 31.6614C37.175 31.6126 36.4855 28.8027 36.5063 28.9086L36.8337 31.2746C36.6909 31.5605 35.4563 30.829 35.3344 29.033C35.256 27.8559 35.27 26.9512 35.0958 26.6065C34.3679 25.1604 33.6731 23.0146 33.0845 21.5618C32.3131 21.8342 31.3431 22.1772 30.5752 22.2932C30.296 21.5868 30.0941 20.8542 29.9727 20.1072C30.2757 22.5472 30.5299 24.7433 31.1603 27.4036C31.6078 29.2903 33.539 31.3772 33.2116 33.0117L32.4768 31.5403L33.2691 33.4439C33.3231 33.57 33.5007 33.765 33.1646 33.8609C32.8285 33.9567 31.6688 34.2443 31.1429 33.5347C30.617 32.825 29.9431 31.056 29.9431 31.056L30.0928 32.8822C29.001 32.3256 29.2605 30.528 29.1455 29.0986L27.7855 27.375C26.9758 25.8128 26.2792 24.18 25.3319 22.7742C24.7468 21.6458 24.9836 20.7563 25.2135 19.8566C25.3559 19.3867 25.4429 18.9027 25.4729 18.4138C25.1125 18.8863 24.9784 19.4749 24.8304 20.0416C24.3201 21.9956 24.5134 23.0399 25.4433 24.3481C24.4142 26.2315 22.8678 27.3498 20.6389 28.5639C20.8478 28.5639 21.055 28.5504 21.257 28.537C22.9688 28.5218 24.9627 27.7517 25.5461 28.4327C26.1817 29.1726 26.9566 30.2522 27.7193 30.8172C28.2156 31.1872 27.1481 31.0493 26.6745 31.0846L24.8913 29.0196C24.6249 28.7102 24.0676 28.7018 23.378 28.7842C21.9397 28.9523 17.6524 29.5627 16.4595 28.7842C17.0046 27.2354 16.7085 24.2439 15.352 23.0348C16.0068 24.7484 16.4787 26.9933 15.8222 28.7522L15.7908 28.8363L15.8588 28.8985C16.7207 29.6603 20.3376 29.4619 21.4712 29.2954C22.7494 29.1087 23.937 28.8296 24.3846 29.3156L26.0476 31.1283C26.4115 31.5487 26.4673 31.8178 25.9884 31.9439C24.4925 32.3391 22.57 31.8026 21.2588 31.1788C20.5326 30.8323 21.8543 31.7135 21.5217 31.7253C17.776 32.0717 14.7983 31.9489 12.5362 31.5823C10.5858 31.6614 8.29592 31.6815 6.73042 28.7119C6.66599 28.5891 6.69733 28.722 6.63464 28.5891C5.35995 29.9731 2.26899 30.0252 1.67692 27.4288C1.65935 27.3539 1.64598 27.2781 1.63687 27.2018C1.48014 27.1312 1.31123 27.0505 1.12838 26.963C0.712191 26.7612 -1.26602 25.0931 1.26595 26.3946C1.42094 26.4754 1.55154 26.5477 1.63687 26.5947C1.74657 25.754 2.31253 25.0225 3.26855 24.9132C3.59203 24.8728 3.92034 24.9353 4.20367 25.0914C4.97684 25.537 5.15969 26.6469 4.48751 27.1867C4.02431 27.5583 3.47054 27.6811 2.63294 27.5415L2.62945 27.5331ZM2.46925 26.9748C3.11878 27.1177 3.79793 26.9748 4.05217 26.6385C4.11422 26.5594 4.15687 26.4677 4.17692 26.3704C4.19696 26.2731 4.19388 26.1726 4.16789 26.0766C4.14191 25.9806 4.0937 25.8915 4.0269 25.8161C3.9601 25.7407 3.87645 25.6809 3.78225 25.6413C2.96032 25.2528 2.40482 26.2214 2.46925 26.9714V26.9748ZM45.5302 0.970716C45.1367 0.583951 42.4985 1.29526 42.2459 1.64335L42.5402 1.74088C42.5402 2.0402 41.6922 2.51441 41.6452 2.74983C41.8977 2.69265 42.1676 2.78514 42.2094 2.74983C41.572 3.59062 41.7113 4.26327 41.7009 4.28345C42.3132 4.50727 42.9012 4.7889 43.4562 5.12424C43.7035 5.19655 44.6473 2.06375 45.5302 0.96735V0.970716ZM36.0484 14.1779C36.1912 11.5815 36.6021 11.0333 37.8333 9.82763C37.3109 10.1068 35.8516 10.9072 35.2996 10.7105C34.9356 10.581 33.3318 9.80409 33.1037 9.23571C32.7554 8.37306 33.5129 7.7307 33.2534 7.1001C33.1211 6.77556 32.8198 6.90672 32.4942 6.03397C32.3444 5.63376 32.2365 5.40674 32.2696 5.22345C32.327 4.9174 32.6178 4.86695 33.2552 4.88713C35.6827 4.93421 37.4972 4.85181 38.3052 5.51604C38.8537 5.96671 38.6761 8.67575 39.2508 8.5429C39.2142 8.11578 40.1319 6.82432 39.9473 6.09283C39.815 5.56817 39.047 4.91572 38.4393 4.6887C37.0114 4.15732 34.7563 4.37256 33.4833 4.2229C32.3462 4.08837 31.0732 4.1136 31.7175 5.56817C32.1807 6.61244 32.3514 6.34675 32.745 7.4751C32.9644 8.10065 32.2138 8.82036 32.5046 9.35174C32.9452 10.1404 34.556 11.0586 35.0436 11.2015C35.411 11.2924 35.7995 11.2586 36.1441 11.1056C36.0083 11.7245 35.6113 12.5602 36.0484 14.1947V14.1779ZM50.6359 16.8499C50.474 16.9105 50.3869 17.0501 50.4218 17.1089C50.4566 17.1678 50.5123 17.0753 50.6934 16.9794C50.8745 16.8836 50.9616 16.929 50.9285 16.8684C50.8954 16.8079 50.7979 16.7894 50.6359 16.8499ZM49.4988 17.452C49.4553 17.3763 49.1958 17.3427 49.0391 17.4183C48.8824 17.494 48.6438 17.7546 48.7117 17.874C48.7448 17.9312 48.905 17.7815 49.1227 17.6655C49.3404 17.5495 49.5424 17.5293 49.4988 17.452ZM40.9364 11.0939C40.9434 11.2572 41.0064 11.4137 41.1154 11.5388C41.2245 11.6639 41.3734 11.7505 41.5389 11.785C41.8663 11.8708 42.1763 11.785 42.5159 11.8035C42.5159 11.6202 42.0527 11.7615 41.6121 11.6555C41.4738 11.6181 41.3462 11.5506 41.239 11.4582C41.1319 11.3658 41.048 11.2509 40.9939 11.1225C40.9739 11.1147 40.9546 11.1051 40.9364 11.0939ZM41.5686 10.6483C41.067 10.808 41.1872 11.442 41.7288 11.5597C41.8622 11.5967 42.0051 11.5853 42.1305 11.5277C42.2559 11.4701 42.3552 11.3702 42.4096 11.2469C42.4299 11.1839 42.4355 11.1173 42.4262 11.0519C42.4169 10.9865 42.3928 10.9239 42.3557 10.8685C42.6012 11.1342 42.4619 11.7615 43.148 11.8203C42.7388 11.5832 42.7597 11.3764 42.6778 11.0249C42.6413 10.9153 42.5824 10.8139 42.5046 10.7266C42.4269 10.6393 42.3318 10.5679 42.225 10.5166C42.1182 10.4654 42.0019 10.4353 41.8828 10.4282C41.7638 10.421 41.6445 10.437 41.532 10.475C41.3699 10.5383 41.2142 10.616 41.067 10.7071C40.9713 10.7575 40.8023 10.7794 40.6804 10.8248C40.6021 10.8534 40.5899 10.8702 40.7118 10.9224C40.8337 10.9745 40.9451 11.0216 41.0339 10.9678C41.0827 10.8349 41.4345 10.6752 41.5686 10.6483ZM33.2465 5.40506C35.2874 5.76156 38.1224 6.41401 36.6108 7.44314C36.2295 7.70379 34.3 7.57599 34.8398 7.64662C35.8655 7.77778 36.7797 8.49918 37.0357 9.10455C37.4206 9.10455 37.781 8.9364 38.0806 8.50759C38.4445 7.54741 38.4445 6.22567 37.6609 5.94484C36.2852 5.4555 33.8403 5.2739 33.2465 5.40506Z" fill="#209C3C"/>
</svg>
