<svg width="46" height="36" viewBox="0 0 46 36" fill="none" xmlns="http://www.w3.org/2000/svg">
<path fill-rule="evenodd" clip-rule="evenodd" d="M0.931566 8.95211C2.44263 5.02141 5.13853 2.09339 10.1116 0.681166C11.2195 0.367466 12.356 0.157284 13.5054 0.0535098C15.2404 -0.103404 18.9394 0.109999 21.0153 0.367338C26.6781 1.0813 32.8636 2.82932 36.0285 6.10254C36.8141 6.91693 39.4905 9.20944 39.5668 9.27378C38.7845 9.28476 36.2055 9.83239 35.7672 11.1458C37.2426 9.81984 39.1188 9.4197 41.1233 9.97675C43.071 10.5181 44.0611 10.3298 45.7555 10.3926L45.9665 10.5589C46.4973 11.3435 40.5423 12.6537 40.4968 12.8185V15.1816L41.1266 16.7178C41.1266 16.7178 41.2986 16.9375 41.6395 17.3219C41.9803 17.7063 43.6748 19.5328 43.6748 19.5328C43.6748 19.5328 44.9099 19.5532 43.8858 20.8729C42.8616 22.1925 42.8957 22.6476 42.2351 21.9226C42.2043 21.8897 40.7565 22.2019 39.4061 21.8614C39.0263 21.7657 38.6222 21.7735 38.0217 21.8787C36.9001 22.0748 36.074 21.6872 34.8583 21.5492C33.5388 21.3922 32.005 21.5021 30.5588 21.488C30.7211 22.2882 30.9305 23.214 31.5424 24.1084C32.5666 25.6007 33.7335 25.9443 33.878 26.2048L34.3746 27.1086C34.9443 28.1427 34.1004 28.3388 34.1004 28.3388C32.7743 28.2729 31.5797 28.5412 30.8055 27.2875C29.2409 24.758 27.7704 23.6785 27.0595 23.2156C26.8654 23.0867 26.6864 22.9378 26.5255 22.7715C27.0612 21.5915 28.0837 20.7646 28.5657 19.6003C29.9859 19.4857 31.5765 17.1462 31.854 15.963C31.1545 17.1744 29.7976 18.9444 28.1957 19.015C27.4896 20.8776 25.951 22.2443 25.4771 24.3658C25.1038 26.0243 24.6947 25.359 24.9074 26.9517C25.12 28.5444 26.9329 30.3677 26.9329 30.3677C26.9329 30.3677 27.4345 30.6392 26.558 30.7475C24.4773 31.0079 23.7988 31.157 23.2957 29.4262C23.0668 29.9613 22.898 30.1041 22.7422 30.0884C22.5864 30.0727 22.2439 29.4435 22.3624 28.8127L22.1855 24.598C22.7227 22.2694 22.6513 22.3212 22.429 20.785C19.3078 21.5335 16.8538 21.9901 13.9988 21.4566C14.7811 20.1511 16.3133 18.4077 16.969 15.6586C17.3066 14.237 17.5354 11.946 17.0696 10.5354C17.1378 14.929 14.8541 19.9988 12.3887 23.6659C11.3808 24.9495 10.0223 27.5307 9.79183 28.116C9.70581 28.3341 9.60356 29.2552 9.48345 30.3677C9.4234 30.9122 9.35848 31.5022 9.28544 32.0938V32.1157C9.46149 32.6924 9.55701 33.2893 9.56947 33.8904C9.58944 34.3284 9.51482 34.7655 9.35036 35.174C9.27741 35.3537 9.16304 35.5149 9.01595 35.6454C8.86885 35.7759 8.69291 35.8723 8.5015 35.9272C8.34618 35.9694 8.18566 35.991 8.02432 35.9915C7.39175 36.0155 6.75822 35.9887 6.13022 35.9115C5.78451 35.855 5.6433 35.7766 5.56052 35.6855C5.50859 35.6322 5.69686 34.9967 5.87053 34.4083C5.92571 34.22 5.9809 34.0348 6.03283 33.8622C6.06692 33.7351 6.13833 33.4919 6.22598 33.189C6.49054 32.2742 6.91091 30.8259 6.9807 30.3646C7.02126 29.9505 7.01745 29.5335 6.96934 29.1203C6.92389 28.4926 6.87195 27.7959 7.03101 27.1102C7.36065 25.6688 7.48299 24.1903 7.39458 22.7166C7.39251 22.4543 7.37463 22.1923 7.34102 21.932C3.32071 18.6368 3.49275 17.1399 4.0949 12.3948C4.16145 11.8644 4.08679 11.2838 3.4895 11.731C1.56131 13.1778 1.44445 15.7433 2.04661 17.8915C2.13912 18.2226 2.37122 18.5772 2.30629 17.7738C2.14399 15.7528 2.30629 12.9503 3.70375 13.013C2.58059 17.3674 3.33531 19.7886 6.78755 22.0717C6.84636 22.3177 6.88382 22.5681 6.89955 22.8202C6.97583 23.8432 7.2128 25.4218 6.83138 27.0568C6.66907 27.7708 6.71614 28.4848 6.76483 29.125C6.81014 29.5242 6.81449 29.9268 6.77782 30.3269C6.76808 30.3881 6.75185 30.4697 6.73075 30.5639C6.16755 27.81 4.73763 27.0898 5.04439 26.3005C5.11418 24.485 4.64999 23.3898 3.78003 22.4514C2.66012 21.2526 2.1732 20.4241 1.76744 19.5501C2.63091 20.7254 3.61772 20.9764 4.34323 21.1349C2.10504 19.8435 0.533917 17.8115 0.0940689 15.2334C-0.188343 13.1401 0.186582 10.8868 0.931566 8.95681V8.95211ZM9.69607 30.4791C9.55649 31.7501 9.54188 31.8474 9.72204 33.0635L11.1584 32.7732L11.1974 31.8631C11.238 30.986 10.9604 31.3061 10.1408 30.8887C9.96055 30.7866 9.80635 30.6466 9.68958 30.4791H9.69607Z" fill="#209C3C"/>
</svg>
