<svg width="121" height="121" viewBox="0 0 121 121" fill="none" xmlns="http://www.w3.org/2000/svg">
<path d="M109.108 67.2184C109.054 67.1707 109.012 67.1242 108.984 67.0789C108.956 67.0335 108.945 66.9737 108.952 66.8993C108.959 66.8196 108.999 66.7348 109.071 66.6449C109.149 66.5554 109.234 66.4424 109.326 66.3061C109.418 66.1751 109.505 66.0088 109.587 65.8073C109.674 65.6115 109.731 65.3649 109.758 65.0674C109.793 64.669 109.753 64.312 109.636 63.9965C109.525 63.6814 109.346 63.4085 109.099 63.1777C108.851 62.9522 108.543 62.7696 108.176 62.6299C107.807 62.4954 107.389 62.4074 106.922 62.3659C106.433 62.3225 105.993 62.3395 105.6 62.4171C105.213 62.4952 104.88 62.6236 104.602 62.8023C104.329 62.9868 104.11 63.2164 103.947 63.491C103.788 63.7714 103.692 64.0922 103.66 64.4534C103.629 64.7987 103.644 65.0865 103.704 65.3167C103.769 65.5473 103.845 65.7389 103.934 65.8913C104.021 66.049 104.101 66.1792 104.172 66.2819C104.248 66.3904 104.282 66.4924 104.273 66.5881C104.263 66.7049 104.21 66.7912 104.114 66.8469L103.56 67.1994C103.358 67.0047 103.19 66.789 103.056 66.5522C102.921 66.3154 102.813 66.0621 102.73 65.7923C102.651 65.5284 102.601 65.2535 102.578 64.9677C102.555 64.6819 102.557 64.3929 102.583 64.1007C102.628 63.5961 102.763 63.1342 102.988 62.7151C103.212 62.3013 103.513 61.9506 103.892 61.663C104.277 61.3759 104.735 61.1649 105.266 61.0301C105.797 60.8953 106.392 60.8571 107.051 60.9156C107.651 60.969 108.199 61.1006 108.695 61.3106C109.189 61.5259 109.606 61.8092 109.944 62.1605C110.287 62.5176 110.541 62.9391 110.707 63.425C110.872 63.9162 110.927 64.4673 110.873 65.0782C110.822 65.6466 110.685 66.1377 110.461 66.5515C110.241 66.971 109.949 67.3333 109.585 67.6382L109.108 67.2184Z" fill="#209C3C"/>
<path d="M104.464 74.1168C104.622 73.4799 104.724 72.9266 104.768 72.457C104.816 71.9939 104.816 71.6031 104.768 71.2846C104.718 70.9712 104.624 70.7257 104.486 70.5481C104.346 70.3756 104.169 70.2588 103.953 70.1978C103.748 70.1397 103.562 70.123 103.394 70.1476C103.226 70.1722 103.078 70.2271 102.948 70.3124C102.822 70.4043 102.714 70.5207 102.625 70.6615C102.538 70.809 102.47 70.9725 102.419 71.1521C102.351 71.3932 102.311 71.6204 102.3 71.8336C102.295 72.0482 102.314 72.2558 102.357 72.4564C102.398 72.6622 102.461 72.8627 102.544 73.0581C102.625 73.2586 102.727 73.459 102.847 73.6594L104.464 74.1168ZM108.905 70.593C109.199 71.1416 109.378 71.6938 109.442 72.2496C109.506 72.8054 109.452 73.386 109.281 73.9915C109.157 74.4277 108.975 74.7947 108.736 75.0927C108.496 75.3907 108.215 75.6189 107.893 75.7771C107.571 75.9354 107.211 76.022 106.813 76.037C106.415 76.0519 105.998 75.9976 105.562 75.8742L100.574 74.4628L100.746 73.8548C100.784 73.7214 100.834 73.6246 100.895 73.5643C100.962 73.5056 101.065 73.4738 101.205 73.4691L101.987 73.5242C101.856 73.2653 101.743 73.0172 101.65 72.7801C101.561 72.5445 101.496 72.3044 101.455 72.0599C101.418 71.8168 101.409 71.5648 101.428 71.304C101.44 71.0469 101.488 70.7695 101.572 70.4719C101.658 70.1692 101.78 69.896 101.938 69.6524C102.101 69.4103 102.295 69.2131 102.521 69.0609C102.746 68.9139 103.003 68.8176 103.293 68.7722C103.587 68.7334 103.911 68.7641 104.265 68.8643C104.573 68.9514 104.844 69.1196 105.078 69.3687C105.318 69.6194 105.494 69.9658 105.607 70.4079C105.72 70.85 105.759 71.396 105.724 72.0458C105.695 72.6971 105.565 73.4694 105.334 74.3629L105.942 74.535C106.547 74.7063 107.041 74.7047 107.423 74.5302C107.81 74.3571 108.075 74.0191 108.218 73.5162C108.314 73.1776 108.351 72.8805 108.329 72.6249C108.311 72.3759 108.272 72.1515 108.212 71.9517C108.156 71.7584 108.102 71.5879 108.05 71.4401C108.001 71.2988 107.994 71.1692 108.027 71.0512C108.053 70.9588 108.099 70.8858 108.164 70.8322C108.234 70.78 108.312 70.741 108.397 70.7151L108.905 70.593Z" fill="#209C3C"/>
<path d="M102.913 88.1407L95.7946 84.2179L96.4172 83.0904L101.133 85.6889C101.263 85.7609 101.404 85.8477 101.555 85.9493C101.709 86.058 101.848 86.165 101.972 86.2703L99.0104 81.4229C98.961 81.3469 98.932 81.267 98.9234 81.1831C98.9149 81.0993 98.9326 81.0176 98.9764 80.9383L99.0537 80.7982C99.0976 80.7188 99.1586 80.6581 99.2367 80.6159C99.3122 80.5783 99.3954 80.5602 99.4861 80.5615L105.208 80.4443C105.055 80.3904 104.889 80.3265 104.71 80.2525C104.537 80.1811 104.384 80.1094 104.253 80.0373L99.538 77.4388L100.161 76.3113L107.279 80.2341L106.726 81.2356C106.677 81.3243 106.609 81.3991 106.52 81.4599C106.436 81.5234 106.324 81.5559 106.183 81.5573L101.262 81.7317C100.987 81.7207 100.708 81.6916 100.423 81.6443C100.627 81.8601 100.802 82.0783 100.948 82.299L103.449 86.5086C103.528 86.6311 103.562 86.7446 103.553 86.8493C103.544 86.9539 103.515 87.0506 103.466 87.1393L102.913 88.1407Z" fill="#209C3C"/>
<path d="M93.1089 89.2128C92.9081 89.4193 92.7601 89.6212 92.6649 89.8186C92.5697 90.0236 92.5198 90.2203 92.515 90.4089C92.514 90.6011 92.5525 90.7834 92.6305 90.9557C92.7084 91.128 92.8221 91.2865 92.9713 91.4314C93.1091 91.5651 93.2578 91.6685 93.4174 91.7415C93.5807 91.8183 93.7567 91.8516 93.9452 91.8413C94.13 91.8348 94.3254 91.7792 94.5315 91.6744C94.7375 91.5697 94.9502 91.4045 95.1695 91.1789L96.3742 89.94L94.3303 87.9567L93.1089 89.2128ZM95.9159 91.9031C95.5255 92.3046 95.1505 92.5947 94.7908 92.7733C94.4275 92.9558 94.0854 93.0512 93.7648 93.0596C93.4405 93.0719 93.1377 93.0122 92.8566 92.8806C92.5754 92.749 92.3219 92.5736 92.0961 92.3545C91.8358 92.1019 91.6393 91.822 91.5065 91.5149C91.3776 91.2114 91.3201 90.8918 91.3341 90.5561C91.3519 90.2241 91.4432 89.8816 91.6078 89.5286C91.7763 89.1794 92.0279 88.8327 92.3625 88.4885L94.532 86.2574L100.348 91.9009L99.3999 92.876L97.1206 90.6642L95.9159 91.9031ZM93.8786 98.5542L88.0627 92.9107L89.0554 91.8897L94.8713 97.5333L93.8786 98.5542Z" fill="#209C3C"/>
<path d="M84.6516 104.897L80.3989 97.9989L81.6118 97.2527L84.5 101.938C84.556 102.029 84.6117 102.129 84.6669 102.239C84.7222 102.349 84.7752 102.461 84.826 102.573C84.8109 102.457 84.8 102.348 84.7933 102.246C84.7866 102.144 84.7864 102.047 84.7926 101.955L85.3329 95.3768C85.3381 95.2734 85.3583 95.1639 85.3935 95.0483C85.427 94.9401 85.4892 94.858 85.5801 94.8021L86.316 94.3494L90.5686 101.248L89.3489 101.998L86.4606 97.313C86.4075 97.2267 86.3532 97.1286 86.298 97.0185C86.2455 96.9131 86.1939 96.8039 86.1431 96.6911C86.1554 96.8025 86.1635 96.9072 86.1674 97.0049C86.1741 97.1073 86.1766 97.2028 86.1749 97.2915L85.6346 103.87C85.6294 103.973 85.6078 104.081 85.5698 104.192C85.5345 104.307 85.4715 104.393 85.3806 104.449L84.6516 104.897ZM88.5623 104.793C88.3761 104.907 88.232 105.024 88.13 105.143C88.0308 105.267 87.9719 105.4 87.9535 105.543C87.9305 105.689 87.947 105.848 88.003 106.02C88.059 106.192 88.1542 106.387 88.2886 106.605L87.5799 107.041C87.4936 107.094 87.4039 107.096 87.3109 107.047C87.2179 106.997 87.1435 106.927 87.0875 106.837C86.9475 106.61 86.867 106.377 86.8459 106.14C86.8248 105.902 86.86 105.665 86.9515 105.427C87.0412 105.196 87.1877 104.972 87.391 104.753C87.5943 104.534 87.8504 104.329 88.1593 104.139C88.4682 103.949 88.7663 103.813 89.0536 103.73C89.3409 103.647 89.61 103.616 89.861 103.637C90.1102 103.665 90.3362 103.742 90.539 103.868C90.7418 103.994 90.9132 104.17 91.0531 104.397C91.1091 104.488 91.1382 104.586 91.1403 104.691C91.1425 104.796 91.1004 104.875 91.0141 104.928L90.3055 105.364C90.1711 105.146 90.0396 104.973 89.9109 104.846C89.7822 104.719 89.6499 104.631 89.5139 104.583C89.3733 104.538 89.2255 104.532 89.0703 104.565C88.9179 104.602 88.7486 104.678 88.5623 104.793Z" fill="#209C3C"/>
<path d="M58.794 109.984L61.9042 109.876L61.6603 102.864L63.0834 102.815L63.3273 109.826L66.4374 109.718L66.4753 110.806L58.8319 111.071L58.794 109.984Z" fill="#209C3C"/>
<path d="M52.5775 110.507C51.9932 110.412 51.4827 110.229 51.046 109.958C50.6093 109.687 50.2544 109.345 49.9812 108.933C49.708 108.521 49.5262 108.046 49.4359 107.507C49.3394 106.972 49.3423 106.392 49.4446 105.766C49.5477 105.134 49.73 104.58 49.9915 104.104C50.2477 103.627 50.5709 103.236 50.9609 102.932C51.351 102.629 51.7962 102.417 52.2965 102.299C52.7959 102.186 53.3378 102.177 53.922 102.272C54.5116 102.368 55.0278 102.55 55.4706 102.816C55.9073 103.087 56.2622 103.429 56.5354 103.841C56.8086 104.253 56.9934 104.726 57.0899 105.26C57.1811 105.794 57.1751 106.377 57.072 107.008C56.9697 107.635 56.7905 108.186 56.5343 108.663C56.2719 109.145 55.9457 109.537 55.5557 109.841C55.1656 110.145 54.7204 110.356 54.2201 110.475C53.7146 110.592 53.167 110.603 52.5775 110.507ZM53.7429 103.37C52.9533 103.241 52.3207 103.408 51.8453 103.871C51.3689 104.339 51.0534 105.047 50.8987 105.994C50.7432 106.947 50.8168 107.721 51.1195 108.316C51.4222 108.911 51.9684 109.273 52.7579 109.402C53.158 109.467 53.5192 109.455 53.8416 109.368C54.1587 109.279 54.4384 109.122 54.6805 108.896C54.9174 108.67 55.1168 108.376 55.2787 108.013C55.4344 107.655 55.551 107.239 55.6283 106.765C55.783 105.818 55.709 105.046 55.4063 104.451C55.0975 103.86 54.543 103.5 53.7429 103.37Z" fill="#209C3C"/>
<path d="M40.1584 106.803L43.0932 99.2492L44.4209 99.7639L43.1751 102.97C43.8872 103.052 44.5379 103.181 45.1272 103.358C45.7095 103.538 46.1894 103.776 46.5668 104.071C46.9393 104.364 47.187 104.72 47.3101 105.14C47.4263 105.563 47.3724 106.062 47.1483 106.639L46.1778 109.137L44.8427 108.619L45.735 106.323C45.876 105.96 45.9149 105.646 45.8518 105.381C45.7838 105.114 45.6235 104.886 45.3709 104.697C45.1184 104.508 44.7765 104.349 44.3453 104.222C43.9141 104.095 43.4023 103.991 42.8101 103.91L41.4861 107.318L40.1584 106.803Z" fill="#209C3C"/>
<path d="M30.4597 101.244L34.8882 94.4574L36.0882 95.2388L34.016 98.4146L37.2742 100.536L39.3463 97.3604L40.5464 98.1418L36.1178 104.929L34.9178 104.147L36.684 101.441L33.4258 99.319L31.6597 102.026L30.4597 101.244Z" fill="#209C3C"/>
<path d="M30.4201 91.9724C30.2216 91.7638 30.0255 91.6079 29.8319 91.505C29.6307 91.4018 29.4359 91.3441 29.2475 91.3318C29.0552 91.3231 28.8713 91.3542 28.6959 91.4252C28.5205 91.4961 28.3574 91.6032 28.2065 91.7464C28.0673 91.8786 27.9579 92.0229 27.8784 92.1792C27.7951 92.3392 27.7548 92.5135 27.7576 92.7021C27.7567 92.8869 27.8045 93.0842 27.901 93.294C27.9976 93.5038 28.1543 93.7227 28.3712 93.9507L29.5623 95.2027L31.6277 93.2417L30.4201 91.9724ZM27.617 94.6668C27.231 94.2611 26.9559 93.8751 26.7916 93.509C26.6236 93.139 26.5418 92.7938 26.5462 92.4734C26.5469 92.1491 26.6186 91.8493 26.7615 91.5739C26.9044 91.2985 27.09 91.0525 27.3182 90.8359C27.5812 90.5862 27.869 90.4012 28.1815 90.2809C28.4902 90.1644 28.8122 90.1198 29.1474 90.1472C29.4787 90.1782 29.8177 90.283 30.1641 90.4615C30.5067 90.6436 30.8435 90.9086 31.1743 91.2563L33.3193 93.511L27.4422 99.0908L26.5048 98.1055L28.8081 95.9187L27.617 94.6668ZM21.0458 92.3674L26.9229 86.7876L27.9044 87.8193L22.0273 93.3991L21.0458 92.3674Z" fill="#209C3C"/>
<path d="M15.079 82.9086L22.1476 78.945L22.8451 80.1865L18.0443 82.8784C17.9513 82.9306 17.8487 82.982 17.7364 83.0327C17.6242 83.0834 17.5107 83.1318 17.3959 83.1778C17.5124 83.1675 17.622 83.1611 17.7246 83.1586C17.8272 83.1561 17.9241 83.1598 18.0154 83.1698L24.5719 83.9784C24.6751 83.9878 24.7838 84.0125 24.898 84.0524C25.0049 84.0903 25.0845 84.1557 25.1368 84.2487L25.56 85.0019L18.4914 88.9655L17.7899 87.717L22.5907 85.0251C22.6791 84.9756 22.7794 84.9254 22.8916 84.8747C22.9992 84.8267 23.1104 84.7796 23.2252 84.7335C23.1133 84.7413 23.0084 84.7451 22.9104 84.7449C22.8079 84.7474 22.7122 84.746 22.6236 84.7407L16.067 83.9321C15.9638 83.9227 15.8575 83.8967 15.7479 83.8542C15.6338 83.8143 15.5505 83.7478 15.4983 83.6548L15.079 82.9086ZM15.027 86.8174C14.9199 86.6267 14.8089 86.478 14.6938 86.3713C14.5742 86.2672 14.4433 86.203 14.3012 86.1788C14.1565 86.1499 13.9969 86.1598 13.8225 86.2087C13.6481 86.2576 13.4492 86.3446 13.2259 86.4699L12.8184 85.7445C12.7687 85.6562 12.7704 85.5666 12.8233 85.4757C12.8763 85.3849 12.9493 85.3134 13.0423 85.2612C13.2749 85.1308 13.5104 85.0599 13.7487 85.0486C13.9871 85.0372 14.2233 85.0821 14.4575 85.1831C14.6844 85.2821 14.9033 85.4376 15.1141 85.6495C15.325 85.8615 15.5193 86.1256 15.6969 86.4417C15.8746 86.7579 15.999 87.0611 16.0703 87.3513C16.1416 87.6415 16.1618 87.9115 16.1308 88.1612C16.0926 88.4089 16.0065 88.6314 15.8727 88.8287C15.7389 89.0261 15.5557 89.1899 15.3231 89.3204C15.23 89.3725 15.1309 89.3975 15.0257 89.3954C14.9205 89.3932 14.8431 89.348 14.7934 89.2596L14.3859 88.5343C14.6092 88.4091 14.7871 88.2848 14.9197 88.1616C15.0523 88.0383 15.1453 87.9097 15.1986 87.7759C15.2492 87.6375 15.2613 87.4901 15.2346 87.3338C15.2033 87.1801 15.1341 87.008 15.027 86.8174Z" fill="#209C3C"/>
<path d="M11.3881 57.8722C11.4464 57.9153 11.4914 57.9584 11.5231 58.0013C11.5547 58.0442 11.5703 58.103 11.5697 58.1776C11.5691 58.2576 11.5364 58.3454 11.4717 58.4409C11.4016 58.5364 11.326 58.6558 11.2449 58.7992C11.1638 58.9372 11.0905 59.11 11.0249 59.3175C10.954 59.5196 10.9173 59.77 10.915 60.0686C10.9119 60.4686 10.9812 60.8212 11.1229 61.1263C11.2592 61.4313 11.4598 61.6889 11.7249 61.8989C11.99 62.1037 12.3114 62.2608 12.6893 62.3704C13.0671 62.4746 13.4907 62.5286 13.9601 62.5322C14.4507 62.5359 14.8885 62.4833 15.2733 62.3743C15.6528 62.2652 15.9741 62.1103 16.2369 61.9097C16.4945 61.7037 16.6938 61.4572 16.8347 61.1703C16.9703 60.878 17.0395 60.5505 17.0423 60.1878C17.045 59.8412 17.0072 59.5555 16.9289 59.3309C16.8453 59.1063 16.7534 58.9216 16.6532 58.7768C16.553 58.6267 16.4633 58.5033 16.3841 58.4067C16.2995 58.3047 16.2576 58.2057 16.2584 58.1097C16.2593 57.9924 16.3053 57.9021 16.3965 57.8388L16.9195 57.4428C17.1368 57.6205 17.322 57.8219 17.4749 58.0471C17.6278 58.2723 17.7566 58.516 17.8612 58.7781C17.9606 59.0349 18.0332 59.3048 18.079 59.5878C18.1248 59.8708 18.1466 60.159 18.1443 60.4523C18.1404 60.959 18.0434 61.4302 17.8533 61.8661C17.6633 62.2967 17.3911 62.6706 17.0366 62.9879C16.6768 63.3051 16.2376 63.5524 15.7188 63.7297C15.2001 63.9071 14.6101 63.9932 13.9488 63.9881C13.3461 63.9835 12.7895 63.8965 12.2788 63.7273C11.7681 63.5527 11.33 63.3039 10.9645 62.9811C10.5937 62.6529 10.3061 62.2534 10.1017 61.7824C9.89743 61.3062 9.79764 60.7614 9.80239 60.1481C9.8068 59.5774 9.90402 59.0768 10.094 58.6463C10.2787 58.2104 10.5404 57.8257 10.879 57.4923L11.3881 57.8722Z" fill="#209C3C"/>
<path d="M19.4985 49.0893L19.208 50.4915L12.3364 49.0754L11.5477 52.8826L18.4193 54.2987L18.1289 55.7009L10.1916 54.0652L11.5613 47.4536L19.4985 49.0893Z" fill="#209C3C"/>
<path d="M13.8171 40.7607C14.054 40.2182 14.3579 39.7688 14.7287 39.4126C15.0996 39.0565 15.5185 38.7969 15.9854 38.6338C16.4523 38.4708 16.9581 38.412 17.5028 38.4573C18.0448 38.4957 18.6066 38.6417 19.1885 38.8952C19.7752 39.1509 20.2669 39.4641 20.6637 39.8348C21.0627 40.2006 21.3611 40.6099 21.5591 41.0628C21.7572 41.5156 21.8516 41.9989 21.8426 42.5127C21.8286 43.0244 21.7032 43.5515 21.4663 44.0941C21.2273 44.6415 20.9237 45.0968 20.5556 45.46C20.1847 45.8161 19.7658 46.0757 19.2989 46.2388C18.832 46.4018 18.3275 46.4642 17.7856 46.4258C17.2458 46.3825 16.6825 46.2331 16.0958 45.9774C15.514 45.7239 15.0236 45.4142 14.6247 45.0483C14.223 44.6755 13.9232 44.2627 13.7251 43.8099C13.5271 43.357 13.4327 42.8737 13.4417 42.3599C13.4529 41.8412 13.578 41.3081 13.8171 40.7607ZM20.4469 43.6498C20.767 42.9167 20.7616 42.2627 20.4306 41.688C20.0948 41.1111 19.4868 40.6309 18.6067 40.2474C17.7218 39.8617 16.9534 39.7422 16.3017 39.8887C15.6499 40.0351 15.164 40.475 14.8438 41.2081C14.6816 41.5796 14.6032 41.9323 14.6087 42.2663C14.6163 42.5954 14.6993 42.905 14.8578 43.1952C15.0184 43.4804 15.2544 43.7462 15.5659 43.9924C15.8746 44.2317 16.249 44.4472 16.689 44.6389C17.5691 45.0225 18.335 45.141 18.9868 44.9945C19.6358 44.841 20.1225 44.3927 20.4469 43.6498Z" fill="#209C3C"/>
<path d="M21.3785 30.7863C21.4023 30.8548 21.4152 30.9157 21.4172 30.969C21.4191 31.0222 21.3988 31.0795 21.3561 31.1408C21.3105 31.2065 21.234 31.2605 21.1266 31.3029C21.0148 31.3422 20.885 31.3982 20.7371 31.4708C20.5922 31.5391 20.4341 31.6404 20.2628 31.7747C20.0901 31.9016 19.9186 32.0876 19.7481 32.3329C19.5198 32.6613 19.378 32.9914 19.3228 33.3231C19.2633 33.6517 19.2837 33.9774 19.3841 34.3002C19.4875 34.6186 19.6643 34.9295 19.9146 35.233C20.1679 35.532 20.4874 35.8153 20.873 36.0828C21.2761 36.3625 21.6675 36.5657 22.0469 36.6927C22.422 36.8165 22.7747 36.8697 23.1051 36.8523C23.4342 36.8274 23.7378 36.7362 24.0162 36.5788C24.2931 36.4139 24.5351 36.1826 24.7421 35.8848C24.94 35.6002 25.07 35.3431 25.1321 35.1135C25.1899 34.881 25.2182 34.6767 25.2171 34.5007C25.2191 34.3203 25.2146 34.1679 25.2037 34.0435C25.1914 33.9117 25.2126 33.8063 25.2674 33.7275C25.3344 33.6311 25.4234 33.5825 25.5344 33.5817L26.19 33.5496C26.2692 33.8188 26.3084 34.0894 26.3077 34.3615C26.3069 34.6336 26.2758 34.9073 26.2142 35.1827C26.1514 35.4506 26.059 35.7143 25.9371 35.9738C25.8152 36.2333 25.6706 36.4834 25.5031 36.7243C25.2139 37.1403 24.8678 37.4747 24.4649 37.7274C24.0649 37.9757 23.629 38.1309 23.1571 38.193C22.6809 38.2521 22.1785 38.2087 21.6499 38.0627C21.1213 37.9167 20.5853 37.6553 20.0419 37.2783C19.5468 36.9348 19.136 36.5493 18.8097 36.1217C18.4864 35.6897 18.2649 35.2375 18.1452 34.765C18.0241 34.285 18.0121 33.7931 18.1091 33.2892C18.2091 32.7809 18.4341 32.2749 18.7842 31.7713C19.1099 31.3027 19.4727 30.9443 19.8727 30.696C20.2713 30.4402 20.7045 30.2701 21.1724 30.1858L21.3785 30.7863Z" fill="#209C3C"/>
<path d="M24.9697 24.4388C25.396 24.0281 25.8486 23.7291 26.3275 23.5418C26.8064 23.3544 27.2928 23.2747 27.7867 23.3025C28.2805 23.3303 28.7705 23.4693 29.2565 23.7194C29.7427 23.9619 30.2062 24.3115 30.647 24.7682C31.0915 25.2286 31.4262 25.706 31.6512 26.2001C31.8801 26.6906 31.9994 27.1829 32.0093 27.6769C32.0192 28.171 31.9218 28.6536 31.717 29.1249C31.5085 29.5924 31.191 30.0314 30.7647 30.4422C30.3345 30.8566 29.8799 31.1612 29.4008 31.3561C28.9219 31.5434 28.4356 31.6232 27.9417 31.5954C27.4478 31.5675 26.9578 31.4323 26.4716 31.1898C25.9893 30.9435 25.5259 30.5901 25.0814 30.1297C24.6406 29.673 24.3058 29.1995 24.0769 28.709C23.8482 28.211 23.7289 27.715 23.719 27.2209C23.7091 26.7269 23.8066 26.2442 24.0114 25.7729C24.22 25.2979 24.5395 24.8532 24.9697 24.4388ZM29.9924 29.6421C30.5685 29.0871 30.8135 28.4808 30.7274 27.8233C30.6375 27.1619 30.2592 26.4859 29.5924 25.7952C28.922 25.1006 28.2576 24.6965 27.5993 24.5827C26.9409 24.469 26.3237 24.6896 25.7475 25.2446C25.4556 25.5259 25.2483 25.8218 25.1257 26.1325C25.0069 26.4394 24.9653 26.7572 25.0008 27.0859C25.0402 27.4108 25.1567 27.7466 25.3505 28.0931C25.5443 28.4322 25.8079 28.7744 26.1413 29.1197C26.808 29.8104 27.4706 30.2127 28.1289 30.3264C28.7874 30.4326 29.4086 30.2045 29.9924 29.6421Z" fill="#209C3C"/>
<path d="M37.1275 24.0276C37.8089 23.6084 38.1893 23.077 38.2686 22.4333C38.3497 21.7823 38.1496 21.0663 37.6682 20.2855C37.1896 19.5091 36.6479 19.0064 36.0431 18.7774C35.4428 18.5455 34.8088 18.635 34.141 19.0458C33.8185 19.2442 33.56 19.4753 33.3654 19.739C33.1681 19.9982 33.0387 20.2813 32.9773 20.5883C32.9205 20.8925 32.9303 21.2183 33.0067 21.5658C33.0876 21.9105 33.2414 22.2668 33.4681 22.6345C33.7228 23.0476 33.9941 23.3911 34.2819 23.6649C34.5697 23.9387 34.8676 24.1374 35.1756 24.261C35.4882 24.3818 35.8072 24.4266 36.1326 24.3955C36.4597 24.357 36.7914 24.2344 37.1275 24.0276ZM32.8413 16.0226C32.4031 16.3485 32.0686 16.6952 31.8377 17.0627C31.6114 17.4273 31.476 17.8174 31.4315 18.2331C31.3842 18.6441 31.4263 19.0784 31.558 19.5359C31.6897 19.9934 31.8976 20.473 32.1816 20.9744C32.1563 20.6895 32.1768 20.4076 32.2431 20.1289C32.3065 19.8456 32.4118 19.5743 32.5588 19.3147C32.703 19.0507 32.885 18.8072 33.1048 18.5844C33.3262 18.3542 33.5846 18.1483 33.8799 17.9667C34.3387 17.6844 34.8002 17.5132 35.2643 17.4531C35.7302 17.3856 36.1813 17.4212 36.6176 17.5598C37.0585 17.6956 37.4758 17.9305 37.8695 18.2643C38.2605 18.5936 38.6113 19.0102 38.922 19.5142C39.2382 20.0272 39.4456 20.5414 39.5441 21.0569C39.6443 21.5651 39.64 22.0561 39.5312 22.5301C39.4196 22.9995 39.2084 23.4394 38.8975 23.8498C38.5912 24.2574 38.1859 24.6163 37.6817 24.9265C37.2183 25.2116 36.7369 25.4013 36.2375 25.4956C35.738 25.59 35.2315 25.5509 34.718 25.3784C34.2044 25.206 33.6836 24.8845 33.1555 24.4142C32.6292 23.9364 32.1044 23.2731 31.581 22.4241C31.1332 21.6977 30.7877 20.9898 30.5444 20.3004C30.3011 19.611 30.1863 18.9521 30.1999 18.3238C30.2181 17.6927 30.3749 17.0984 30.6703 16.541C30.9675 15.9762 31.4318 15.4589 32.0632 14.9891L34.3996 13.2606L34.854 13.8452C34.9544 13.9775 35.0067 14.1081 35.011 14.237C35.0152 14.3659 34.9498 14.4782 34.8145 14.5739L32.8413 16.0226Z" fill="#209C3C"/>
<path d="M56.7998 11.2008L53.7176 11.6306L54.6884 18.5791L53.278 18.7757L52.3072 11.8272L49.225 12.257L49.0745 11.1794L56.6492 10.1233L56.7998 11.2008Z" fill="#209C3C"/>
<path d="M62.8257 10.015C63.4168 10.0493 63.9435 10.1787 64.406 10.4032C64.8684 10.6277 65.2569 10.9307 65.5714 11.3122C65.8859 11.6937 66.1161 12.1478 66.2619 12.6745C66.4133 13.1961 66.4707 13.7738 66.4341 14.4074C66.3971 15.0463 66.2733 15.6161 66.0627 16.1167C65.8575 16.6177 65.5766 17.0395 65.2203 17.3821C64.8639 17.7246 64.4431 17.9807 63.9578 18.1502C63.4728 18.3144 62.9349 18.3793 62.3438 18.345C61.7475 18.3104 61.2153 18.1834 60.7472 17.9639C60.2847 17.7394 59.8962 17.4364 59.5818 17.0548C59.2673 16.6733 59.0343 16.2217 58.8828 15.7001C58.7367 15.1787 58.6821 14.5986 58.7191 13.9597C58.7557 13.3261 58.8767 12.7588 59.082 12.2578C59.2929 11.7519 59.5765 11.3276 59.9329 10.985C60.2893 10.6424 60.7101 10.3863 61.1954 10.2168C61.686 10.0476 62.2294 9.98035 62.8257 10.015ZM62.4081 17.2349C63.2067 17.2812 63.8185 17.0496 64.2433 16.54C64.6684 16.0251 64.9087 15.2885 64.9641 14.3301C65.0199 13.3664 64.8663 12.6042 64.5034 12.0436C64.1405 11.4829 63.5597 11.1794 62.7611 11.1331C62.3564 11.1096 61.9983 11.1583 61.6868 11.2791C61.3807 11.4002 61.1189 11.5854 60.9014 11.8345C60.6894 12.084 60.5216 12.3975 60.3983 12.775C60.2806 13.1474 60.2079 13.5733 60.1801 14.0525C60.1247 15.0109 60.2784 15.7704 60.6413 16.331C61.0099 16.8866 61.5988 17.1879 62.4081 17.2349Z" fill="#209C3C"/>
<path d="M75.6003 12.3622L73.4786 20.1836L72.104 19.8115L73.0047 16.4915C72.288 16.4853 71.6273 16.4252 71.0227 16.3113C70.4247 16.1936 69.9224 16.0079 69.516 15.7542C69.1147 15.5019 68.8308 15.1737 68.6641 14.7694C68.504 14.3614 68.505 13.8588 68.6669 13.2617L69.3686 10.6752L70.7508 11.0494L70.1057 13.4275C70.0038 13.8032 69.9982 14.1194 70.0888 14.376C70.1846 14.634 70.3681 14.8439 70.6392 15.0057C70.9102 15.1675 71.2669 15.2889 71.7091 15.3699C72.1513 15.451 72.6711 15.5005 73.2686 15.5186L74.2258 11.9901L75.6003 12.3622Z" fill="#209C3C"/>
<path d="M86.0413 16.9488L82.3355 24.1559L81.0614 23.5021L82.7954 20.1298L79.3363 18.3548L77.6023 21.7271L76.3282 21.0733L80.034 13.8662L81.3081 14.52L79.8301 17.3943L83.2893 19.1693L84.7672 16.295L86.0413 16.9488Z" fill="#209C3C"/>
<path d="M86.9286 26.0697C87.1473 26.2572 87.3581 26.3922 87.5612 26.475C87.7719 26.5572 87.9715 26.5948 88.1602 26.588C88.3524 26.577 88.5321 26.5274 88.6994 26.439C88.8667 26.3506 89.0181 26.2275 89.1537 26.0697C89.2788 25.924 89.3729 25.7694 89.4361 25.6058C89.5027 25.4381 89.5251 25.2606 89.5032 25.0733C89.4853 24.8894 89.4177 24.698 89.3003 24.4991C89.1829 24.3001 89.0048 24.0983 88.7659 23.8935L87.4538 22.769L85.5983 24.9296L86.9286 26.0697ZM89.4434 23.1045C89.8686 23.4689 90.1816 23.8249 90.3822 24.1725C90.5869 24.5235 90.7034 24.8586 90.7316 25.1778C90.7638 25.5005 90.7228 25.806 90.6087 26.0945C90.4945 26.383 90.3349 26.6466 90.1299 26.8853C89.8936 27.1604 89.6261 27.3737 89.3274 27.525C89.0322 27.6724 88.7164 27.7495 88.3801 27.7563C88.0473 27.759 87.6995 27.6892 87.3367 27.5469C86.9774 27.4005 86.6155 27.1711 86.251 26.8587L83.8881 24.8336L89.1679 18.6856L90.2006 19.5706L88.1314 21.9801L89.4434 23.1045ZM96.2142 24.7245L90.9344 30.8725L89.8531 29.9458L95.133 23.7978L96.2142 24.7245Z" fill="#209C3C"/>
<path d="M103.216 33.5824L96.5913 38.2501L95.77 37.0868L100.269 33.9167C100.357 33.8552 100.453 33.7936 100.56 33.7316C100.666 33.6697 100.774 33.6099 100.884 33.5523C100.769 33.5746 100.66 33.5922 100.559 33.6052C100.457 33.6182 100.36 33.6244 100.268 33.6239L93.663 33.4923C93.5594 33.4935 93.4488 33.4801 93.3311 33.4521C93.2208 33.4254 93.1349 33.3685 93.0734 33.2814L92.5751 32.5755L99.1999 27.9079L100.026 29.0777L95.5264 32.2478C95.4436 32.3062 95.349 32.3664 95.2425 32.4283C95.1405 32.4872 95.0347 32.5454 94.9252 32.603C95.0357 32.5838 95.1397 32.5693 95.2371 32.5593C95.3389 32.5463 95.4342 32.5379 95.5229 32.5341L102.128 32.6657C102.232 32.6645 102.34 32.6794 102.454 32.7105C102.571 32.7385 102.661 32.796 102.722 32.8832L103.216 33.5824ZM102.867 29.6891C102.993 29.8677 103.118 30.0042 103.244 30.0986C103.374 30.1898 103.51 30.2403 103.654 30.2498C103.801 30.2637 103.959 30.2374 104.127 30.1709C104.296 30.1044 104.485 29.9974 104.694 29.85L105.174 30.5296C105.232 30.6124 105.24 30.7017 105.196 30.7975C105.153 30.8933 105.088 30.9719 105.001 31.0333C104.783 31.1869 104.556 31.2816 104.32 31.3173C104.084 31.3531 103.844 31.3327 103.601 31.2562C103.365 31.181 103.131 31.0488 102.9 30.8596C102.668 30.6705 102.448 30.4277 102.239 30.1315C102.03 29.8352 101.875 29.5464 101.774 29.265C101.673 28.9837 101.625 28.7172 101.631 28.4656C101.643 28.2154 101.706 27.9852 101.819 27.7752C101.932 27.5652 102.097 27.3834 102.315 27.2298C102.402 27.1684 102.498 27.1333 102.603 27.1247C102.708 27.116 102.79 27.1531 102.848 27.2359L103.328 27.9155C103.119 28.063 102.955 28.2048 102.835 28.341C102.716 28.4773 102.637 28.6147 102.598 28.7532C102.561 28.8962 102.564 29.044 102.607 29.1967C102.654 29.3463 102.74 29.5105 102.867 29.6891Z" fill="#209C3C"/>
<circle cx="60.5" cy="60.5" r="10" fill="#209C3C"/>
<path d="M58.4999 63.3001L55.6999 60.5001L54.7666 61.4334L58.4999 65.1667L66.4999 57.1667L65.5666 56.2334L58.4999 63.3001Z" fill="white"/>
</svg>
