<svg width="375" height="359" viewBox="0 0 375 359" fill="none" xmlns="http://www.w3.org/2000/svg">
<path d="M289.484 344.71C290.713 343.326 291.201 341.47 290.762 339.866C290.066 337.303 287.261 335.914 283.087 336.006C275.797 336.171 268.692 338.154 262.54 341.747C255.735 345.73 250.279 351.486 246.361 358.821L246.274 358.974H246.747C254.139 345.253 267.709 336.862 283.094 336.519C287.11 336.437 289.771 337.718 290.407 340.045C290.785 341.44 290.342 343.075 289.242 344.32C283.132 351.219 283.518 356.078 284.973 358.974H285.435L285.359 358.831C283.283 354.899 284.671 350.148 289.484 344.71Z" fill="#209C3C" fill-opacity="0.15"/>
<path d="M375.605 18.3461C364.727 15.2707 349.829 11.0934 325.442 1.12915C324.685 0.821611 323.903 0.508948 323.044 0.180908H321.672L322.288 0.426938C323.422 0.847239 324.398 1.23679 325.313 1.61608C349.746 11.5957 364.643 15.7884 375.525 18.8484L378.043 19.5558L378.104 19.5814V19.0688L375.605 18.3461Z" fill="#209C3C" fill-opacity="0.15"/>
<path d="M368.991 9.88367C358.643 6.97233 346.952 3.68169 337.688 0.180908H336.38L336.921 0.421811C346.301 4.00973 358.314 7.40288 368.916 10.386C372.13 11.2932 375.169 12.1441 378.051 12.9795H378.104V12.4823C375.219 11.6366 372.194 10.7858 368.991 9.88367Z" fill="#209C3C" fill-opacity="0.15"/>
<path d="M368.552 4.71701C362.763 3.06146 357.727 1.64169 353.246 0.180908H351.734L352.392 0.426934C357.073 1.9646 362.366 3.46638 368.491 5.21931C371.562 6.10091 374.738 7.00813 378.073 7.9871H378.118V7.47455C374.779 6.5007 371.615 5.59348 368.552 4.71701Z" fill="#209C3C" fill-opacity="0.15"/>
<path d="M91.1002 91.1367C99.2483 84.4734 106.943 78.1843 113.677 73.6686C142.685 54.2272 155.174 61.9874 160.562 71.9157C168.282 86.211 165.299 109.635 160.357 148.446C159.949 151.651 159.528 154.964 159.095 158.384C159 159.153 158.875 160.081 158.716 161.142C156.992 174.238 152.406 209.025 160.792 215.166C161.244 215.511 161.752 215.698 162.271 215.709C162.624 215.705 162.973 215.615 163.303 215.443C166.906 213.572 170.033 201.793 173.655 188.154C178.261 170.799 183.996 149.199 192.685 141.347C196.784 137.641 204.327 135.068 211.624 132.577C213.659 131.885 215.761 131.162 217.712 130.445C221.932 128.907 228.114 126.083 233.04 119.707C236.995 114.581 240.723 108.784 244.005 103.658C246.448 99.8502 248.754 96.2571 250.811 93.4739L252.24 91.5416C261.315 79.2709 268.465 69.5784 276.102 63.8172C288.171 54.7193 297.654 51.6952 313.727 51.8336C314.665 51.8336 315.837 51.8848 317.195 51.931C326.228 52.2385 343.034 52.8126 347.258 45.7802C347.714 45.0243 348.03 44.1301 348.177 43.1735C348.325 42.217 348.3 41.2263 348.105 40.2856C345.617 25.9493 319.278 26.3542 305.129 26.5746C300.214 26.6515 295.499 27.0206 291.355 27.3435C281.653 28.1072 273.993 28.7069 270.752 24.9703C267.727 21.49 269.153 15.9441 270.291 11.49C271.047 8.55816 271.686 6.02612 270.979 4.58583C269.289 1.15168 264.774 1.36183 259.205 5.13939C246.062 14.0477 242.992 39.9935 240.02 65.0474C239.389 70.3882 238.734 75.9034 237.997 81.07C233.691 111.219 228.386 122.9 207.17 128.41C193.661 131.916 184.552 139.005 178.503 150.727C178.007 151.685 177.501 152.777 177.009 153.843C174.998 158.19 172.922 162.685 170.491 160.896C166.812 158.19 168.744 139.189 169.78 128.984C169.954 127.267 170.105 125.781 170.207 124.612C170.336 123.125 170.472 121.634 170.604 120.142C171.787 106.97 173.013 93.3509 170.952 80.0602C169.012 67.5076 164.853 58.6916 158.603 53.8582C150.073 47.2564 137.701 47.8151 120.793 55.5599C104.084 63.2021 88.8354 75.4421 74.0856 87.2822C69.484 90.9778 64.7237 94.7963 59.9823 98.4252C41.9695 112.208 22.3535 120.793 0 124.663V125.176H0.0226862C22.4404 121.296 42.1094 112.695 60.1411 98.8712C64.8863 95.2371 69.6466 91.4186 74.2519 87.723C88.998 75.8982 104.217 63.6737 120.887 56.0417C137.698 48.3533 149.971 47.7792 158.399 54.3041C164.543 59.0607 168.634 67.7639 170.562 80.1679C172.612 93.3714 171.39 106.949 170.211 120.081C170.075 121.574 169.949 123.064 169.833 124.55C169.731 125.719 169.579 127.2 169.405 128.912C168.271 139.968 166.399 158.472 170.313 161.347C173.054 163.367 175.228 158.661 177.327 154.115C177.841 153.013 178.321 151.967 178.813 151.04C184.802 139.435 193.835 132.413 207.238 128.933C228.669 123.366 234.023 111.588 238.368 81.1879C239.124 76.0161 239.759 70.4907 240.394 65.1499C243.347 40.2036 246.406 14.4065 259.371 5.61607C264.759 1.96665 269.089 1.68474 270.661 4.88824C271.266 6.11838 270.661 8.53766 269.932 11.3414C268.756 15.9544 267.285 21.6746 270.51 25.3804C273.86 29.2502 281.207 28.6761 291.378 27.8765C295.537 27.5536 300.214 27.1846 305.137 27.1077C319.18 26.8924 345.322 26.4875 347.745 40.4086C347.927 41.2707 347.953 42.1793 347.821 43.0579C347.69 43.9365 347.404 44.7594 346.989 45.4573C342.879 52.3154 326.194 51.7464 317.229 51.4389C315.868 51.3928 314.695 51.3518 313.75 51.3415H312.68C297.178 51.3415 287.805 54.4476 275.944 63.3918C268.257 69.1888 261.08 78.9019 251.998 91.1982L250.569 93.1305C248.501 95.9291 246.191 99.5272 243.763 103.341C240.481 108.466 236.757 114.258 232.798 119.353C227.932 125.652 221.811 128.43 217.632 129.973C215.685 130.691 213.583 131.408 211.549 132.1C204.221 134.602 196.648 137.19 192.496 140.942C183.701 148.887 177.943 170.578 173.319 188.005C169.727 201.521 166.63 213.198 163.186 214.981C162.831 215.171 162.448 215.248 162.068 215.205C161.688 215.163 161.32 215.002 160.993 214.735C152.844 208.774 157.397 174.243 159.102 161.255C159.242 160.189 159.363 159.261 159.461 158.492C159.892 155.075 160.312 151.762 160.72 148.554C165.681 109.599 168.661 86.1033 160.856 71.6338C155.404 61.5415 142.764 53.6275 113.518 73.2329C106.773 77.7537 99.0706 84.0531 90.9149 90.7164C66.1983 110.896 35.451 136.037 0 139.425V139.937C35.5606 136.549 66.3571 111.367 91.1002 91.1367Z" fill="#209C3C" fill-opacity="0.15"/>
<path d="M72.3021 74.5959C77.7204 70.967 83.3276 67.2048 89.4642 63.2427C134.477 34.1498 151.677 36.3026 161.633 41.423C174.171 47.8762 180.111 65.093 179.283 92.597C179.007 101.695 177.971 110.096 177.139 116.851C175.838 127.379 174.98 134.335 177.751 136.067C177.988 136.217 178.246 136.294 178.508 136.293C179.494 136.293 180.697 135.344 182.447 133.971C185.837 131.177 189.468 128.96 193.257 127.369C197.26 125.725 201.334 124.416 205.455 123.448C208.885 122.64 212.28 121.581 215.626 120.275C229.362 114.76 231.786 87.5842 234.13 61.3001C235.076 50.7106 236.051 39.7726 237.749 30.3107C239.832 18.7423 242.063 9.36756 246.196 1.20761C246.347 0.9052 246.506 0.607916 246.664 0.310631L246.736 0.167114H246.275C246.143 0.418269 246.01 0.679674 245.897 0.920577C241.738 9.12153 239.469 18.5526 237.401 30.1724C235.696 39.6496 234.72 50.6184 233.775 61.2232C231.446 87.3638 229.037 114.35 215.539 119.773C212.205 121.073 208.821 122.126 205.402 122.925C201.267 123.898 197.18 125.213 193.163 126.862C189.346 128.468 185.69 130.706 182.277 133.525C180.156 135.186 178.874 136.195 177.922 135.575C175.411 134.007 176.296 126.862 177.521 116.908C178.356 110.142 179.411 101.726 179.672 92.597C180.508 64.847 174.485 47.4559 161.777 40.9156C151.753 35.7593 134.459 33.5809 89.313 62.7506C83.1726 66.723 77.5653 70.48 72.1433 74.1141C46.8104 91.0849 28.5329 103.33 0.00878906 107.041V107.553H0.0163511C28.6199 103.878 46.9428 91.5975 72.3021 74.5959Z" fill="#209C3C" fill-opacity="0.15"/>
<path d="M42.8429 141.712C54.22 135.649 65.5934 127.397 77.6284 116.484C79.1711 115.08 80.865 113.522 82.6836 111.871C101.022 94.9567 131.716 66.7096 146.617 74.0545C163.98 82.6092 159.253 112.835 150.678 167.709L150.394 169.519C145.264 202.251 143.679 224.255 145.57 236.772C146.704 244.214 149.135 249.155 152.455 250.683C153.173 251.018 153.927 251.191 154.686 251.195C156.637 251.195 158.637 250.103 160.41 248.017C168.729 238.202 172.154 222.128 175.765 205.111L175.996 204.019C181.108 179.929 187.339 160.139 192.216 152.333C197.404 144.06 205.027 141.015 212.392 138.606C214.207 138.017 215.946 137.468 217.617 136.946C229.357 133.245 237.827 130.585 246.145 119.606C250.342 114.06 254.059 108.534 257.647 103.204C270.098 84.6748 280.848 68.6727 303.919 64.3313C311.833 62.8449 319.286 62.7936 326.492 62.7936C336.198 62.7475 345.367 62.7013 354.71 59.2057C359.928 57.2426 363.21 54.3056 364.745 50.2154C366.454 45.6536 365.879 39.59 363.233 34.7617C361.202 31.0252 358.151 28.0318 353.625 25.3306C346.365 20.9944 338.471 18.9646 330.833 17.0067L300.97 9.27213C296.733 8.20249 292.626 6.33583 288.769 3.72623C287.478 2.89868 286.342 1.68614 285.445 0.179321L284.977 0.179321L285.052 0.327964C285.99 1.9764 287.205 3.29778 288.595 4.18241C292.478 6.81048 296.613 8.69257 300.88 9.77444L330.784 17.4628C338.399 19.4208 346.286 21.4454 353.493 25.7509C357.954 28.4162 360.956 31.3583 362.945 35.018C365.486 39.6925 366.061 45.5511 364.416 49.9386C362.93 53.8904 359.724 56.7454 354.616 58.6521C345.326 62.1478 336.179 62.1939 326.5 62.24C319.278 62.2759 311.81 62.3118 303.878 63.7777C280.666 68.1447 269.875 84.2083 257.371 102.814C253.783 108.155 250.07 113.675 245.881 119.216C237.642 130.088 229.202 132.737 217.523 136.397C215.852 136.91 214.12 137.468 212.294 138.063C204.872 140.493 197.17 143.563 191.921 151.953C187.006 159.811 180.749 179.688 175.625 203.829L175.395 204.921C171.799 221.866 168.403 237.869 160.153 247.587C157.801 250.36 155.038 251.298 152.568 250.15C149.381 248.684 147.025 243.881 145.933 236.623C144.061 224.178 145.634 202.241 150.742 169.555L151.026 167.745C159.647 112.589 164.392 82.2042 146.723 73.501C131.64 66.0637 100.848 94.4288 82.4454 111.379C80.6268 113.05 78.9329 114.608 77.3902 115.992C50.6054 140.38 26.0097 152.328 0 153.645V154.157C14.3036 153.435 28.7132 149.247 42.8429 141.712Z" fill="#209C3C" fill-opacity="0.15"/>
<path d="M378.077 75.0983C369.157 76.8513 354.139 76.636 335.124 76.3387C331.665 76.2875 328.092 76.2311 324.424 76.1901C310.521 76.0363 297.427 79.9061 288.504 86.8359C281.014 92.6484 274.219 101.464 267.652 109.988C261.269 118.246 254.698 126.785 247.563 132.454C240.152 138.338 231.637 140.655 223.402 142.925C212.362 145.944 201.937 148.804 194.723 159.65C187.135 171.055 183.286 189.927 179.221 209.912C177.656 217.6 176.034 225.54 174.185 232.977C170.513 247.805 162.966 268.139 155.658 278.303C151.147 284.576 146.526 287.672 142.651 287.016C139.925 286.56 137.596 284.248 135.917 280.353C130.011 266.56 136.098 222.367 141.989 179.625C142.367 177 143.044 173.043 143.849 168.466C147.63 146.826 154.716 106.544 146.874 92.2896C144.655 88.2609 141.581 85.9185 137.732 85.329C126.449 83.6068 109.862 97.5177 99.0858 109.932C98.0523 111.124 97.015 112.331 95.974 113.551C82.8727 128.835 68.0586 146.103 40.9675 152.925C26.9754 156.444 13.259 161.742 0 168.748L0 169.327L0.0680586 169.286C13.325 162.265 27.0418 156.959 41.0356 153.438C68.2098 146.59 83.0807 129.255 96.2046 113.971C97.2457 112.754 98.2817 111.55 99.3126 110.357C110.032 97.9892 126.506 84.1501 137.671 85.857C141.411 86.4259 144.398 88.7017 146.553 92.6125C154.293 106.672 147.249 146.8 143.468 168.359C142.662 172.946 141.955 176.908 141.604 179.548C135.701 222.377 129.595 266.683 135.577 280.625C137.316 284.684 139.736 287.083 142.59 287.565C142.948 287.622 143.308 287.651 143.668 287.652C147.423 287.652 151.722 284.52 155.915 278.697C163.269 268.477 170.85 248.062 174.536 233.177C176.389 225.709 178.007 217.759 179.576 210.066C183.641 190.148 187.475 171.326 195.003 160.014C202.134 149.291 212.502 146.452 223.478 143.448C231.743 141.183 240.288 138.835 247.752 132.915C254.936 127.221 261.523 118.661 267.901 110.362C274.454 101.859 281.229 93.0636 288.697 87.2973C297.575 80.4084 310.627 76.5335 324.435 76.718C328.103 76.759 331.676 76.8154 335.136 76.8667C354.154 77.1537 369.165 77.3792 378.118 75.6263V75.1137L378.077 75.0983Z" fill="#209C3C" fill-opacity="0.15"/>
<path d="M378.077 89.2449C365.599 91.7615 353.341 92.2433 340.376 92.7508C335.397 92.9456 330.247 93.1506 324.972 93.4735C311.05 94.3346 299.594 98.3377 290.916 105.375C283.059 111.746 277.305 118.758 271.72 125.539C265.429 133.192 259.489 140.403 251.745 144.653C245.408 148.117 238.084 149.896 230.998 151.618C217.856 154.806 204.267 158.107 197.086 172.423C192.25 182.069 188.39 197.836 183.475 217.795C181.062 227.708 178.306 238.943 175.062 250.824C170.967 265.899 164.377 283.408 157.438 297.672C146.36 320.44 136.934 330.148 128.623 327.339C112.539 321.906 121.594 260.676 125.005 237.641C125.432 234.75 125.761 232.464 125.961 230.942C127.515 218.641 130.264 204.115 133.172 188.728C138.613 159.958 144.235 130.214 142.352 112.807C141.558 105.452 138.771 100.178 134.506 97.943C127.387 94.2423 117.114 99.3372 105.589 112.295C99.8155 118.779 95.4295 125.38 91.1834 131.772C84.4834 141.859 78.1464 151.388 67.6011 158.051C60.6213 162.469 51.2595 163.812 42.2077 165.109C36.2752 165.96 30.6717 166.764 25.6657 168.369C14.2053 172.064 4.69226 179.548 0 183.73V184.33L0.105869 184.253C4.75654 180.096 14.2734 172.572 25.7564 168.876C30.736 167.282 36.3433 166.477 42.2493 165.632C51.3237 164.33 60.7234 162.982 67.7599 158.522C78.377 151.803 84.7405 142.233 91.4783 132.1C95.7131 125.729 100.092 119.142 105.846 112.684C117.265 99.8702 127.398 94.7805 134.385 98.4197C138.518 100.567 141.218 105.698 141.993 112.864C143.883 130.168 138.25 159.86 132.82 188.579C129.909 203.956 127.149 218.523 125.606 230.834C125.413 232.372 125.077 234.632 124.649 237.523C121.22 260.706 112.111 322.285 128.544 327.836C129.524 328.172 130.531 328.344 131.542 328.349C135.198 328.349 138.995 326.145 143.063 321.686C147.623 316.683 152.432 308.923 157.767 297.959C164.724 283.664 171.326 266.114 175.432 251.009C178.665 239.107 181.422 227.867 183.853 217.954C188.738 198.031 192.598 182.295 197.404 172.71C204.493 158.569 217.402 155.432 231.055 152.115C238.16 150.393 245.502 148.61 251.877 145.124C259.681 140.855 265.644 133.597 271.962 125.913C277.524 119.153 283.271 112.156 291.098 105.811C299.723 98.8144 311.137 94.8369 324.976 93.9809C330.247 93.658 335.397 93.4684 340.376 93.2582C353.341 92.7457 365.592 92.2638 378.092 89.7523V89.2397L378.077 89.2449Z" fill="#209C3C" fill-opacity="0.15"/>
<path d="M378.104 107.067C350.684 110.613 341.855 111.198 334.062 111.721C331.669 111.88 329.408 112.028 326.754 112.233C317.301 113.048 311.047 113.74 302.321 117.456C291.624 122.008 285.896 129.358 275.502 142.695C274.016 144.601 272.439 146.626 270.738 148.779C260.151 162.208 247.295 163.489 234.852 164.73C220.665 166.144 207.25 167.482 200.119 187.795C196.058 199.338 193.238 212.1 190.255 225.611C185.339 247.8 179.8 272.946 167.107 300.876C150.629 337.129 136.303 352.049 122.014 347.841C103.015 342.249 109.734 294.458 113.345 268.779C113.681 266.375 114.002 264.104 114.263 262.116C115.262 254.525 117.507 243.151 120.109 230.009C125.86 200.906 133.017 164.688 133.312 137.979C133.441 126.098 130.529 116.698 125.712 113.448C122.956 111.587 118.294 110.824 111.722 117.753C106.293 123.484 102.111 132.105 97.6797 141.234C89.8757 157.318 81.7994 173.945 65.9001 176.826C59.8202 177.928 54.1789 178.036 48.7569 178.143C33.8899 178.43 19.8471 178.707 0.015625 199.256V199.896L0.129056 199.778C19.9265 179.214 33.9315 178.943 48.7607 178.656C54.213 178.548 59.8505 178.44 65.9493 177.333C82.0262 174.427 90.1479 157.697 97.9973 141.516C102.41 132.423 106.576 123.838 111.957 118.158C117.016 112.853 121.712 111.408 125.531 113.971C130.216 117.133 133.048 126.354 132.919 138.061C132.624 164.714 125.474 200.896 119.727 229.968C117.126 243.136 114.876 254.509 113.874 262.116C113.613 264.089 113.295 266.365 112.959 268.779C109.325 294.622 102.561 342.731 121.92 348.436C123.435 348.885 124.982 349.112 126.533 349.112C132.987 349.112 139.6 345.207 146.255 337.441C152.989 329.589 159.912 317.744 167.428 301.234C180.148 273.254 185.71 248.066 190.618 225.847C193.597 212.357 196.41 199.614 200.448 188.107C207.504 168.046 220.794 166.718 234.856 165.319C247.356 164.068 260.279 162.782 270.972 149.23C272.674 147.077 274.254 145.052 275.736 143.146C286.092 129.86 291.798 122.541 302.411 118.03C311.108 114.335 317.32 113.648 326.754 112.833C329.4 112.602 331.669 112.454 334.059 112.32C341.851 111.808 350.695 111.213 378.1 107.666V107.154L378.104 107.067Z" fill="#209C3C" fill-opacity="0.15"/>
<path d="M101.18 311.604C102.757 294.177 104.723 272.464 111.151 246.544L111.824 243.853C114.35 233.797 120.256 210.255 123.61 188.205C127.799 160.68 126.744 144.273 120.464 139.445C109.797 131.244 99.7928 154.14 93.815 167.82C92.5068 170.814 91.3762 173.402 90.465 175.155C82.4265 190.645 73.647 194.479 55.706 190.342C44.9754 187.867 36.0446 188.415 27.6394 192.07C17.7066 196.38 8.66613 205.042 0 218.533V219.307L0.143679 219.087C20.4176 187.39 40.4571 187.344 55.6455 190.855C65.1283 193.038 72.0778 192.859 77.5225 190.286C82.6042 187.887 86.6915 183.31 90.775 175.457C91.6938 173.689 92.8281 171.09 94.1402 168.087C100.046 154.566 109.934 131.936 120.278 139.896C129.863 147.267 126.899 182.187 111.469 243.695C111.208 244.72 110.985 245.627 110.796 246.385C104.357 272.352 102.383 294.079 100.802 311.542C98.8627 333.003 97.4561 348.513 89.1152 358.774L88.9299 358.974H89.5084C97.8305 348.574 99.237 333.049 101.18 311.604Z" fill="#209C3C" fill-opacity="0.15"/>
<path d="M94.7149 311.593C96.4882 293.489 100.027 276.703 103.789 258.928C108.342 237.277 113.053 214.888 114.717 188.804C115.095 182.771 115.359 176.375 114.036 170.265C113.658 168.574 112.546 164.596 110.047 164.222C107.298 163.812 105.555 167.964 104.485 171.126C99.6113 185.478 93.4331 195.539 86.1206 200.962C79.0879 206.18 70.1609 203.335 61.5439 200.583C59.0295 199.778 56.655 199.045 54.341 198.466C31.4582 192.982 22.3497 205.073 11.7968 219.076C7.12347 225.273 1.02466 235.165 0 236.836V237.667L0.14746 237.4C0.215519 237.287 6.98735 226.17 12.0502 219.46C22.5274 205.56 31.5754 193.556 54.2654 198.994C56.5643 199.542 58.935 200.301 61.4494 201.101C70.1457 203.874 79.1446 206.739 86.3059 201.434C93.6902 195.955 99.9176 185.837 104.833 171.362C105.858 168.343 107.506 164.376 110.013 164.75C112.282 165.088 113.336 168.85 113.681 170.429C114.985 176.452 114.724 182.797 114.346 188.779C112.697 214.812 107.983 237.175 103.419 258.805C99.668 276.595 96.1252 293.397 94.3443 311.542C91.9131 336.334 86.3437 350.46 75.7228 358.769L75.4467 358.989H76.2029C86.7331 350.553 92.2875 336.35 94.7149 311.593Z" fill="#209C3C" fill-opacity="0.15"/>
<path d="M91.1229 289.738C92.5446 281.706 94.0154 273.403 95.8454 264.986C96.5235 261.873 97.1814 258.872 97.8191 255.981C103.113 231.89 106.621 216.001 103.581 208.666C101.335 203.238 98.564 205.314 94.3746 208.451C90.1852 211.588 84.317 215.97 75.8211 215.196C71.4162 214.791 67.015 213.085 62.3606 211.28C52.3106 207.38 41.9203 203.351 30.3541 212.177C16.6365 222.634 3.02483 251.527 0 258.19V259.215L0.162584 258.795C2.80931 252.941 16.6517 223.208 30.5394 212.608C41.9657 203.894 52.2803 207.882 62.2547 211.752C66.9319 213.566 71.3519 215.278 75.7984 215.688C84.4191 216.478 90.276 212.101 94.5523 208.882C98.6888 205.806 101.184 203.91 103.249 208.882C106.213 216.057 102.731 231.855 97.4599 255.796C96.8222 258.687 96.163 261.691 95.4824 264.807C93.6486 273.233 92.1778 281.542 90.7561 289.579C85.4287 319.697 80.8234 345.709 60.6213 358.703L60.1638 358.938H61.1242C81.1977 345.796 85.7992 319.805 91.1229 289.738Z" fill="#209C3C" fill-opacity="0.15"/>
<path d="M70.8944 331.65C76.1878 319.579 79.4735 304.151 82.8009 284.71C84.1204 276.996 85.5005 270.138 86.7218 264.089C89.7466 249.051 91.7581 239.118 88.9904 234.264C87.0696 230.881 85.319 230.886 81.8064 230.896C77.9309 230.896 72.0741 230.922 61.4683 226.483C50.0117 221.696 42.9979 221.527 34.6607 225.847C20.9621 232.962 5.97403 268.174 0 283.454V284.51L0.166365 284.141C6.01184 269.112 21.0906 233.444 34.8271 226.324C43.0735 222.054 50.0231 222.224 61.3851 226.975C72.0476 231.434 77.9347 231.419 81.8367 231.409C85.3115 231.409 86.8995 231.409 88.7031 234.576C91.3498 239.225 89.361 249.066 86.355 263.956C85.1375 270.009 83.7537 276.867 82.4303 284.592C75.356 325.965 68.4859 346.488 46.4689 358.738L46.0114 358.974H47.0172C57.8196 352.854 65.4119 344.161 70.8944 331.65Z" fill="#209C3C" fill-opacity="0.15"/>
<path d="M46.6012 0.415096L47.0663 0.179321H46.0114C33.7457 6.56575 8.25021 4.62317 0.0453724 2.74209H0V3.25465C3.97008 4.15674 11.9103 5.07422 20.4629 5.07422C29.9647 5.07422 40.2188 3.94147 46.6012 0.415096Z" fill="#209C3C" fill-opacity="0.15"/>
<path d="M60.7612 0.409975L61.1393 0.179321H60.2319C37.9994 14.3722 7.13103 9.56438 0.0453724 7.48849H0V8.00106C3.29706 8.96468 11.5737 10.487 21.7258 10.487C33.844 10.4819 48.6203 8.3086 60.7612 0.409975Z" fill="#209C3C" fill-opacity="0.15"/>
<path d="M75.9005 0.399722L76.2029 0.179321H75.4467C50.6999 21.0149 12.6551 16.1404 0.0529345 12.4808H0V12.9933C5.29345 14.531 14.954 16.2481 26.2441 16.2481C42.1963 16.2481 61.3737 12.7883 75.9005 0.399722Z" fill="#209C3C" fill-opacity="0.15"/>
<path d="M89.3572 0.368968L89.5122 0.179321H88.9488C62.4589 33.5571 14.2167 23.0753 0.0415914 19.062H0V19.5745C11.0733 22.6675 22.3455 24.2642 33.6512 24.3413C52.4996 24.3413 74.407 19.3593 89.3572 0.368968Z" fill="#209C3C" fill-opacity="0.15"/>
<path d="M318.635 357.344C311.137 354.612 304.645 352.254 303.477 347.488C302.887 345.12 303.601 342.224 305.658 338.625C305.883 338.292 306.041 337.886 306.118 337.447C306.196 337.008 306.19 336.549 306.101 336.114C305.416 333.177 300.365 331.075 295.022 328.851C288.632 326.191 282.027 323.443 282.723 319.302C283.479 314.689 287.729 311.972 292.629 308.83C295.277 307.221 297.845 305.379 300.316 303.315C304.081 300.034 307.655 296.366 311.005 292.341C314.627 288.113 317.754 284.463 325.467 279.527C348.826 264.622 367.406 235.863 377.392 220.414L378.103 219.317V218.533L377.105 220.071C367.138 235.504 348.611 264.207 325.305 279.066C317.546 284.017 314.4 287.692 310.759 291.947C307.421 295.956 303.861 299.612 300.112 302.885C297.655 304.937 295.101 306.768 292.466 308.364C287.475 311.567 283.165 314.335 282.352 319.189C281.596 323.802 288.356 326.616 294.913 329.343C299.926 331.429 305.121 333.587 305.741 336.268C305.812 336.625 305.815 337 305.749 337.359C305.683 337.718 305.55 338.048 305.363 338.318C303.238 342.06 302.482 345.135 303.117 347.652C304.365 352.68 310.619 354.956 318.537 357.841C319.542 358.205 320.574 358.584 321.618 358.974H323.13L322.401 358.728C321.115 358.246 319.875 357.79 318.635 357.344Z" fill="#209C3C" fill-opacity="0.15"/>
<path d="M377.959 237.072L376.129 240.045C371.021 248.369 363.296 260.947 358.192 267.031C348.028 279.143 341.555 283.689 332.575 289.989C328.586 292.793 324.064 295.965 318.457 300.317C311.511 305.704 307.492 311.081 306.482 316.237C306.246 317.37 306.183 318.557 306.296 319.725C306.409 320.892 306.696 322.016 307.14 323.028C308.653 326.463 312.161 328.795 315.553 331.045C318.945 333.295 322.177 335.448 322.51 338.313C322.684 339.794 322.087 341.388 320.688 343.239C319.678 344.561 319.296 345.93 319.553 347.303C320.253 351.035 325.72 354.874 336.281 358.974H337.755L337.022 358.728C326.181 354.566 320.589 350.773 319.92 347.185C319.697 345.981 320.034 344.812 320.952 343.597C322.446 341.639 323.077 339.881 322.884 338.226C322.506 335.094 319.217 332.9 315.7 330.573C312.358 328.354 308.895 326.058 307.446 322.752C307.028 321.799 306.757 320.739 306.651 319.64C306.545 318.54 306.606 317.422 306.83 316.355C307.802 311.322 311.772 306.068 318.627 300.753C324.227 296.406 328.745 293.233 332.73 290.435C341.725 284.12 348.232 279.558 358.441 267.405C363.568 261.296 371.297 248.697 376.42 240.363L378.103 237.626V236.78L377.959 237.072Z" fill="#209C3C" fill-opacity="0.15"/>
<path d="M377.94 258.543C371.667 272.475 360.668 286.078 349.911 293.208L348.368 294.233C343.691 297.308 337.868 301.168 331.69 306.124C327.66 309.358 325.55 312.423 325.24 315.504C324.862 319.276 327.13 322.495 329.543 325.909C332.567 330.189 335.698 334.622 333.509 340.399C332.537 342.962 332.397 345.202 333.089 347.247C334.84 352.418 341.736 355.704 351.616 358.974H353.405L352.471 358.728C343.668 355.858 335.275 352.449 333.441 347.031C332.802 345.14 332.934 343.049 333.849 340.635C336.167 334.53 332.942 329.968 329.822 325.55C327.478 322.234 325.262 319.102 325.622 315.571C325.917 312.659 327.966 309.717 331.887 306.57C338.054 301.619 343.869 297.78 348.523 294.689L350.066 293.664C360.793 286.555 371.762 273.033 378.091 259.158V258.21L377.94 258.543Z" fill="#209C3C" fill-opacity="0.15"/>
<path d="M377.937 283.879C370.023 303.746 360.824 315.555 354.116 324.181C350.502 328.794 347.647 332.49 345.938 336.109C344.804 338.548 344.573 341.024 345.303 343.469C347.099 349.512 354.578 354.873 366.938 358.974H368.337V358.907L367.781 358.728C351.738 353.546 346.883 347.452 345.636 343.279C344.955 340.993 345.159 338.666 346.237 336.385C347.919 332.797 350.774 329.169 354.358 324.55C361.047 315.965 370.186 304.222 378.092 284.535V283.458L377.937 283.879Z" fill="#209C3C" fill-opacity="0.15"/>
<path d="M279.668 37.3432C273.524 38.9577 268.11 39.906 265.879 39.8137C262.854 39.6599 262.366 36.9741 261.962 32.889C261.807 31.3514 261.346 30.3877 260.589 30.0341C259.039 29.3114 256.691 31.4487 255.152 33.499C252.025 37.6456 248.948 46.7486 247.492 56.149C246.811 60.5416 243.552 82.597 246.021 85.7185C246.212 85.9677 246.467 86.1073 246.732 86.1081C246.85 86.1061 246.967 86.0819 247.08 86.0363C249.106 85.2623 251.239 81.9973 254.207 77.4817C257.844 71.9358 262.828 64.3397 270.465 56.9793C277.038 50.6151 284.558 46.275 292.498 44.2627C293.537 44.0167 294.622 43.8322 295.674 43.6477C298.804 43.1351 301.508 42.6225 302.362 40.9413C302.497 40.6679 302.586 40.3578 302.622 40.0327C302.659 39.7077 302.642 39.3757 302.574 39.0602C301.678 34.2268 290.384 34.5241 279.668 37.3432ZM302.052 40.6748C301.296 42.2125 298.54 42.6584 295.624 43.1607C294.57 43.3452 293.481 43.5298 292.429 43.7758C284.434 45.7871 276.86 50.1411 270.235 56.5334C262.571 63.9501 257.576 71.5719 253.927 77.1331C251.004 81.5873 248.895 84.8215 246.978 85.5391C246.859 85.5982 246.73 85.6108 246.607 85.5755C246.483 85.5401 246.369 85.4582 246.278 85.3392C244.596 83.207 245.862 69.1936 247.862 56.2515C249.303 46.9434 252.339 37.9429 255.424 33.8578C257.001 31.7665 259.175 29.9213 260.472 30.5261C261.085 30.8132 261.463 31.6333 261.606 32.971C261.954 36.5026 262.317 40.1469 265.883 40.3314C268.151 40.4493 273.589 39.4754 279.755 37.8557C291.855 34.6881 301.496 35.2929 302.222 39.2038C302.276 39.4507 302.289 39.7108 302.259 39.9652C302.23 40.2197 302.159 40.462 302.052 40.6748Z" fill="#209C3C" fill-opacity="0.15"/>
<path d="M378.103 153.648C365.41 154.289 346.774 162.5 333.74 179.389C329.793 184.514 325.997 190.388 321.978 196.621C311.266 213.207 300.214 230.363 284.035 236.985C254.165 249.246 246.572 260.05 236.394 281.706C230.722 293.756 227.474 305.632 224.597 316.104C221.769 326.457 219.3 335.397 215.243 342.572C212.785 346.919 210.441 348.662 208.286 347.775C203.484 345.791 200.724 331.788 200.111 318.795C199.801 312.131 197.653 252.905 217.84 222.341C225.281 211.065 234.931 204.991 246.519 204.253C250.179 204.017 253.556 203.864 256.827 203.715C280.821 202.623 294.039 202.018 312.268 173.582C328.734 147.897 354.786 142.162 378.103 139.937V139.425C354.71 141.654 328.572 147.415 311.996 173.254C293.862 201.521 280.704 202.131 256.811 203.213C253.545 203.361 250.164 203.515 246.501 203.751C234.81 204.494 225.07 210.64 217.561 222.008C209.673 233.951 204.263 251.439 201.484 273.987C199.712 288.808 199.125 303.844 199.733 318.836C200.349 332.008 203.2 346.222 208.176 348.277C208.572 348.44 208.983 348.523 209.397 348.523C211.363 348.523 213.424 346.637 215.541 342.885C219.644 335.648 222.113 326.683 224.971 316.288C227.83 305.894 231.097 293.992 236.73 281.983C246.845 260.419 254.388 249.691 284.148 237.482C300.407 230.819 311.519 213.602 322.257 196.959C326.273 190.737 330.061 184.863 334.001 179.758C346.955 162.966 365.482 154.801 378.107 154.161V153.648H378.103Z" fill="#209C3C" fill-opacity="0.15"/>
<path d="M378.082 124.668C358.262 128.097 343.452 130.788 335.598 132.767C321.956 136.201 312.156 141.9 302.798 151.839C299.542 155.299 296.684 159.527 293.916 163.582C289.973 169.394 285.893 175.401 280.607 179.287C272.833 185.002 264.258 185.319 255.977 185.627C252.779 185.75 249.474 185.873 246.234 186.293C232.622 188.077 221.109 195.704 212.004 208.969C204.54 219.84 198.627 234.597 194.422 252.803C187.019 284.894 186.989 318.144 186.981 329.072V330.271C186.955 341.035 187.14 350.44 187.541 358.974H187.919C187.518 350.44 187.333 341.035 187.359 330.271V329.077C187.359 318.17 187.397 284.997 194.785 252.962C204.162 212.316 221.483 190.055 246.268 186.811C249.497 186.385 252.797 186.262 255.985 186.145C264.303 185.837 272.943 185.514 280.796 179.743C286.135 175.816 290.249 169.773 294.204 163.935C296.96 159.876 299.807 155.683 303.04 152.249C312.337 142.367 322.096 136.693 335.674 133.284C343.516 131.311 358.315 128.625 378.112 125.196V124.684L378.082 124.668Z" fill="#209C3C" fill-opacity="0.15"/>
<path d="M378.035 168.815L375.872 169.963C369.138 173.551 360.748 177.974 350.301 187.462C343.454 193.674 337.824 202.064 331.888 210.952C326.636 218.805 321.202 226.924 314.465 234.243C307.201 242.136 299.246 247.472 290.826 253.12C274.688 263.946 257.999 275.161 243.476 305.827C236.904 319.707 231.524 332.434 227.055 358.949V359H227.433C231.887 332.608 237.263 319.933 243.793 306.104C258.26 275.535 274.9 264.371 290.992 253.577C299.431 247.939 307.405 242.572 314.699 234.643C321.463 227.298 326.904 219.163 332.167 211.296C338.1 202.408 343.696 194.038 350.502 187.861C360.922 178.41 369.282 173.976 375.997 170.434L378.103 169.327V168.774L378.035 168.815Z" fill="#209C3C" fill-opacity="0.15"/>
<path d="M377.997 183.822C371.996 189.189 357.458 206.016 336.25 235.775C322.956 254.427 311.205 261.496 298.761 268.979C292.712 272.613 286.454 276.375 279.701 281.624C264.619 293.367 254.085 305.156 246.56 318.81C239.142 332.249 235.527 346.022 232.729 358.913V358.974H233.108C238.7 333.259 246.508 308.026 279.89 282.09C286.624 276.852 292.871 273.1 298.913 269.466C311.39 261.962 323.179 254.878 336.523 236.15C357.594 206.58 372.064 189.804 378.114 184.381V183.771L377.997 183.822Z" fill="#209C3C" fill-opacity="0.15"/>
<path d="M377.991 199.424C369.004 208.651 359.025 221.685 351.013 232.151C346.42 238.148 342.457 243.33 339.413 246.867C324.289 264.458 309.657 273.93 296.748 282.29C290.264 286.488 284.138 290.45 279.064 294.853C259.804 311.578 243.795 342.941 239.038 358.887L239.012 358.974H239.42C244.188 343.085 260.11 311.916 279.268 295.288C284.324 290.901 290.438 286.939 296.911 282.751C309.842 274.381 324.512 264.889 339.663 247.256C342.71 243.71 346.68 238.543 351.274 232.52C359.249 222.105 369.162 209.158 378.12 199.952V199.301L377.991 199.424Z" fill="#209C3C" fill-opacity="0.15"/>
<path d="M193.56 49.7044C197.417 68.9971 201.201 78.3 205.833 79.8685C206.506 80.106 207.198 80.2283 207.894 80.2324C212.499 80.2324 215.932 74.3995 218.348 62.5183C219.891 54.9376 221.086 45.6449 222.466 34.8863C223.789 24.589 225.29 12.918 227.419 0.268043L227.453 0.180908H227.049C224.916 12.836 223.419 24.5018 222.095 34.7991C220.715 45.5629 219.524 54.8248 217.985 62.3851C215.286 75.6501 211.342 81.2114 205.924 79.3713C201.504 77.8746 197.689 68.4076 193.927 49.5711C190.645 33.441 188.631 16.8855 187.919 0.180908L187.541 0.180908C188.253 16.9303 190.271 33.5306 193.56 49.7044Z" fill="#209C3C" fill-opacity="0.15"/>
<path d="M75.6471 46.2737C105.404 31.9938 133.497 18.5033 157.166 18.37C169.209 18.3034 177.111 24.6745 182.771 39.0313C186.405 48.2573 188.821 58.3086 191.169 68.0267C194.572 82.1067 197.763 95.4025 204.062 101.697C205.853 103.587 208.044 104.647 210.312 104.721C210.88 104.721 211.446 104.644 212.003 104.49C213.114 104.176 214.164 103.544 215.081 102.636C215.999 101.728 216.763 100.566 217.322 99.2262C221.535 89.3953 225.066 60.5536 228.185 35.1102C230.038 19.9948 231.641 6.91947 233.101 0.256205V0.179321H232.723C231.267 6.91947 229.671 19.9487 227.807 35.0333C224.699 60.4255 221.19 89.2159 216.994 98.9699C216.461 100.248 215.733 101.356 214.858 102.222C213.984 103.087 212.983 103.689 211.923 103.988C209.443 104.685 206.732 103.726 204.289 101.287C198.085 95.0898 195.045 82.4758 191.528 67.8678C189.18 58.1292 186.757 48.0523 183.104 38.7904C177.399 24.3208 169.455 17.8575 157.355 17.8575H157.162C133.44 17.9907 105.306 31.4915 75.5224 45.7868C50.4314 57.8319 24.4784 70.282 0 75.0949V75.6075H0.0264672C24.5767 70.7894 50.5297 58.324 75.6471 46.2737Z" fill="#209C3C" fill-opacity="0.15"/>
<path d="M64.0356 64.3768C65.9942 63.3824 68.8564 61.814 72.4786 59.8202C91.8413 49.1845 132.136 27.0573 154.773 26.9138H155C166.343 26.9138 173.599 32.3008 177.792 43.8539C182.25 56.1553 185.063 67.6982 187.543 77.893C189.354 85.32 190.916 91.7321 192.787 97.1396C196.663 108.329 203.249 115.253 209.469 115.253C210.686 115.256 211.894 114.981 213.042 114.439C220.638 110.851 224.09 98.5492 226.938 81.2144C227.546 77.4983 228.287 71.2246 229.229 63.2748C231.498 44.2025 234.9 15.3864 239.396 0.291473L239.453 0.173584H239.026C234.519 15.3454 231.112 44.1307 228.855 63.2184C227.951 70.8402 227.172 77.4266 226.567 81.1221C223.746 98.298 220.347 110.456 212.921 113.972C206.01 117.247 197.695 110.087 193.147 96.9448C191.282 91.5681 189.725 85.156 187.917 77.7495C185.433 67.5393 182.624 55.9708 178.147 43.6489C173.897 31.9574 166.241 26.3193 154.769 26.4013C132.06 26.5448 91.7203 48.6976 72.3425 59.3435C68.7241 61.3322 65.8618 62.9006 63.9108 63.9001C41.338 75.4071 23.5105 84.4948 0 89.2359V89.7485H0.0264672C23.5936 85.0022 41.4401 75.8991 64.0356 64.3768Z" fill="#209C3C" fill-opacity="0.15"/>
<path d="M253.941 219.742C244.734 220.885 235.648 225.786 229.636 232.859C216.104 248.774 210.414 274.607 210.78 293.146C210.882 298.328 211.839 301.619 213.344 301.942C213.427 301.949 213.51 301.949 213.593 301.942C215.14 301.942 216.826 298.866 218.255 293.448C220.263 285.801 225.594 265.493 237.074 251.085C243.365 243.187 250.727 239.297 256.64 236.196C261.892 233.433 266.044 231.249 267.488 227.333C267.976 226.006 267.95 224.771 267.413 223.746C265.575 220.106 258.289 219.204 253.941 219.742ZM267.148 227.128C265.772 230.865 261.681 233.018 256.504 235.745C250.561 238.876 243.161 242.772 236.816 250.737C225.269 265.227 219.915 285.622 217.911 293.279C216.497 298.677 214.818 301.711 213.419 301.414C212.13 301.137 211.268 297.954 211.174 293.115C210.795 274.694 216.467 249.035 229.901 233.223C235.852 226.221 244.859 221.362 253.99 220.229C254.746 220.137 255.563 220.091 256.421 220.091C260.637 220.091 265.722 221.255 267.118 224.017C267.564 224.955 267.579 225.965 267.148 227.128Z" fill="#209C3C" fill-opacity="0.15"/>
<path d="M368.568 0.180908H366.987L367.702 0.432067C370.848 1.4572 374.338 2.40033 378.058 3.25119H378.104V2.74375C374.701 1.95952 371.491 1.09841 368.568 0.180908Z" fill="#209C3C" fill-opacity="0.15"/>
<path d="M27.957 346.375L28.0477 346.293C42.0375 333.823 63.1433 314.976 72.8718 275.509C74.785 267.744 74.562 261.322 72.2102 256.427C69.2647 250.302 63.1017 246.606 53.8986 245.442C40.181 243.71 35.4547 250.055 28.2859 261.491C24.0587 268.215 20.7957 276.227 17.6158 283.971C14.8254 290.799 11.9443 297.862 8.35608 304.228C5.86816 308.656 3.30462 312.47 0.828046 316.155L0 317.395V318.175L0.139898 317.969L1.10784 316.524C3.59198 312.829 6.15552 309.005 8.66991 304.561C12.2695 298.164 15.1619 291.086 17.9599 284.243C21.2645 276.16 24.3877 268.528 28.5846 261.844C35.674 250.568 40.3436 244.258 53.8722 245.955C62.9466 247.103 69.0228 250.722 71.9039 256.719C74.1914 261.475 74.3994 267.749 72.524 275.355C62.837 314.653 41.7842 333.444 27.8511 345.873L27.7603 345.955C22.051 351.03 8.90811 356.606 0.0604965 353.392L0 353.367V353.879C1.93407 354.554 3.92411 354.888 5.9211 354.874C14.0579 354.874 23.3857 350.455 27.957 346.375Z" fill="#209C3C" fill-opacity="0.15"/>
<path d="M18.5808 342.706C18.1382 342.711 17.697 342.637 17.2688 342.486C16.681 342.266 16.1375 341.869 15.6791 341.324C15.2207 340.778 14.8594 340.1 14.6221 339.338C12.7316 333.992 17.0344 326.012 19.8664 320.707C20.3088 319.887 20.7247 319.108 21.0536 318.452C28.2792 304.131 31.7615 293.208 34.8544 283.567C36.6088 278.067 38.2573 272.87 40.3861 267.934C41.9627 264.259 44.065 261.885 46.4697 261.075C48.6287 260.353 50.9503 260.963 53.1811 262.854C57.8658 266.811 59.2648 275.484 59.0379 281.706C58.7808 288.913 56.0547 295.443 53.4231 300.881C46.2496 315.64 37.0575 328.4 26.3433 338.472C24.8838 339.861 21.496 342.706 18.5808 342.706ZM48.2657 261.296C47.6924 261.295 47.1212 261.388 46.5643 261.573C44.2578 262.352 42.235 264.648 40.715 268.19C38.609 273.105 36.934 278.282 35.2023 283.767C32.1132 293.433 28.6119 304.387 21.3561 318.744C21.0196 319.405 20.5999 320.184 20.1613 321.009C17.3936 326.201 13.1777 334.044 14.951 339.118C15.1681 339.813 15.4981 340.432 15.9165 340.93C16.3348 341.428 16.8307 341.792 17.3671 341.993C20.3466 343.07 24.4868 339.61 26.1278 338.072C36.8042 328.031 45.9631 315.311 53.1092 300.599C55.7106 295.217 58.4027 288.764 58.6636 281.68C58.8829 275.596 57.5293 267.129 52.992 263.29C51.5869 262.034 49.9484 261.343 48.2657 261.296Z" fill="#209C3C" fill-opacity="0.15"/>
<path d="M378.104 353.9C374.236 352.424 368.016 347.749 366.689 340.948C365.895 336.847 367.006 332.747 369.99 328.646C370.542 327.882 371.098 327.109 371.65 326.376C373.778 323.469 375.952 320.496 378.104 317.395V318.175C375.949 321.281 374.047 323.813 371.918 326.734L370.258 329.005C367.377 332.952 366.299 336.929 367.056 340.794C368.33 347.355 374.463 351.957 378.104 353.346V353.9Z" fill="#209C3C" fill-opacity="0.15"/>
</svg>
