<svg width="1440" height="335" viewBox="0 0 1440 335" fill="none" xmlns="http://www.w3.org/2000/svg">
<path d="M551.227 321.509C553.567 320.218 554.496 318.486 553.66 316.989C552.336 314.598 546.994 313.302 539.045 313.388C525.164 313.541 511.636 315.392 499.922 318.745C486.962 322.461 476.573 327.832 469.114 334.677L468.948 334.82H469.848C483.924 322.016 509.764 314.187 539.059 313.866C546.706 313.79 551.774 314.985 552.984 317.157C553.704 318.458 552.861 319.983 550.766 321.146C539.131 327.584 539.866 332.118 542.638 334.82H543.516L543.372 334.686C539.419 331.018 542.062 326.584 551.227 321.509Z" fill="white" fill-opacity="0.15"/>
<path d="M715.216 16.9655C694.503 14.0957 666.136 10.1976 619.697 0.899497C618.257 0.612519 616.767 0.320758 615.133 0.0146484H612.519L613.693 0.244231C615.853 0.636434 617.71 0.999939 619.452 1.35388C665.977 10.6663 694.344 14.5788 715.065 17.4342L719.86 18.0942L719.975 18.1182V17.6399L715.216 16.9655Z" fill="white" fill-opacity="0.15"/>
<path d="M702.624 9.06884C682.918 6.3521 660.656 3.28143 643.017 0.0146484H640.526L641.555 0.239449C659.418 3.58754 682.292 6.75388 702.48 9.53757C708.6 10.3842 714.388 11.1781 719.874 11.9578H719.975V11.4938C714.482 10.7046 708.722 9.91065 702.624 9.06884Z" fill="white" fill-opacity="0.15"/>
<path d="M701.788 4.2477C690.765 2.70275 681.175 1.37783 672.644 0.0146484H669.764L671.016 0.244237C679.93 1.67917 690.009 3.08062 701.673 4.71644C707.519 5.53913 713.567 6.38574 719.917 7.29932H720.004V6.82101C713.646 5.91222 707.62 5.06561 701.788 4.2477Z" fill="white" fill-opacity="0.15"/>
<path d="M173.471 84.8876C188.986 78.6697 203.638 72.8011 216.46 68.5873C271.697 50.4456 295.478 57.687 305.737 66.9515C320.439 80.2912 314.759 102.149 305.349 138.366C304.571 141.357 303.769 144.448 302.944 147.64C302.764 148.357 302.526 149.223 302.224 150.213C298.941 162.434 290.208 194.895 306.177 200.625C307.036 200.948 308.004 201.122 308.992 201.132C309.664 201.129 310.33 201.044 310.957 200.884C317.819 199.138 323.773 188.147 330.67 175.419C339.439 159.224 350.361 139.069 366.906 131.741C374.711 128.283 389.075 125.882 402.97 123.558C406.844 122.912 410.847 122.238 414.562 121.568C422.597 120.133 434.368 117.498 443.749 111.548C451.28 106.765 458.379 101.355 464.629 96.5723C469.28 93.0186 473.672 89.6657 477.588 87.0686L480.31 85.2654C497.589 73.8151 511.204 64.7705 525.747 59.3945C548.729 50.9047 566.786 48.0828 597.392 48.2119C599.178 48.2119 601.41 48.2598 603.994 48.3028C621.194 48.5898 653.197 49.1255 661.24 42.5633C662.109 41.8579 662.71 41.0234 662.991 40.1308C663.272 39.2382 663.224 38.3138 662.852 37.436C658.115 24.0581 607.961 24.4359 581.02 24.6416C571.66 24.7133 562.682 25.0577 554.791 25.359C536.317 26.0717 521.73 26.6313 515.56 23.1445C509.8 19.8969 512.514 14.7217 514.681 10.5654C516.121 7.82952 517.338 5.46675 515.992 4.12274C512.773 0.918165 504.177 1.11427 493.572 4.6393C468.545 12.9521 462.699 37.1633 457.04 60.5424C455.838 65.5262 454.592 70.6727 453.188 75.4939C444.988 103.627 434.887 114.528 394.489 119.669C368.764 122.941 351.42 129.556 339.9 140.494C338.957 141.389 337.992 142.407 337.056 143.402C333.226 147.458 329.273 151.653 324.644 149.983C317.639 147.458 321.318 129.728 323.29 120.205C323.622 118.603 323.91 117.216 324.104 116.125C324.349 114.738 324.608 113.346 324.86 111.954C327.113 99.6621 329.446 86.9538 325.522 74.5516C321.829 62.8382 313.909 54.6115 302.008 50.1012C285.765 43.9408 262.208 44.4621 230.01 51.6891C198.195 58.8205 169.158 70.2422 141.072 81.2908C132.31 84.7393 123.245 88.3026 114.217 91.6889C79.9172 104.55 42.5649 112.562 0 116.173V116.651H0.0431985C42.7305 113.03 80.1836 105.005 114.519 92.105C123.555 88.7139 132.619 85.1506 141.389 81.7021C169.468 70.6679 198.447 59.2606 230.19 52.1387C262.201 44.9643 285.571 44.4286 301.619 50.5173C313.319 54.9559 321.109 63.0773 324.781 74.6521C328.683 86.9729 326.358 99.643 324.111 111.897C323.852 113.29 323.612 114.681 323.391 116.068C323.197 117.158 322.909 118.54 322.578 120.138C320.418 130.455 316.854 147.721 324.306 150.404C329.525 152.289 333.665 147.898 337.661 143.656C338.64 142.627 339.555 141.652 340.491 140.786C351.895 129.957 369.095 123.405 394.618 120.157C435.426 114.963 445.621 103.972 453.894 75.6039C455.334 70.7779 456.543 65.6219 457.753 60.638C463.376 37.3594 469.201 13.2869 493.888 5.08411C504.148 1.67865 512.392 1.41559 515.387 4.40493C516.539 5.55284 515.387 7.81039 513.997 10.4267C511.758 14.7313 508.958 20.0691 515.099 23.5272C521.478 27.1383 535.467 26.6026 554.834 25.8565C562.754 25.5551 571.66 25.2108 581.034 25.139C607.774 24.9381 657.553 24.5603 662.168 37.5508C662.514 38.3552 662.563 39.2031 662.313 40.023C662.062 40.8428 661.519 41.6107 660.728 42.262C652.902 48.6615 621.13 48.1306 604.059 47.8437C601.467 47.8006 599.235 47.7623 597.435 47.7528H595.398C565.879 47.7528 548.031 50.6512 525.445 58.9975C510.808 64.407 497.143 73.4707 479.849 84.945L477.127 86.7481C473.189 89.3596 468.79 92.7173 464.168 96.2758C457.919 101.059 450.827 106.463 443.289 111.218C434.023 117.096 422.366 119.688 414.41 121.128C410.703 121.798 406.7 122.467 402.826 123.113C388.873 125.447 374.452 127.862 366.546 131.363C349.8 138.777 338.835 159.018 330.029 175.281C323.19 187.893 317.293 198.789 310.734 200.453C310.058 200.631 309.33 200.702 308.606 200.662C307.882 200.622 307.181 200.472 306.558 200.224C291.043 194.661 299.711 162.438 302.958 150.318C303.225 149.323 303.455 148.458 303.642 147.74C304.463 144.552 305.262 141.46 306.04 138.466C315.486 102.116 321.159 80.1907 306.299 66.6885C295.917 57.2708 271.848 49.886 216.158 68.1807C203.314 72.3993 188.648 78.2775 173.118 84.4954C126.053 103.326 67.5049 126.786 0 129.948V130.426C67.7137 127.264 126.356 103.766 173.471 84.8876Z" fill="white" fill-opacity="0.15"/>
<path d="M137.682 69.453C147.999 66.0667 158.676 62.556 170.361 58.8588C256.074 31.7108 288.826 33.7197 307.783 38.4978C331.657 44.5195 342.968 60.5854 341.391 86.2506C340.866 94.7403 338.893 102.58 337.309 108.883C334.832 118.708 333.198 125.198 338.475 126.815C338.926 126.955 339.418 127.026 339.915 127.025C341.795 127.025 344.084 126.14 347.418 124.858C353.872 122.251 360.786 120.182 368.002 118.698C375.624 117.164 383.381 115.942 391.228 115.039C397.76 114.285 404.225 113.297 410.595 112.078C436.752 106.932 441.367 81.5729 445.831 57.046C447.631 47.1645 449.488 36.9577 452.721 28.1284C456.688 17.3333 460.936 8.58536 468.805 0.970935C469.093 0.688742 469.396 0.411332 469.698 0.133922L469.835 0H468.957C468.705 0.234364 468.453 0.478293 468.237 0.703091C460.317 8.35578 455.997 17.1564 452.059 27.9993C448.812 36.8429 446.954 47.0784 445.154 56.9743C440.719 81.3673 436.133 106.549 410.43 111.61C404.081 112.823 397.637 113.805 391.127 114.551C383.253 115.459 375.47 116.686 367.822 118.225C360.554 119.724 353.592 121.812 347.094 124.442C343.055 125.992 340.614 126.934 338.799 126.356C334.019 124.892 335.704 118.225 338.036 108.936C339.627 102.623 341.636 94.769 342.133 86.2506C343.724 60.3558 332.255 44.1273 308.057 38.0243C288.97 33.2127 256.038 31.1799 170.073 58.3996C158.381 62.1064 147.704 65.6123 137.379 69.0034C89.141 84.8397 54.3374 96.2661 0.0224609 99.7289V100.207H0.0368604C54.503 96.7779 89.393 85.318 137.682 69.453Z" fill="white" fill-opacity="0.15"/>
<path d="M81.5804 132.086C103.244 126.428 124.901 118.727 147.818 108.545C150.756 107.234 153.981 105.78 157.444 104.24C192.363 88.4562 250.81 62.0973 279.185 68.9513C312.246 76.934 303.246 105.139 286.917 156.345L286.377 158.034C276.607 188.578 273.59 209.111 277.19 220.791C279.35 227.736 283.98 232.346 290.301 233.772C291.668 234.085 293.103 234.246 294.549 234.25C298.264 234.25 302.073 233.231 305.449 231.285C321.289 222.125 327.812 207.126 334.688 191.247L335.127 190.228C344.861 167.748 356.726 149.281 366.014 141.996C375.892 134.277 390.406 131.436 404.432 129.188C407.887 128.638 411.199 128.126 414.382 127.638C436.737 124.185 452.864 121.702 468.704 111.457C476.695 106.282 483.773 101.126 490.605 96.1519C514.314 78.8616 534.783 63.9292 578.716 59.878C593.785 58.491 607.976 58.4432 621.698 58.4432C640.18 58.4001 657.64 58.3571 675.43 55.0951C685.366 53.2632 691.615 50.5226 694.538 46.7058C697.793 42.449 696.698 36.7907 691.658 32.2852C687.792 28.7984 681.982 26.0052 673.364 23.4846C659.54 19.4382 644.507 17.5442 629.964 15.7171L573.1 8.4996C565.031 7.50147 557.211 5.7596 549.867 3.32445C547.408 2.55222 545.245 1.42074 543.538 0.0146484L542.645 0.0146484L542.789 0.153354C544.575 1.69159 546.888 2.92463 549.535 3.75013C556.93 6.20251 564.803 7.95878 572.927 8.96833L629.87 16.1428C644.37 17.9698 659.389 19.8591 673.112 23.8768C681.607 26.3639 687.324 29.1093 691.111 32.5244C695.949 36.8864 697.044 42.3533 693.912 46.4475C691.082 50.1352 684.977 52.7993 675.25 54.5785C657.56 57.8405 640.144 57.8835 621.713 57.9266C607.961 57.9601 593.742 57.9936 578.637 59.3615C534.437 63.4366 513.889 78.4263 490.08 95.7884C483.247 100.772 476.177 105.923 468.2 111.094C452.511 121.238 436.442 123.711 414.202 127.126C411.019 127.605 407.722 128.126 404.244 128.681C390.111 130.948 375.445 133.813 365.452 141.643C356.092 148.975 344.177 167.523 334.421 190.051L333.982 191.07C327.135 206.882 320.67 221.814 304.96 230.883C300.482 233.47 295.219 234.346 290.517 233.274C284.448 231.906 279.962 227.425 277.882 220.652C274.318 209.039 277.313 188.568 287.04 158.067L287.58 156.379C303.995 104.91 313.031 76.5562 279.386 68.4347C250.666 61.4947 192.032 87.9635 156.991 103.781C153.527 105.34 150.302 106.794 147.364 108.085C96.3615 130.843 49.5271 141.992 0 143.221V143.699C27.2367 143.025 54.6749 139.117 81.5804 132.086Z" fill="white" fill-opacity="0.15"/>
<path d="M719.925 69.9219C702.94 71.5576 674.343 71.3568 638.135 71.0793C631.548 71.0315 624.744 70.9789 617.76 70.9406C591.287 70.7971 566.354 74.4083 549.363 80.8748C535.1 86.2987 522.162 94.5253 509.656 102.479C497.503 110.185 484.99 118.153 471.404 123.443C457.292 128.934 441.078 131.096 425.397 133.215C404.374 136.032 384.524 138.701 370.787 148.821C356.337 159.463 349.008 177.074 341.268 195.723C338.287 202.897 335.199 210.306 331.678 217.246C324.687 231.083 310.316 250.057 296.399 259.542C287.81 265.396 279.012 268.285 271.632 267.673C266.441 267.247 262.006 265.09 258.809 261.455C247.563 248.584 259.155 207.345 270.372 167.46C271.092 165.012 272.381 161.319 273.915 157.048C281.114 136.854 294.607 99.2652 279.674 85.9639C275.448 82.2045 269.595 80.0187 262.265 79.4686C240.781 77.8616 209.196 90.8425 188.677 102.427C186.709 103.54 184.734 104.665 182.751 105.803C157.804 120.066 129.596 136.18 78.0093 142.546C51.366 145.829 25.2475 150.773 0 157.311L0 157.851L0.129596 157.813C25.3731 151.262 51.4924 146.31 78.1389 143.024C129.883 136.634 158.2 120.458 183.19 106.196C185.173 105.061 187.146 103.937 189.109 102.824C209.52 91.2825 240.889 78.3685 262.15 79.9613C269.271 80.4922 274.958 82.6158 279.062 86.2652C293.8 99.3848 280.387 136.83 273.187 156.947C271.654 161.228 270.307 164.925 269.638 167.389C258.399 207.355 246.771 248.699 258.161 261.708C261.473 265.496 266.081 267.735 271.517 268.184C272.198 268.238 272.883 268.265 273.569 268.266C280.718 268.266 288.904 265.343 296.889 259.91C310.892 250.373 325.328 231.322 332.348 217.433C335.876 210.464 338.957 203.045 341.945 195.866C349.685 177.28 356.985 159.717 371.32 149.161C384.899 139.155 404.64 136.505 425.541 133.702C441.28 131.588 457.551 129.398 471.764 123.873C485.443 118.56 497.985 110.572 510.131 102.829C522.608 94.8936 535.51 86.6861 549.73 81.3053C566.635 74.877 591.488 71.2611 617.782 71.4333C624.766 71.4715 631.569 71.5242 638.157 71.572C674.372 71.8398 702.955 72.0503 720.004 70.4145V69.9362L719.925 69.9219Z" fill="white" fill-opacity="0.15"/>
<path d="M719.925 83.1227C696.165 85.4711 672.824 85.9207 648.136 86.3942C638.654 86.576 628.848 86.7673 618.804 87.0686C592.295 87.8722 570.479 91.6076 553.956 98.1746C538.995 104.12 528.037 110.663 517.403 116.991C505.422 124.132 494.112 130.861 479.367 134.826C467.3 138.06 453.354 139.719 439.862 141.326C414.835 144.301 388.959 147.381 375.287 160.74C366.078 169.742 358.728 184.454 349.368 203.079C344.774 212.329 339.526 222.813 333.348 233.9C325.551 247.967 313.002 264.305 299.79 277.616C278.695 298.862 260.746 307.921 244.921 305.3C214.293 300.23 231.537 243.093 238.031 221.598C238.844 218.901 239.471 216.768 239.852 215.347C242.812 203.868 248.046 190.313 253.582 175.955C263.943 149.108 274.649 121.353 271.063 105.11C269.551 98.2463 264.245 93.3247 256.124 91.2393C242.567 87.7861 223.005 92.5403 201.06 104.632C190.066 110.682 181.714 116.842 173.629 122.807C160.871 132.22 148.804 141.111 128.724 147.329C115.434 151.452 97.607 152.705 80.3708 153.915C69.0744 154.709 58.4044 155.46 48.8719 156.957C27.0495 160.405 8.93489 167.388 0 171.291V171.851L0.201593 171.779C9.05729 167.9 27.1791 160.879 49.0447 157.43C58.5268 155.943 69.204 155.192 80.45 154.403C97.7294 153.188 115.628 151.93 129.027 147.769C149.244 141.498 161.361 132.569 174.191 123.113C182.254 117.168 190.592 111.022 201.55 104.995C223.293 93.0377 242.588 88.2883 255.894 91.6842C263.763 93.6882 268.903 98.4759 270.379 105.162C273.979 121.31 263.252 149.017 252.913 175.816C247.369 190.165 242.113 203.758 239.176 215.247C238.809 216.681 238.168 218.791 237.354 221.488C230.824 243.122 213.48 300.584 244.77 305.764C246.637 306.077 248.554 306.238 250.479 306.242C257.441 306.242 264.67 304.185 272.417 300.024C281.1 295.356 290.258 288.115 300.417 277.884C313.664 264.544 326.235 248.168 334.054 234.072C340.21 222.966 345.458 212.477 350.088 203.227C359.39 184.636 366.741 169.952 375.892 161.008C389.391 147.812 413.971 144.885 439.97 141.79C453.498 140.183 467.48 138.519 479.619 135.266C494.479 131.282 505.833 124.509 517.864 117.34C528.454 111.031 539.398 104.502 554.302 98.5812C570.724 92.0524 592.46 88.3409 618.811 87.5421C628.848 87.2408 638.654 87.0638 648.136 86.8677C672.824 86.3894 696.151 85.9399 719.953 83.5962V83.1179L719.925 83.1227Z" fill="white" fill-opacity="0.15"/>
<path d="M719.976 99.7529C667.763 103.063 650.952 103.608 636.113 104.096C631.556 104.244 627.25 104.383 622.196 104.574C604.197 105.335 592.288 105.98 575.671 109.448C555.303 113.695 544.396 120.554 524.604 132.999C521.774 134.778 518.772 136.668 515.532 138.676C495.373 151.208 470.893 152.404 447.199 153.561C420.186 154.881 394.641 156.129 381.062 175.084C373.33 185.855 367.959 197.765 362.278 210.373C352.918 231.078 342.371 254.543 318.201 280.605C286.825 314.435 259.545 328.358 232.337 324.432C196.158 319.213 208.952 274.617 215.828 250.655C216.469 248.411 217.081 246.293 217.577 244.437C219.478 237.353 223.755 226.74 228.708 214.477C239.659 187.319 253.288 153.523 253.85 128.599C254.095 117.512 248.551 108.74 239.378 105.708C234.13 103.971 225.252 103.259 212.739 109.725C202.4 115.073 194.437 123.118 185.999 131.636C171.139 146.645 155.76 162.161 125.485 164.849C113.908 165.877 103.166 165.978 92.8418 166.078C64.5323 166.346 37.7925 166.604 0.0297852 185.779V186.377L0.245778 186.267C37.9437 167.078 64.6115 166.824 92.849 166.556C103.231 166.456 113.966 166.355 125.579 165.322C156.192 162.61 171.657 146.999 186.604 131.899C195.006 123.414 202.94 115.403 213.186 110.103C222.819 105.153 231.761 103.804 239.033 106.196C247.953 109.147 253.346 117.751 253.101 128.675C252.539 153.547 238.925 187.309 227.981 214.438C223.028 226.726 218.744 237.339 216.836 244.437C216.339 246.278 215.734 248.402 215.094 250.655C208.175 274.77 195.294 319.663 232.157 324.986C235.042 325.405 237.987 325.617 240.941 325.618C253.231 325.618 265.823 321.973 278.495 314.727C291.317 307.399 304.5 296.346 318.813 280.94C343.033 254.83 353.624 231.327 362.969 210.593C368.643 198.004 373.999 186.114 381.689 175.376C395.123 156.656 420.43 155.417 447.206 154.111C471.009 152.944 495.617 151.743 515.978 139.097C519.218 137.089 522.228 135.199 525.05 133.42C544.77 121.023 555.635 114.193 575.844 109.984C592.404 106.535 604.233 105.894 622.196 105.134C627.236 104.919 631.556 104.78 636.106 104.655C650.945 104.177 667.785 103.622 719.969 100.313V99.8342L719.976 99.7529Z" fill="white" fill-opacity="0.15"/>
<path d="M192.665 290.616C195.668 274.354 199.411 254.094 211.651 229.906L212.933 227.395C217.742 218.011 228.988 196.043 235.374 175.467C243.352 149.783 241.343 134.472 229.384 129.967C209.074 122.314 190.023 143.68 178.64 156.445C176.149 159.238 173.996 161.654 172.261 163.29C156.955 177.744 140.237 181.321 106.074 177.461C85.641 175.151 68.6352 175.663 52.6302 179.073C33.7164 183.096 16.5018 191.179 0 203.768V204.49L0.273591 204.284C38.8787 174.706 77.0373 174.663 105.959 177.94C124.016 179.977 137.249 179.81 147.616 177.409C157.293 175.17 165.076 170.899 172.852 163.572C174.601 161.922 176.761 159.497 179.259 156.694C190.505 144.076 209.333 122.96 229.031 130.388C247.283 137.266 241.638 169.852 212.256 227.247C211.759 228.204 211.334 229.05 210.974 229.758C198.713 253.988 194.955 274.263 191.945 290.559C188.252 310.585 185.574 325.058 169.691 334.634L169.338 334.82H170.44C186.286 325.115 188.965 310.628 192.665 290.616Z" fill="white" fill-opacity="0.15"/>
<path d="M180.354 290.606C183.73 273.713 190.469 258.049 197.633 241.462C206.302 221.259 215.273 200.367 218.44 176.027C219.16 170.397 219.664 164.428 217.144 158.727C216.424 157.149 214.308 153.437 209.549 153.088C204.315 152.705 200.995 156.579 198.958 159.53C189.677 172.923 177.913 182.311 163.989 187.372C150.597 192.241 133.599 189.586 117.19 187.018C112.403 186.267 107.881 185.583 103.475 185.043C59.9019 179.925 42.5577 191.208 22.4632 204.275C13.5643 210.057 1.95113 219.288 0 220.848V221.622L0.28079 221.374C0.410386 221.268 13.3051 210.894 22.9456 204.633C42.8961 191.662 60.1251 180.46 103.331 185.535C107.708 186.047 112.223 186.755 117.01 187.501C133.57 190.089 150.705 192.762 164.342 187.812C178.403 182.699 190.261 173.257 199.62 159.75C201.571 156.933 204.71 153.231 209.484 153.58C213.804 153.896 215.813 157.407 216.468 158.88C218.952 164.5 218.455 170.421 217.735 176.003C214.596 200.295 205.618 221.163 196.928 241.347C189.785 257.949 183.039 273.627 179.648 290.559C175.019 313.694 164.414 326.875 144.189 334.629L143.664 334.834H145.104C165.155 326.962 175.732 313.708 180.354 290.606Z" fill="white" fill-opacity="0.15"/>
<path d="M173.514 270.212C176.221 262.717 179.022 254.969 182.506 247.115C183.798 244.21 185.05 241.409 186.265 238.712C196.344 216.232 203.026 201.405 197.237 194.56C192.961 189.495 187.683 191.432 179.706 194.36C171.728 197.287 160.554 201.376 144.377 200.654C135.989 200.276 127.608 198.683 118.745 197C99.6085 193.36 79.8236 189.601 57.7996 197.837C31.6789 207.594 5.7598 234.555 0 240.773V241.73L0.309589 241.338C5.34941 235.875 31.7077 208.13 58.1524 198.239C79.91 190.108 99.5509 193.829 118.544 197.44C127.45 199.133 135.866 200.73 144.333 201.113C160.749 201.85 171.901 197.765 180.044 194.761C187.921 191.892 192.673 190.122 196.604 194.761C202.248 201.457 195.617 216.198 185.581 238.54C184.366 241.237 183.111 244.04 181.815 246.948C178.323 254.811 175.523 262.564 172.816 270.064C162.671 298.168 153.902 322.442 115.434 334.566L114.562 334.786H116.391C154.615 322.523 163.377 298.269 173.514 270.212Z" fill="white" fill-opacity="0.15"/>
<path d="M134.995 309.322C145.075 298.058 151.332 283.662 157.667 265.52C160.18 258.322 162.808 251.922 165.133 246.278C170.893 232.245 174.724 222.976 169.453 218.446C165.796 215.289 162.462 215.294 155.774 215.304C148.394 215.304 137.242 215.328 117.046 211.186C95.2311 206.718 81.8756 206.56 66.0001 210.592C39.9154 217.231 11.3756 250.09 0 264.348V265.333L0.316789 264.989C11.4476 250.965 40.1602 217.681 66.3169 211.037C82.0196 207.053 95.2527 207.211 116.888 211.645C137.191 215.806 148.401 215.792 155.831 215.782C162.448 215.782 165.472 215.782 168.906 218.738C173.946 223.076 170.159 232.259 164.435 246.154C162.117 251.802 159.482 258.202 156.962 265.41C143.491 304.018 130.409 323.169 88.4849 334.6L87.6138 334.82H89.5289C110.099 329.109 124.556 320.997 134.995 309.322Z" fill="white" fill-opacity="0.15"/>
<path d="M88.7369 0.234672L89.6225 0.0146484H87.6138C64.2578 5.9744 15.7099 4.16161 0.086397 2.4062H0V2.88452C7.55974 3.72634 22.6792 4.58252 38.965 4.58252C57.058 4.58252 76.5837 3.52545 88.7369 0.234672Z" fill="white" fill-opacity="0.15"/>
<path d="M115.7 0.229884L116.42 0.0146484H114.692C72.3575 13.2588 13.5787 8.77236 0.086397 6.83523H0V7.31354C6.27818 8.21274 22.0384 9.6333 41.3698 9.6333C64.445 9.62852 92.5816 7.60052 115.7 0.229884Z" fill="white" fill-opacity="0.15"/>
<path d="M144.528 0.220316L145.104 0.0146484H143.664C96.5414 19.4574 24.0976 14.9088 0.100796 11.4938H0V11.9721C10.0796 13.407 28.475 15.0093 49.9735 15.0093C80.3492 15.0093 116.866 11.7808 144.528 0.220316Z" fill="white" fill-opacity="0.15"/>
<path d="M170.152 0.191622L170.447 0.0146484H169.374C118.933 31.162 27.0711 21.3806 0.0791973 17.6355H0V18.1138C21.0854 21 42.5497 22.49 64.0778 22.562C99.9685 22.562 141.684 17.9129 170.152 0.191622Z" fill="white" fill-opacity="0.15"/>
<path d="M606.737 333.299C592.46 330.75 580.098 328.55 577.873 324.101C576.75 321.892 578.111 319.189 582.027 315.832C582.455 315.52 582.756 315.142 582.903 314.732C583.051 314.322 583.039 313.894 582.87 313.488C581.567 310.748 571.948 308.786 561.775 306.711C549.607 304.228 537.029 301.665 538.354 297.8C539.794 293.495 547.886 290.96 557.217 288.028C562.26 286.526 567.149 284.807 571.854 282.882C579.024 279.82 585.829 276.397 592.208 272.642C599.105 268.696 605.059 265.29 619.747 260.684C664.227 246.776 699.607 219.938 718.621 205.523L719.975 204.499V203.767L718.074 205.202C699.095 219.604 663.817 246.388 619.437 260.254C604.663 264.874 598.673 268.304 591.74 272.273C585.384 276.014 578.606 279.427 571.465 282.48C566.787 284.396 561.924 286.104 556.908 287.593C547.404 290.583 539.196 293.165 537.648 297.695C536.208 301.999 549.081 304.625 561.566 307.17C571.113 309.117 581.005 311.13 582.186 313.632C582.321 313.965 582.325 314.315 582.2 314.65C582.074 314.985 581.821 315.293 581.466 315.545C577.42 319.036 575.98 321.906 577.189 324.255C579.565 328.947 591.474 331.07 606.55 333.763C608.465 334.103 610.43 334.457 612.418 334.82H615.297L613.908 334.59C611.46 334.141 609.098 333.715 606.737 333.299Z" fill="white" fill-opacity="0.15"/>
<path d="M719.701 221.067L716.216 223.841C706.489 231.609 691.78 243.346 682.061 249.024C662.708 260.326 650.382 264.568 633.282 270.447C625.687 273.063 617.076 276.023 606.398 280.084C593.172 285.111 585.519 290.128 583.597 294.94C583.147 295.998 583.026 297.105 583.241 298.194C583.457 299.284 584.004 300.333 584.85 301.277C587.729 304.482 594.411 306.658 600.869 308.758C607.327 310.858 613.483 312.867 614.116 315.54C614.448 316.922 613.31 318.41 610.646 320.137C608.724 321.371 607.997 322.648 608.486 323.93C609.818 327.412 620.229 330.994 640.338 334.82H643.146L641.749 334.591C621.107 330.707 610.459 327.168 609.185 323.82C608.76 322.696 609.401 321.605 611.15 320.471C613.994 318.644 615.196 317.004 614.829 315.459C614.109 312.537 607.846 310.489 601.15 308.318C594.785 306.247 588.19 304.104 585.433 301.019C584.635 300.13 584.12 299.142 583.918 298.115C583.717 297.089 583.833 296.046 584.259 295.05C586.109 290.353 593.669 285.451 606.722 280.491C617.385 276.435 625.989 273.474 633.577 270.863C650.706 264.97 663.096 260.713 682.536 249.373C692.299 243.672 707.015 231.915 716.771 224.138L719.974 221.584V220.795L719.701 221.067Z" fill="white" fill-opacity="0.15"/>
<path d="M719.665 241.103C707.721 254.103 686.777 266.797 666.294 273.45L663.356 274.407C654.45 277.277 643.362 280.878 631.598 285.503C623.923 288.521 619.906 291.382 619.315 294.256C618.595 297.776 622.915 300.78 627.509 303.966C633.268 307.959 639.23 312.097 635.061 317.487C633.211 319.878 632.944 321.969 634.262 323.877C637.595 328.703 650.728 331.769 669.541 334.82H672.946L671.168 334.591C654.407 331.912 638.423 328.732 634.932 323.676C633.715 321.911 633.967 319.96 635.709 317.707C640.123 312.01 633.981 307.754 628.041 303.631C623.578 300.536 619.359 297.614 620.042 294.318C620.604 291.602 624.506 288.856 631.972 285.92C643.715 281.299 654.788 277.717 663.651 274.833L666.589 273.876C687.015 267.242 707.901 254.625 719.953 241.677V240.792L719.665 241.103Z" fill="white" fill-opacity="0.15"/>
<path d="M719.658 264.745C704.589 283.284 687.072 294.304 674.3 302.354C667.417 306.658 661.981 310.107 658.727 313.484C656.567 315.76 656.128 318.07 657.517 320.352C660.937 325.991 675.178 330.994 698.714 334.82H701.378V334.758L700.32 334.591C669.771 329.755 660.527 324.068 658.151 320.175C656.855 318.042 657.244 315.87 659.295 313.742C662.499 310.394 667.935 307.007 674.761 302.698C687.497 294.687 704.899 283.729 719.953 265.357V264.353L719.658 264.745Z" fill="white" fill-opacity="0.15"/>
<path d="M532.537 34.6908C520.837 36.1974 510.527 37.0822 506.279 36.9961C500.519 36.8526 499.591 34.3464 498.82 30.5344C498.525 29.0995 497.647 28.2003 496.207 27.8703C493.255 27.1959 488.784 29.1904 485.853 31.1036C479.899 34.973 474.039 43.4674 471.267 52.2393C469.971 56.3383 463.765 76.9193 468.466 79.8321C468.83 80.0646 469.315 80.1948 469.82 80.1956C470.044 80.1937 470.267 80.1712 470.482 80.1286C474.341 79.4064 478.402 76.3596 484.054 72.1459C490.98 66.9708 500.469 59.8825 515.012 53.0142C527.528 47.0754 541.847 43.0255 556.965 41.1477C558.945 40.9181 561.012 40.746 563.013 40.5738C568.975 40.0955 574.122 39.6172 575.75 38.0484C576.006 37.7933 576.175 37.5038 576.245 37.2005C576.315 36.8972 576.283 36.5874 576.153 36.293C574.446 31.7827 552.941 32.0602 532.537 34.6908ZM575.159 37.7997C573.719 39.2345 568.471 39.6507 562.92 40.1194C560.911 40.2916 558.837 40.4638 556.836 40.6933C541.612 42.5702 527.188 46.6331 514.573 52.5981C499.979 59.519 490.469 66.6312 483.521 71.8206C477.955 75.977 473.938 78.995 470.288 79.6646C470.062 79.7198 469.817 79.7316 469.581 79.6986C469.346 79.6656 469.129 79.5892 468.956 79.4781C465.752 77.4884 468.164 64.4119 471.972 52.335C474.715 43.6492 480.497 35.2504 486.372 31.4384C489.374 29.4869 493.514 27.7651 495.984 28.3295C497.15 28.5973 497.87 29.3626 498.143 30.6109C498.806 33.9064 499.497 37.307 506.286 37.4792C510.606 37.5892 520.959 36.6805 532.702 35.1691C555.741 32.2132 574.101 32.7776 575.483 36.427C575.586 36.6574 575.61 36.9001 575.554 37.1375C575.498 37.3749 575.363 37.6011 575.159 37.7997Z" fill="white" fill-opacity="0.15"/>
<path d="M719.976 143.22C695.806 143.818 660.318 151.48 635.501 167.24C627.984 172.023 620.756 177.504 613.103 183.32C592.706 198.798 571.661 214.806 540.853 220.986C483.975 232.427 469.518 242.509 450.136 262.717C439.337 273.962 433.152 285.044 427.673 294.815C422.288 304.477 417.586 312.818 409.861 319.514C405.181 323.57 400.717 325.197 396.613 324.369C387.47 322.518 382.214 309.451 381.047 297.326C380.457 291.109 376.368 235.842 414.807 207.321C428.976 196.799 447.35 191.131 469.417 190.442C476.386 190.222 482.816 190.079 489.044 189.94C534.733 188.921 559.904 188.357 594.614 161.821C625.968 137.854 675.575 132.502 719.976 130.426V129.948C675.431 132.028 625.659 137.404 594.095 161.515C559.565 187.893 534.51 188.462 489.015 189.471C482.794 189.61 476.358 189.753 469.381 189.973C447.119 190.667 428.573 196.402 414.274 207.01C399.256 218.154 388.953 234.474 383.661 255.514C380.288 269.344 379.17 283.375 380.327 297.365C381.501 309.657 386.93 322.92 396.404 324.838C397.158 324.99 397.942 325.067 398.73 325.067C402.474 325.067 406.398 323.307 410.43 319.806C418.241 313.053 422.943 304.687 428.386 294.987C433.829 285.288 440.049 274.182 450.777 262.975C470.036 242.853 484.4 232.843 541.069 221.45C572.028 215.232 593.188 199.166 613.635 183.636C621.281 177.829 628.496 172.348 635.998 167.584C660.664 151.916 695.943 144.296 719.983 143.698V143.22H719.976Z" fill="white" fill-opacity="0.15"/>
<path d="M719.932 116.177C682.191 119.377 653.989 121.888 639.035 123.735C613.059 126.939 594.397 132.258 576.577 141.532C570.378 144.76 564.935 148.706 559.665 152.49C552.156 157.913 544.387 163.519 534.322 167.145C519.519 172.477 503.19 172.774 487.423 173.061C481.332 173.176 475.039 173.291 468.869 173.683C442.95 175.347 421.027 182.464 403.69 194.843C389.477 204.987 378.217 218.757 370.211 235.746C356.114 265.692 356.056 296.719 356.042 306.916V308.036C355.991 318.08 356.344 326.856 357.107 334.82H357.827C357.064 326.856 356.711 318.08 356.762 308.036V306.921C356.762 296.743 356.834 265.788 370.902 235.895C388.757 197.966 421.74 177.193 468.934 174.166C475.083 173.769 481.368 173.654 487.437 173.544C503.277 173.257 519.728 172.956 534.682 167.57C544.848 163.906 552.681 158.267 560.212 152.82C565.461 149.032 570.882 145.119 577.038 141.914C594.742 132.693 613.325 127.398 639.179 124.218C654.112 122.376 682.291 119.87 719.989 116.67V116.192L719.932 116.177Z" fill="white" fill-opacity="0.15"/>
<path d="M719.846 157.373L715.727 158.444C702.905 161.792 686.928 165.92 667.036 174.773C653.997 180.57 643.276 188.4 631.973 196.694C621.972 204.021 611.626 211.597 598.796 218.427C584.966 225.793 569.817 230.772 553.784 236.043C523.055 246.144 491.275 256.609 463.621 285.226C451.108 298.178 440.863 310.054 432.353 334.796V334.844H433.073C441.554 310.217 451.792 298.388 464.226 285.484C491.772 256.959 523.458 246.541 554.1 236.468C570.17 231.207 585.354 226.199 599.243 218.8C612.123 211.946 622.484 204.356 632.506 197.014C643.802 188.72 654.458 180.91 667.417 175.146C687.26 166.327 703.178 162.189 715.965 158.884L719.975 157.851V157.335L719.846 157.373Z" fill="white" fill-opacity="0.15"/>
<path d="M719.774 171.377C708.348 176.385 680.665 192.088 640.281 219.857C614.967 237.263 592.59 243.858 568.896 250.841C557.376 254.232 545.46 257.743 532.602 262.641C503.882 273.599 483.823 284.599 469.496 297.341C455.37 309.882 448.487 322.734 443.159 334.763V334.82H443.879C454.528 310.824 469.395 287.278 532.962 263.076C545.784 258.188 557.678 254.687 569.184 251.296C592.943 244.293 615.392 237.683 640.8 220.207C680.924 192.614 708.477 176.959 719.997 171.899V171.33L719.774 171.377Z" fill="white" fill-opacity="0.15"/>
<path d="M719.759 185.936C702.645 194.546 683.645 206.709 668.389 216.475C659.641 222.072 652.096 226.907 646.3 230.207C617.501 246.622 589.638 255.461 565.058 263.262C552.71 267.18 541.047 270.877 531.385 274.985C494.709 290.592 464.225 319.859 455.168 334.739L455.118 334.82H455.895C464.974 319.993 495.292 290.908 531.773 275.392C541.399 271.298 553.041 267.6 565.367 263.693C589.991 255.882 617.926 247.024 646.775 230.571C652.578 227.261 660.138 222.44 668.885 216.82C684.07 207.101 702.947 195.019 720.004 186.429V185.822L719.759 185.936Z" fill="white" fill-opacity="0.15"/>
<path d="M368.57 46.2276C375.914 64.2306 383.121 72.9117 391.94 74.3753C393.222 74.597 394.54 74.7111 395.864 74.7148C404.633 74.7148 411.171 69.2718 415.771 58.185C418.709 51.111 420.984 42.4395 423.612 32.4C426.132 22.7911 428.99 11.9003 433.044 0.0959587L433.108 0.0146484H432.338C428.277 11.8238 425.426 22.7098 422.906 32.3187C420.279 42.3629 418.011 51.0057 415.08 58.0606C409.94 70.4389 402.43 75.6284 392.113 73.9113C383.697 72.5147 376.432 63.6806 369.268 46.1032C363.019 31.0514 359.184 15.6026 357.828 0.0146484L357.108 0.0146484C358.464 15.6444 362.306 31.135 368.57 46.2276Z" fill="white" fill-opacity="0.15"/>
<path d="M144.045 43.0277C200.707 29.7024 254.202 17.1137 299.272 16.9893C322.203 16.9271 337.251 22.8724 348.029 36.2694C354.948 44.8787 359.548 54.258 364.019 63.3265C370.499 76.4653 376.576 88.8722 388.571 94.7457C391.98 96.5093 396.152 97.4986 400.472 97.5676C401.553 97.568 402.631 97.4959 403.69 97.3524C405.807 97.059 407.806 96.4691 409.552 95.6221C411.299 94.7751 412.754 93.6904 413.82 92.4403C421.841 83.2666 428.565 56.353 434.505 32.6104C438.033 18.5055 441.085 6.30422 443.865 0.0863926V0.0146484H443.145C440.373 6.30422 437.334 18.4625 433.785 32.5387C427.867 56.2334 421.185 83.0992 413.194 92.2012C412.179 93.3935 410.793 94.4281 409.128 95.2356C407.463 96.0432 405.557 96.6051 403.539 96.8837C398.816 97.5341 393.654 96.6397 389.002 94.363C377.188 88.5805 371.399 76.8096 364.703 63.1782C360.232 54.0906 355.617 44.6874 348.662 36.0446C337.798 22.5423 322.671 16.511 299.632 16.511H299.265C254.094 16.6354 200.52 29.2337 143.808 42.5733C96.0303 53.8132 46.6112 65.431 0 69.9222V70.4005H0.0503982C46.7984 65.9045 96.2175 54.2724 144.045 43.0277Z" fill="white" fill-opacity="0.15"/>
<path d="M121.935 59.9201C125.664 58.9922 131.115 57.5286 138.012 55.668C174.882 45.7435 251.61 25.0955 294.715 24.9616H295.147C316.746 24.9616 330.562 29.9885 338.547 40.7692C347.035 52.2482 352.392 63.0194 357.115 72.5327C360.564 79.4631 363.537 85.4466 367.101 90.4926C374.481 100.934 387.023 107.395 398.866 107.395C401.182 107.398 403.483 107.141 405.67 106.635C420.134 103.287 426.708 91.8079 432.129 75.632C433.288 72.1644 434.699 66.3101 436.492 58.8917C440.812 41.0944 447.292 14.2048 455.852 0.119041L455.96 0.0090332H455.147C446.565 14.1665 440.078 41.0275 435.779 58.8391C434.059 65.9514 432.575 72.0974 431.423 75.5459C426.052 91.5735 419.58 102.919 405.44 106.2C392.278 109.256 376.446 102.574 367.785 90.3108C364.235 85.2935 361.269 79.3101 357.828 72.3988C353.097 62.8711 347.748 52.0761 339.223 40.5779C331.131 29.668 316.551 24.4068 294.707 24.4833C251.466 24.6172 174.652 45.2891 137.753 55.2232C130.863 57.079 125.412 58.5426 121.697 59.4753C78.7149 70.213 44.768 78.6931 0 83.1173V83.5956H0.0503983C44.9264 79.1666 78.9093 70.6721 121.935 59.9201Z" fill="white" fill-opacity="0.15"/>
<path d="M483.55 204.896C466.018 205.963 448.717 210.535 437.27 217.136C411.502 231.987 400.666 256.093 401.365 273.393C401.559 278.228 403.381 281.299 406.246 281.6C406.404 281.607 406.563 281.607 406.721 281.6C409.666 281.6 412.877 278.73 415.599 273.675C419.422 266.539 429.573 247.589 451.432 234.144C463.412 226.774 477.43 223.143 488.69 220.25C498.691 217.672 506.596 215.634 509.346 211.98C510.275 210.741 510.225 209.588 509.202 208.632C505.703 205.236 491.829 204.394 483.55 204.896ZM508.699 211.789C506.078 215.275 498.288 217.284 488.431 219.829C477.113 222.751 463.023 226.386 450.942 233.819C428.954 247.34 418.759 266.371 414.943 273.517C412.251 278.553 409.054 281.385 406.39 281.108C403.935 280.849 402.293 277.879 402.113 273.364C401.393 256.174 412.193 232.231 437.774 217.475C449.106 210.942 466.256 206.408 483.643 205.351C485.083 205.265 486.638 205.222 488.273 205.222C496.301 205.222 505.984 206.307 508.641 208.885C509.49 209.761 509.519 210.703 508.699 211.789Z" fill="white" fill-opacity="0.15"/>
<path d="M701.817 0.0146484H698.807L700.168 0.249033C706.158 1.20571 712.803 2.08584 719.888 2.87988H719.974V2.40633C713.495 1.67448 707.382 0.87087 701.817 0.0146484Z" fill="white" fill-opacity="0.15"/>
<path d="M53.235 323.063L53.4077 322.987C80.0468 311.35 120.236 293.763 138.761 256.935C142.404 249.688 141.979 243.695 137.501 239.128C131.892 233.412 120.157 229.964 102.632 228.878C76.5117 227.261 67.5121 233.182 53.8613 243.853C45.812 250.128 39.5986 257.604 33.5436 264.831C28.2302 271.202 22.744 277.793 15.9114 283.733C11.174 287.866 6.29258 291.424 1.57675 294.863L0 296.021V296.748L0.266391 296.556L2.10953 295.208C6.83976 291.759 11.7212 288.191 16.509 284.044C23.3632 278.075 28.871 271.47 34.1988 265.085C40.4914 257.542 46.4384 250.42 54.4301 244.183C67.9296 233.661 76.8213 227.773 102.582 229.356C119.861 230.428 131.431 233.804 136.918 239.4C141.273 243.839 141.669 249.693 138.098 256.791C119.653 293.462 79.5644 310.996 53.0334 322.595L52.8606 322.671C41.9889 327.406 16.9626 332.61 0.115196 329.611L0 329.587V330.066C3.6828 330.695 7.47219 331.007 11.2748 330.993C26.7687 330.993 44.5305 326.871 53.235 323.063Z" fill="white" fill-opacity="0.15"/>
<path d="M35.3794 319.639C34.5366 319.644 33.6965 319.575 32.8811 319.433C31.7618 319.228 30.7269 318.858 29.854 318.349C28.9812 317.84 28.293 317.207 27.8412 316.497C24.2414 311.508 32.4347 304.061 37.8273 299.111C38.6697 298.345 39.4616 297.618 40.088 297.006C53.8467 283.643 60.4777 273.45 66.3671 264.453C69.7078 259.321 72.8469 254.471 76.9003 249.865C79.9026 246.436 83.9057 244.222 88.4847 243.466C92.5958 242.792 97.0164 243.361 101.264 245.126C110.185 248.818 112.849 256.911 112.417 262.717C111.927 269.442 106.736 275.535 101.725 280.61C88.0656 294.383 70.5622 306.29 50.1605 315.688C47.3814 316.984 40.9304 319.639 35.3794 319.639ZM91.9046 243.672C90.813 243.671 89.7252 243.758 88.6647 243.93C84.2729 244.657 80.421 246.8 77.5267 250.105C73.5164 254.691 70.327 259.522 67.0295 264.64C61.1473 273.661 54.4803 283.882 40.664 297.279C40.0232 297.896 39.224 298.623 38.3889 299.393C33.1187 304.238 25.0909 311.556 28.4676 316.291C28.881 316.939 29.5094 317.517 30.306 317.982C31.1026 318.447 32.0468 318.786 33.0683 318.974C38.7417 319.978 46.6254 316.75 49.7501 315.315C70.0799 305.945 87.52 294.076 101.127 280.347C106.081 275.325 111.207 269.303 111.704 262.693C112.122 257.016 109.544 249.115 100.904 245.532C98.2287 244.36 95.1087 243.715 91.9046 243.672Z" fill="white" fill-opacity="0.15"/>
<path d="M719.976 330.084C712.61 328.707 700.767 324.345 698.24 317.998C696.728 314.172 698.844 310.346 704.525 306.519C705.576 305.807 706.635 305.085 707.686 304.401C711.739 301.689 715.879 298.915 719.976 296.021V296.748C715.872 299.646 712.25 302.009 708.197 304.735L705.036 306.854C699.55 310.537 697.498 314.248 698.938 317.855C701.364 323.977 713.042 328.272 719.976 329.568V330.084Z" fill="white" fill-opacity="0.15"/>
<path d="M1271.2 321.509C1273.54 320.218 1274.47 318.486 1273.64 316.989C1272.31 314.598 1266.97 313.302 1259.02 313.388C1245.14 313.541 1231.61 315.392 1219.9 318.745C1206.94 322.461 1196.55 327.832 1189.09 334.677L1188.92 334.82H1189.82C1203.9 322.016 1229.74 314.187 1259.03 313.866C1266.68 313.79 1271.75 314.985 1272.96 317.157C1273.68 318.458 1272.84 319.983 1270.74 321.146C1259.11 327.584 1259.84 332.118 1262.61 334.82H1263.49L1263.35 334.686C1259.39 331.018 1262.04 326.584 1271.2 321.509Z" fill="white" fill-opacity="0.15"/>
<path d="M1435.19 16.9655C1414.48 14.0957 1386.11 10.1976 1339.67 0.899497C1338.23 0.612519 1336.74 0.320758 1335.11 0.0146484H1332.49L1333.67 0.244231C1335.79 0.636434 1337.68 0.999939 1339.43 1.35388C1385.89 10.6663 1414.3 14.5788 1435 17.4342L1439.79 18.0942L1439.91 18.1182V17.6399L1435.19 16.9655Z" fill="white" fill-opacity="0.15"/>
<path d="M1422.6 9.06884C1402.89 6.3521 1380.63 3.28143 1362.99 0.0146484H1360.5L1361.53 0.239449C1379.39 3.58754 1402.27 6.75388 1422.45 9.53757C1428.57 10.3842 1434.36 11.1781 1439.85 11.9578H1439.95V11.4938C1434.46 10.7046 1428.7 9.91065 1422.6 9.06884Z" fill="white" fill-opacity="0.15"/>
<path d="M1421.76 4.2477C1410.74 2.70275 1401.15 1.37783 1392.62 0.0146484H1389.74L1390.94 0.244237C1399.85 1.67917 1409.93 3.08062 1421.6 4.71644C1427.44 5.53913 1433.49 6.38574 1439.84 7.29932H1439.93V6.82101C1433.62 5.91222 1427.6 5.06561 1421.76 4.2477Z" fill="white" fill-opacity="0.15"/>
<path d="M893.446 84.8876C908.961 78.6698 923.613 72.8011 936.436 68.5873C991.672 50.4456 1015.45 57.687 1025.68 66.9516C1040.38 80.2912 1034.7 102.149 1025.29 138.366C1024.51 141.357 1023.71 144.448 1022.88 147.64C1022.7 148.357 1022.47 149.223 1022.16 150.213C1018.88 162.434 1010.15 194.895 1026.12 200.625C1026.98 200.948 1027.94 201.122 1028.93 201.132C1029.6 201.129 1030.27 201.044 1030.9 200.884C1037.76 199.138 1043.71 188.147 1050.61 175.419C1059.38 159.224 1070.3 139.069 1086.85 131.741C1094.65 128.283 1109.01 125.882 1122.91 123.558C1126.78 122.912 1130.79 122.238 1134.5 121.568C1142.54 120.133 1154.31 117.498 1163.69 111.548C1171.22 106.765 1178.32 101.355 1184.57 96.5724C1189.22 93.0186 1193.61 89.6658 1197.53 87.0686L1200.25 85.2655C1217.53 73.8151 1231.14 64.7705 1245.69 59.3945C1268.67 50.9048 1286.73 48.0828 1317.33 48.212C1319.12 48.212 1321.35 48.2598 1323.93 48.3029C1341.13 48.5898 1373.14 49.1255 1381.18 42.5633C1382.05 41.8579 1382.65 41.0235 1382.93 40.1309C1383.21 39.2382 1383.16 38.3138 1382.79 37.436C1378.05 24.0725 1327.89 24.4503 1300.94 24.656C1291.58 24.7277 1282.61 25.0721 1274.72 25.3734C1256.24 26.0861 1241.65 26.6457 1235.48 23.1589C1229.72 19.9113 1232.44 14.7362 1234.61 10.5798C1236.05 7.84393 1237.26 5.48115 1235.92 4.13714C1232.7 0.932569 1224.1 1.12867 1213.5 4.6537C1188.47 12.9665 1182.62 37.1777 1176.96 60.5568C1175.76 65.5406 1174.52 70.687 1173.11 75.5083C1164.91 103.642 1154.81 114.542 1114.41 119.684C1088.69 122.955 1071.34 129.57 1059.82 140.508C1058.88 141.403 1057.92 142.422 1056.98 143.417C1053.15 147.472 1049.2 151.667 1044.57 149.998C1037.56 147.472 1041.24 129.742 1043.22 120.219C1043.55 118.617 1043.83 117.23 1044.03 116.139C1044.27 114.752 1044.53 113.36 1044.75 111.969C1047 99.6765 1049.33 86.9682 1045.41 74.566C1041.7 62.8526 1033.78 54.6259 1021.9 50.1156C1005.66 43.9552 982.104 44.4765 949.906 51.7035C918.091 58.8349 889.054 70.2566 860.968 81.3052C852.206 84.7537 843.141 88.317 834.113 91.7033C799.842 104.565 762.482 112.576 719.917 116.187V116.666H719.961C762.648 113.045 800.101 105.019 834.437 92.1194C843.472 88.7283 852.537 85.165 861.306 81.7165C889.385 70.6823 918.364 59.2749 950.108 52.1531C982.118 44.9787 1005.49 44.443 1021.54 50.5317C1033.24 54.9703 1041.03 63.0917 1044.7 74.6665C1048.6 86.9873 1046.27 99.6574 1044.03 111.911C1043.77 113.305 1043.53 114.695 1043.31 116.082C1043.11 117.173 1042.83 118.555 1042.5 120.152C1040.34 130.469 1036.74 147.736 1044.22 150.419C1049.44 152.303 1053.58 147.912 1057.58 143.67C1058.56 142.642 1059.47 141.666 1060.41 140.8C1071.81 129.972 1089.01 123.419 1114.54 120.171C1155.34 114.977 1165.54 103.986 1173.81 75.6183C1175.22 70.7923 1176.46 65.6363 1177.67 60.6524C1183.29 37.3738 1189.12 13.3013 1213.81 5.09852C1224.07 1.69306 1232.31 1.43 1235.3 4.41934C1236.46 5.56724 1235.3 7.82479 1233.91 10.4411C1231.68 14.7457 1228.88 20.0835 1235.02 23.5416C1241.4 27.1527 1255.38 26.617 1274.75 25.8708C1282.67 25.5695 1291.58 25.2252 1300.95 25.1534C1327.69 24.9525 1377.47 24.5747 1382.09 37.5652C1382.43 38.3696 1382.48 39.2175 1382.23 40.0373C1381.98 40.8572 1381.44 41.6251 1380.65 42.2764C1372.82 48.6759 1341.05 48.145 1323.98 47.8581C1321.38 47.815 1319.15 47.7767 1317.35 47.7672H1315.32C1285.8 47.7672 1267.95 50.6656 1245.36 59.0119C1230.73 64.4214 1217.06 73.4851 1199.77 84.9594L1197.04 86.7625C1193.11 89.374 1188.71 92.7316 1184.05 96.2902C1177.8 101.073 1170.71 106.478 1163.21 111.232C1153.94 117.11 1142.28 119.703 1134.33 121.142C1130.62 121.812 1126.62 122.482 1122.74 123.127C1108.79 125.461 1094.37 127.877 1086.46 131.378C1069.72 138.791 1058.75 159.033 1049.95 175.295C1043.11 187.907 1037.21 198.803 1030.65 200.468C1029.98 200.645 1029.25 200.716 1028.52 200.677C1027.8 200.637 1027.1 200.487 1026.48 200.238C1010.96 194.675 1019.63 162.453 1022.88 150.333C1023.14 149.338 1023.37 148.472 1023.6 147.755C1024.42 144.566 1025.22 141.475 1025.99 138.481C1035.44 102.13 1041.11 80.2051 1026.25 66.7029C1015.87 57.2852 991.802 49.9004 936.112 68.1951C923.267 72.4137 908.601 78.2919 893.072 84.5098C846.028 103.326 787.48 126.786 719.975 129.948V130.426C787.689 127.265 846.331 103.766 893.446 84.8876Z" fill="white" fill-opacity="0.15"/>
<path d="M857.656 69.4535C867.973 66.0672 878.65 62.5565 890.336 58.8593C976.049 31.7113 1008.8 33.7201 1027.76 38.4983C1051.63 44.52 1062.94 60.5859 1061.37 86.2512C1060.84 94.741 1058.87 102.58 1057.28 108.884C1054.81 118.708 1053.17 125.199 1058.45 126.815C1058.9 126.955 1059.39 127.027 1059.89 127.026C1061.77 127.026 1064.06 126.141 1067.39 124.859C1073.85 122.253 1080.76 120.184 1087.98 118.699C1095.6 117.165 1103.35 115.943 1111.2 115.04C1117.73 114.286 1124.2 113.298 1130.57 112.079C1156.73 106.933 1161.34 81.5735 1165.81 57.0465C1167.61 47.165 1169.46 36.9581 1172.7 28.1288C1176.65 17.3337 1180.9 8.58569 1188.77 0.985587C1189.05 0.703393 1189.36 0.425982 1189.66 0.148571L1189.79 0.0146484H1188.92C1188.66 0.249013 1188.41 0.492943 1188.2 0.717742C1180.28 8.37046 1175.96 17.1711 1172.02 28.014C1168.77 36.8577 1166.91 47.0932 1165.11 56.9891C1160.68 81.3822 1156.09 106.564 1130.39 111.625C1124.04 112.838 1117.6 113.82 1111.09 114.566C1103.21 115.474 1095.43 116.701 1087.78 118.24C1080.51 119.739 1073.55 121.827 1067.05 124.457C1063.01 126.007 1060.57 126.949 1058.76 126.371C1053.98 124.907 1055.66 118.24 1058 108.951C1059.59 102.638 1061.6 94.784 1062.09 86.2656C1063.68 60.3707 1052.21 44.1421 1028.02 38.0391C1008.93 33.2274 975.998 31.1947 890.033 58.4145C878.341 62.1212 867.664 65.6272 857.339 69.0183C809.101 84.8546 774.297 96.2811 719.982 99.7439V100.222C774.477 96.7785 809.367 85.3186 857.656 69.4535Z" fill="white" fill-opacity="0.15"/>
<path d="M801.555 132.084C823.22 126.426 844.876 118.726 867.793 108.543C870.731 107.232 873.956 105.778 877.419 104.238C912.338 88.4545 970.786 62.0957 999.16 68.9496C1032.22 76.9324 1023.22 105.137 1006.89 156.344L1006.35 158.032C996.604 188.6 993.609 209.133 997.194 220.813C999.354 227.758 1003.98 232.368 1010.3 233.794C1011.67 234.107 1013.11 234.268 1014.55 234.272C1018.27 234.272 1022.08 233.253 1025.45 231.307C1041.29 222.147 1047.82 207.148 1054.69 191.269L1055.13 190.25C1064.86 167.77 1076.73 149.303 1086.02 142.019C1095.9 134.299 1110.41 131.458 1124.44 129.21C1127.89 128.66 1131.2 128.148 1134.39 127.66C1156.7 124.221 1172.88 121.739 1188.71 111.503C1196.71 106.328 1203.78 101.172 1210.62 96.1981C1234.33 78.9077 1254.79 63.9754 1298.73 59.9242C1313.8 58.5372 1327.99 58.4894 1341.71 58.4894C1360.19 58.4463 1377.65 58.4033 1395.44 55.1413C1405.38 53.3094 1411.63 50.5688 1414.55 46.752C1417.8 42.4952 1416.71 36.837 1411.67 32.3315C1407.8 28.8447 1401.99 26.0515 1393.37 23.5308C1379.55 19.4845 1364.52 17.5904 1349.97 15.7634L1293.04 8.58894C1284.98 7.58866 1277.17 5.84684 1269.84 3.4138C1267.38 2.64021 1265.22 1.50901 1263.51 0.104004H1262.62L1262.76 0.242709C1264.55 1.78095 1266.86 3.01398 1269.51 3.83948C1276.91 6.29186 1284.78 8.04812 1292.9 9.05767L1349.85 16.2321C1364.35 18.0592 1379.36 19.9484 1393.09 23.9661C1401.58 26.4532 1407.3 29.1986 1411.09 32.6136C1415.92 36.9757 1417.02 42.4426 1413.89 46.5368C1411.06 50.2244 1404.95 52.8885 1395.23 54.6678C1377.54 57.9297 1360.12 57.9728 1341.69 58.0158C1327.94 58.0493 1313.72 58.0828 1298.61 59.4507C1254.41 63.5258 1233.86 78.5155 1210.05 95.8776C1203.22 100.861 1196.15 106.013 1188.17 111.183C1172.49 121.328 1156.42 123.8 1134.18 127.215C1130.99 127.694 1127.7 128.215 1124.22 128.77C1110.09 131.037 1095.42 133.902 1085.43 141.732C1076.07 149.064 1064.15 167.612 1054.4 190.14L1053.96 191.159C1047.11 206.971 1040.64 221.903 1024.93 230.972C1020.46 233.559 1015.19 234.435 1010.49 233.363C1004.42 231.995 999.937 227.514 997.857 220.741C994.257 209.128 997.288 188.657 1007.01 158.156L1007.55 156.468C1023.97 104.999 1033.01 76.6454 999.361 68.524C970.642 61.5839 912.007 88.0527 876.966 103.87C873.503 105.429 870.277 106.883 867.34 108.175C816.308 130.87 769.473 142.019 719.946 143.248V143.726C747.212 143.023 774.65 139.115 801.555 132.084Z" fill="white" fill-opacity="0.15"/>
<path d="M1439.9 69.9219C1422.92 71.5576 1394.32 71.3568 1358.11 71.0793C1351.52 71.0315 1344.72 70.9789 1337.74 70.9406C1311.26 70.7971 1286.33 74.4083 1269.34 80.8748C1255.07 86.2987 1242.14 94.5253 1229.63 102.479C1217.51 110.185 1204.99 118.158 1191.4 123.443C1177.29 128.934 1161.08 131.096 1145.39 133.215C1124.37 136.032 1104.52 138.701 1090.78 148.821C1076.33 159.463 1069 177.074 1061.26 195.723C1058.28 202.897 1055.2 210.306 1051.68 217.246C1044.68 231.083 1030.31 250.057 1016.4 259.542C1007.81 265.396 999.016 268.285 991.636 267.673C986.445 267.247 982.01 265.09 978.813 261.455C967.567 248.584 979.159 207.345 990.376 167.46C991.096 165.012 992.385 161.319 993.918 157.048C1001.12 136.854 1014.61 99.2652 999.678 85.9639C995.452 82.2045 989.599 80.0187 982.269 79.4686C960.785 77.8616 929.2 90.8425 908.681 102.427C906.713 103.54 904.737 104.665 902.755 105.803C877.779 120.066 849.571 136.18 797.984 142.546C771.341 145.829 745.223 150.773 719.975 157.311V157.851L720.105 157.813C745.348 151.262 771.467 146.31 798.114 143.024C849.859 136.634 878.175 120.458 903.166 106.196C905.148 105.061 907.121 103.937 909.084 102.824C929.495 91.2825 960.864 78.3685 982.125 79.9613C989.246 80.4922 994.934 82.6158 999.037 86.2652C1013.78 99.3848 1000.36 136.83 993.162 156.947C991.629 161.228 990.283 164.925 989.613 167.389C978.374 207.355 966.747 248.699 978.137 261.708C981.448 265.496 986.056 267.735 991.492 268.184C992.173 268.238 992.858 268.265 993.544 268.266C1000.69 268.266 1008.88 265.343 1016.86 259.91C1030.87 250.373 1045.3 231.322 1052.32 217.433C1055.85 210.464 1058.93 203.045 1061.92 195.866C1069.66 177.28 1076.96 159.717 1091.3 149.161C1104.87 139.155 1124.62 136.505 1145.52 133.702C1161.26 131.588 1177.53 129.398 1191.74 123.873C1205.42 118.56 1217.96 110.572 1230.11 102.829C1242.58 94.8936 1255.49 86.6861 1269.7 81.3053C1286.61 74.877 1311.46 71.2611 1337.76 71.4333C1344.74 71.4715 1351.54 71.5242 1358.13 71.572C1394.35 71.8398 1422.93 72.0503 1439.98 70.4145V69.9362L1439.9 69.9219Z" fill="white" fill-opacity="0.15"/>
<path d="M1439.9 83.1228C1416.14 85.4712 1392.8 85.9208 1368.11 86.3943C1358.63 86.5761 1348.82 86.7674 1338.78 87.0687C1312.27 87.8723 1290.45 91.6077 1273.93 98.1747C1258.97 104.12 1248.01 110.663 1237.38 116.991C1225.4 124.132 1214.09 130.861 1199.34 134.826C1187.27 138.06 1173.33 139.719 1159.84 141.326C1134.81 144.301 1108.93 147.381 1095.26 160.74C1086.05 169.742 1078.7 184.454 1069.34 203.079C1064.72 212.329 1059.47 222.813 1053.32 233.909C1045.52 247.976 1032.97 264.315 1019.76 277.625C998.663 298.871 980.714 307.93 964.889 305.309C934.261 300.239 951.505 243.102 957.999 221.608C958.812 218.91 959.439 216.777 959.82 215.357C962.779 203.877 968.014 190.323 973.55 175.964C983.911 149.118 994.617 121.362 991.031 105.12C989.519 98.256 984.213 93.3344 976.092 91.249C962.535 87.7957 942.973 92.55 921.028 104.641C910.034 110.692 901.682 116.852 893.597 122.816C880.817 132.234 868.751 141.13 848.671 147.362C835.38 151.485 817.553 152.738 800.317 153.948C789.021 154.742 778.351 155.493 768.818 156.99C746.996 160.42 728.881 167.403 719.946 171.306V171.865L720.148 171.794C729.004 167.915 747.125 160.893 768.991 157.445C778.473 155.957 789.15 155.206 800.396 154.417C817.676 153.202 835.574 151.944 848.973 147.783C869.19 141.513 881.307 132.583 894.137 123.127C902.201 117.182 910.538 111.036 921.496 105.009C943.239 93.0522 962.535 88.3027 975.84 91.6986C983.709 93.7027 988.85 98.4904 990.326 105.177C993.926 121.324 983.198 149.032 972.859 175.83C967.315 190.179 962.059 203.772 959.122 215.261C958.755 216.696 958.114 218.805 957.3 221.503C950.77 243.136 933.426 300.598 964.716 305.778C966.583 306.091 968.5 306.252 970.426 306.256C977.388 306.256 984.616 304.199 992.363 300.038C1001.05 295.37 1010.2 288.129 1020.36 277.898C1033.61 264.559 1046.18 248.182 1054 234.086C1060.16 222.98 1065.4 212.492 1070.03 203.241C1079.34 184.65 1086.69 169.966 1095.84 161.022C1109.34 147.826 1133.92 144.899 1159.92 141.805C1173.44 140.198 1187.43 138.533 1199.56 135.281C1214.43 131.296 1225.78 124.524 1237.81 117.354C1248.4 111.046 1259.34 104.517 1274.25 98.5956C1290.67 92.0669 1312.37 88.3553 1338.76 87.5566C1348.79 87.2553 1358.6 87.0783 1368.08 86.8822C1392.77 86.4039 1416.1 85.9543 1439.9 83.6107V83.1324V83.1228Z" fill="white" fill-opacity="0.15"/>
<path d="M1439.95 99.7529C1387.74 103.063 1370.93 103.608 1356.09 104.096C1351.53 104.244 1347.22 104.383 1342.17 104.574C1324.17 105.335 1312.26 105.98 1295.64 109.448C1275.28 113.695 1264.37 120.554 1244.57 132.999C1241.75 134.778 1238.75 136.668 1235.51 138.676C1215.35 151.208 1190.87 152.403 1167.17 153.561C1140.16 154.881 1114.61 156.129 1101.04 175.084C1093.3 185.855 1087.93 197.765 1082.25 210.373C1072.89 231.078 1062.34 254.543 1038.17 280.605C1006.8 314.435 979.518 328.358 952.31 324.431C916.131 319.213 928.925 274.617 935.801 250.654C936.442 248.411 937.054 246.292 937.551 244.437C939.451 237.353 943.728 226.74 948.682 214.476C959.632 187.319 973.261 153.523 973.823 128.599C974.068 117.512 968.524 108.74 959.352 105.708C954.103 103.971 945.226 103.259 932.712 109.725C922.374 115.073 914.411 123.118 905.973 131.636C891.112 146.645 875.734 162.161 845.495 164.849C833.917 165.877 823.175 165.977 812.851 166.078C784.542 166.346 757.802 166.604 720.039 185.779V186.377L720.255 186.267C757.953 167.077 784.621 166.824 812.858 166.556C823.24 166.456 833.975 166.355 845.588 165.322C876.202 162.61 891.667 146.999 906.613 131.899C915.015 123.414 922.95 115.403 933.195 110.103C942.857 105.105 951.799 103.732 959.064 106.133C967.984 109.084 973.377 117.689 973.132 128.613C972.57 153.484 958.956 187.247 948.012 214.376C943.059 226.663 938.775 237.277 936.867 244.374C936.37 246.216 935.765 248.34 935.124 250.592C928.205 274.708 915.325 319.6 952.188 324.924C955.073 325.343 958.018 325.555 960.971 325.555C973.261 325.555 985.854 321.911 998.525 314.664C1011.35 307.337 1024.53 296.284 1038.84 280.878C1063.06 254.768 1073.65 231.264 1083 210.53C1088.67 197.942 1094.03 186.051 1101.72 175.314C1115.15 156.593 1140.46 155.355 1167.24 154.049C1191.04 152.882 1215.65 151.681 1236.01 139.035C1239.25 137.026 1242.26 135.137 1245.08 133.358C1264.8 120.96 1275.67 114.13 1295.88 109.921C1312.43 106.473 1324.26 105.832 1342.23 105.072C1347.27 104.856 1351.59 104.718 1356.14 104.593C1370.98 104.115 1387.82 103.56 1440 100.25V99.7721L1439.95 99.7529Z" fill="white" fill-opacity="0.15"/>
<path d="M912.64 290.616C915.643 274.354 919.387 254.094 931.626 229.906L932.908 227.395C937.717 218.011 948.963 196.043 955.349 175.467C963.327 149.783 961.318 134.472 949.359 129.967C929.049 122.314 909.998 143.68 898.615 156.445C896.124 159.238 893.971 161.654 892.236 163.29C876.908 177.744 860.212 181.321 826.049 177.461C805.616 175.151 788.61 175.663 772.605 179.073C753.692 183.096 736.477 191.179 719.975 203.777V204.499L720.249 204.294C758.832 174.706 796.991 174.639 825.934 177.935C843.991 179.972 857.224 179.805 867.592 177.404C877.268 175.166 885.051 170.894 892.791 163.567C894.54 161.917 896.7 159.492 899.199 156.689C910.445 144.072 929.272 122.955 948.97 130.383C967.222 137.261 961.577 169.847 932.195 227.242C931.698 228.199 931.273 229.045 930.913 229.753C918.674 253.988 914.894 274.263 911.884 290.559C908.191 310.585 905.513 325.058 889.63 334.634L889.277 334.82H890.379C906.261 325.115 908.94 310.628 912.64 290.616Z" fill="white" fill-opacity="0.15"/>
<path d="M900.329 290.606C903.706 273.713 910.409 258.049 917.609 241.462C926.299 221.259 935.291 200.367 938.438 176.031C939.158 170.402 939.661 164.433 937.142 158.731C936.422 157.153 934.305 153.441 929.546 153.092C924.312 152.71 920.993 156.584 918.955 159.535C909.675 172.927 897.91 182.316 883.986 187.376C870.594 192.245 853.596 189.591 837.187 187.022C832.4 186.271 827.878 185.587 823.508 185.047C779.935 179.929 762.591 191.212 742.496 204.279C733.619 210.057 722.006 219.288 720.055 220.847V221.622L720.335 221.373C720.465 221.268 733.36 210.894 743 204.633C762.951 191.662 780.18 180.46 823.386 185.535C827.763 186.047 832.277 186.755 837.065 187.501C853.624 190.088 870.76 192.762 884.396 187.812C898.457 182.699 910.315 173.257 919.675 159.75C921.626 156.933 924.765 153.231 929.539 153.58C933.858 153.896 935.867 157.406 936.522 158.88C939.006 164.5 938.51 170.421 937.79 176.002C934.65 200.295 925.672 221.163 916.982 241.347C909.84 257.949 903.094 273.627 899.703 290.559C895.073 313.694 884.468 326.875 864.244 334.629L863.719 334.834H865.158C885.131 326.962 895.707 313.708 900.329 290.606Z" fill="white" fill-opacity="0.15"/>
<path d="M893.489 270.212C896.196 262.717 898.997 254.969 902.482 247.115C903.768 244.21 905.021 241.409 906.24 238.712C916.319 216.232 923.001 201.405 917.212 194.56C912.936 189.495 907.658 191.432 899.681 194.36C891.704 197.287 880.53 201.376 864.352 200.654C855.964 200.276 847.584 198.683 838.721 197C819.584 193.36 799.799 189.601 777.775 197.837C751.654 207.594 725.735 234.555 719.975 240.773V241.73L720.285 241.338C725.325 235.875 751.683 208.13 778.128 198.239C799.885 190.108 819.526 193.829 838.519 197.44C847.425 199.133 855.842 200.73 864.308 201.113C880.724 201.85 891.876 197.765 900.019 194.761C907.896 191.892 912.648 190.122 916.579 194.761C922.223 201.457 915.592 216.198 905.556 238.54C904.337 241.237 903.082 244.04 901.79 246.948C898.299 254.811 895.498 262.564 892.791 270.064C882.646 298.168 873.877 322.442 835.409 334.566L834.538 334.786H836.366C874.59 322.523 883.352 298.269 893.489 270.212Z" fill="white" fill-opacity="0.15"/>
<path d="M854.97 309.322C865.05 298.058 871.307 283.662 877.642 265.52C880.155 258.322 882.783 251.922 885.109 246.278C890.868 232.245 894.699 222.976 889.428 218.446C885.771 215.289 882.437 215.294 875.749 215.304C868.369 215.304 857.217 215.328 837.021 211.186C815.206 206.718 801.851 206.56 785.975 210.592C759.833 217.231 731.257 250.09 719.917 264.348V265.333L720.234 264.97C731.365 250.965 760.078 217.681 786.234 211.037C801.937 207.053 815.17 207.211 836.805 211.645C857.109 215.806 868.319 215.792 875.749 215.782C882.365 215.782 885.389 215.782 888.824 218.738C893.863 223.076 890.076 232.259 884.353 246.154C882.034 251.802 879.399 258.202 876.879 265.41C863.409 304.018 850.327 323.169 808.402 334.6L807.531 334.82H809.446C830.074 329.109 844.531 320.997 854.97 309.322Z" fill="white" fill-opacity="0.15"/>
<path d="M808.712 0.234672L809.598 0.0146484H807.589C784.233 5.9744 735.685 4.16161 720.061 2.4062H719.975V2.88452C727.535 3.72634 742.654 4.58252 758.94 4.58252C777.033 4.58252 796.559 3.52545 808.712 0.234672Z" fill="white" fill-opacity="0.15"/>
<path d="M835.675 0.229884L836.395 0.0146484H834.645C792.311 13.2588 733.532 8.77236 720.04 6.83523H719.953V7.31354C726.231 8.21274 741.992 9.6333 761.323 9.6333C784.42 9.62852 812.556 7.60052 835.675 0.229884Z" fill="white" fill-opacity="0.15"/>
<path d="M864.503 0.220316L865.079 0.0146484H863.639C816.524 19.4574 744.08 14.9088 720.083 11.4938H719.982V11.9721C730.062 13.407 748.457 15.0093 769.956 15.0093C800.324 15.0093 836.842 11.7808 864.503 0.220316Z" fill="white" fill-opacity="0.15"/>
<path d="M890.127 0.191622L890.422 0.0146484H889.349C838.908 31.162 747.046 21.3806 720.054 17.6355H719.975V18.1138C741.061 21 762.525 22.49 784.053 22.562C819.944 22.562 861.659 17.9129 890.127 0.191622Z" fill="white" fill-opacity="0.15"/>
<path d="M1326.71 333.299C1312.43 330.749 1300.07 328.549 1297.85 324.101C1296.73 321.891 1298.09 319.189 1302 315.831C1302.43 315.52 1302.73 315.142 1302.88 314.732C1303.03 314.322 1303.01 313.894 1302.84 313.488C1301.54 310.747 1291.92 308.786 1281.75 306.71C1269.58 304.228 1257 301.664 1258.33 297.8C1259.77 293.495 1267.86 290.96 1277.19 288.028C1282.23 286.526 1287.12 284.807 1291.83 282.882C1299 279.82 1305.8 276.397 1312.18 272.642C1319.08 268.696 1325.03 265.29 1339.72 260.684C1384.2 246.775 1419.58 219.938 1438.6 205.523L1439.95 204.499V203.767L1438.05 205.202C1419.08 219.594 1383.76 246.379 1339.41 260.244C1324.64 264.865 1318.65 268.294 1311.72 272.264C1305.36 276.005 1298.58 279.417 1291.44 282.471C1286.76 284.386 1281.9 286.094 1276.88 287.583C1267.38 290.573 1259.18 293.156 1257.62 297.685C1256.18 301.99 1269.06 304.615 1281.54 307.16C1291.09 309.107 1300.98 311.12 1302.16 313.622C1302.3 313.955 1302.3 314.306 1302.17 314.64C1302.05 314.975 1301.8 315.283 1301.44 315.535C1297.37 319.026 1295.98 321.877 1297.18 324.249C1299.55 328.942 1311.46 331.065 1326.54 333.758C1328.45 334.098 1330.42 334.451 1332.41 334.815H1335.29L1333.9 334.585C1331.44 334.141 1329.07 333.715 1326.71 333.299Z" fill="white" fill-opacity="0.15"/>
<path d="M1439.68 221.067L1436.19 223.841C1426.46 231.609 1411.76 243.346 1402.04 249.024C1382.68 260.326 1370.36 264.568 1353.26 270.447C1345.66 273.063 1337.05 276.023 1326.37 280.084C1313.15 285.111 1305.49 290.128 1303.57 294.94C1303.12 295.998 1303 297.105 1303.22 298.194C1303.43 299.284 1303.98 300.333 1304.83 301.277C1307.7 304.482 1314.39 306.658 1320.84 308.758C1327.3 310.858 1333.46 312.867 1334.09 315.54C1334.42 316.922 1333.29 318.41 1330.62 320.137C1328.7 321.371 1327.97 322.648 1328.46 323.93C1329.78 327.412 1340.2 330.975 1360.31 334.82H1363.12L1361.72 334.591C1341.08 330.707 1330.43 327.182 1329.16 323.815C1328.74 322.691 1329.38 321.6 1331.13 320.467C1334.01 318.64 1335.17 316.999 1334.8 315.454C1334.08 312.532 1327.82 310.485 1321.13 308.313C1314.76 306.242 1308.17 304.099 1305.41 301.014C1304.61 300.125 1304.1 299.137 1303.89 298.11C1303.69 297.084 1303.81 296.041 1304.23 295.045C1306.09 290.348 1313.64 285.446 1326.7 280.486C1337.36 276.43 1345.96 273.469 1353.55 270.858C1370.68 264.965 1383.07 260.708 1402.51 249.368C1412.27 243.667 1426.99 231.91 1436.75 224.133C1437.88 223.224 1438.91 222.378 1439.95 221.579V220.795L1439.68 221.067Z" fill="white" fill-opacity="0.15"/>
<path d="M1439.64 241.103C1427.7 254.103 1406.75 266.797 1386.27 273.45L1383.33 274.407C1374.43 277.277 1363.34 280.878 1351.57 285.503C1343.9 288.521 1339.88 291.382 1339.29 294.256C1338.57 297.776 1342.89 300.78 1347.48 303.966C1353.24 307.959 1359.2 312.097 1355.04 317.487C1353.19 319.878 1352.92 321.969 1354.24 323.877C1357.57 328.703 1370.7 331.769 1389.52 334.82H1392.92L1391.14 334.591C1374.39 331.912 1358.4 328.732 1354.91 323.676C1353.69 321.911 1353.94 319.96 1355.68 317.707C1360.1 312.01 1353.96 307.754 1348.02 303.631C1343.55 300.536 1339.33 297.614 1340.02 294.318C1340.58 291.602 1344.48 288.856 1351.95 285.92C1363.69 281.299 1374.76 277.717 1383.63 274.833L1386.56 273.876C1406.99 267.242 1427.88 254.625 1439.93 241.677V240.792L1439.64 241.103Z" fill="white" fill-opacity="0.15"/>
<path d="M1439.63 264.745C1424.56 283.284 1407.05 294.304 1394.27 302.354C1387.39 306.658 1381.96 310.107 1378.7 313.484C1376.54 315.76 1376.1 318.07 1377.49 320.352C1380.93 325.991 1395.17 330.984 1418.7 334.82H1421.37V334.758L1420.31 334.591C1389.76 329.755 1380.52 324.068 1378.14 320.175C1376.84 318.042 1377.23 315.87 1379.28 313.742C1382.49 310.394 1387.92 307.007 1394.75 302.698C1407.49 294.687 1424.89 283.729 1439.94 265.357V264.353L1439.63 264.745Z" fill="white" fill-opacity="0.15"/>
<path d="M1252.51 34.6903C1240.81 36.1969 1230.5 37.0817 1226.25 36.9956C1220.49 36.8522 1219.57 34.3459 1218.8 30.5339C1218.5 29.099 1217.62 28.1998 1216.18 27.8698C1213.23 27.1954 1208.76 29.1803 1205.83 31.0887C1199.87 34.9581 1194.01 43.4526 1191.24 52.2245C1189.95 56.3234 1183.74 76.9044 1188.44 79.8172C1188.8 80.0497 1189.29 80.1799 1189.79 80.1807C1190.02 80.1788 1190.24 80.1563 1190.46 80.1137C1194.32 79.3915 1198.38 76.3448 1204.03 72.131C1210.95 66.9559 1220.44 59.8676 1234.99 52.9993C1247.5 47.0667 1261.82 43.0218 1276.93 41.1472C1278.91 40.9176 1280.99 40.7455 1282.99 40.5733C1288.95 40.095 1294.1 39.6167 1295.72 38.0479C1295.98 37.7928 1296.15 37.5033 1296.22 37.2C1296.29 36.8967 1296.26 36.5869 1296.13 36.2926C1294.42 31.7823 1272.92 32.0597 1252.51 34.6903ZM1295.13 37.7896C1293.69 39.2245 1288.45 39.6406 1282.89 40.1093C1280.89 40.2815 1278.81 40.4537 1276.82 40.6833C1261.59 42.559 1247.16 46.622 1234.55 52.588C1219.95 59.5089 1210.44 66.6211 1203.5 71.8105C1197.93 75.9669 1193.91 78.9849 1190.26 79.6545C1190.04 79.7097 1189.79 79.7215 1189.56 79.6885C1189.32 79.6555 1189.1 79.5791 1188.93 79.468C1185.73 77.4783 1188.14 64.4018 1191.95 52.3249C1194.69 43.6391 1200.47 35.2403 1206.35 31.4283C1209.35 29.4769 1213.49 27.755 1215.96 28.3194C1217.12 28.5873 1217.84 29.3525 1218.12 30.6009C1218.78 33.8963 1219.47 37.297 1226.26 37.4692C1230.58 37.5792 1240.93 36.6704 1252.68 35.159C1275.72 32.2032 1294.08 32.7675 1295.46 36.4169C1295.56 36.6488 1295.59 36.8933 1295.53 37.1324C1295.48 37.3716 1295.34 37.5995 1295.13 37.7992V37.7896Z" fill="white" fill-opacity="0.15"/>
<path d="M1439.95 143.22C1415.78 143.818 1380.29 151.48 1355.48 167.24C1347.96 172.023 1340.73 177.504 1333.08 183.32C1312.69 198.798 1291.61 214.806 1260.84 220.991C1203.96 232.431 1189.51 242.514 1170.12 262.722C1159.33 273.967 1153.14 285.049 1147.66 294.82C1142.25 304.477 1137.58 312.818 1129.82 319.524C1125.14 323.58 1120.68 325.206 1116.57 324.379C1107.43 322.528 1102.17 309.461 1101.01 297.336C1100.42 291.118 1096.33 235.851 1134.77 207.331C1148.94 196.808 1167.31 191.14 1189.38 190.452C1196.35 190.232 1202.78 190.088 1209 189.949C1254.69 188.931 1279.86 188.366 1314.57 161.831C1345.93 137.854 1395.53 132.502 1439.94 130.426V129.948C1395.39 132.028 1345.62 137.404 1314.06 161.515C1279.55 187.893 1254.5 188.457 1209 189.471C1202.78 189.61 1196.35 189.753 1189.37 189.973C1167.11 190.667 1148.56 196.402 1134.26 207.01C1119.24 218.154 1108.94 234.474 1103.65 255.514C1100.28 269.344 1099.16 283.375 1100.32 297.365C1101.49 309.657 1106.92 322.92 1116.39 324.838C1117.15 324.99 1117.93 325.067 1118.72 325.067C1122.46 325.067 1126.39 323.307 1130.42 319.806C1138.24 313.043 1142.93 304.673 1148.37 294.978C1153.8 285.283 1160.03 274.172 1170.76 262.966C1190.02 242.844 1204.38 232.833 1261.05 221.44C1292.01 215.222 1313.17 199.157 1333.62 183.626C1341.26 177.82 1348.48 172.339 1355.98 167.575C1380.65 151.906 1415.92 144.287 1439.96 143.689V143.211L1439.95 143.22Z" fill="white" fill-opacity="0.15"/>
<path d="M1439.91 116.177C1402.17 119.377 1373.96 121.888 1359.01 123.735C1333.03 126.939 1314.37 132.258 1296.55 141.532C1290.35 144.76 1284.91 148.706 1279.64 152.49C1272.13 157.913 1264.36 163.519 1254.3 167.145C1239.49 172.477 1223.17 172.774 1207.38 173.061C1201.29 173.176 1195 173.291 1188.83 173.683C1162.91 175.347 1140.99 182.464 1123.65 194.843C1109.44 204.987 1098.18 218.757 1090.17 235.746C1076.07 265.692 1076.02 296.719 1076 306.916V308.036C1075.95 318.08 1076.31 326.856 1077.07 334.82H1077.79C1077.03 326.856 1076.67 318.08 1076.72 308.036V306.921C1076.72 296.743 1076.79 265.788 1090.86 235.895C1108.72 197.966 1141.7 177.193 1188.89 174.166C1195.04 173.769 1201.33 173.654 1207.4 173.544C1223.24 173.257 1239.69 172.956 1254.64 167.57C1264.81 163.906 1272.64 158.267 1280.17 152.82C1285.42 149.032 1290.84 145.119 1297 141.914C1314.7 132.693 1333.29 127.398 1359.14 124.218C1374.07 122.376 1402.25 119.87 1439.95 116.67V116.192L1439.91 116.177Z" fill="white" fill-opacity="0.15"/>
<path d="M1439.82 157.373L1435.7 158.444C1422.88 161.792 1406.9 165.92 1387.01 174.773C1373.97 180.57 1363.25 188.4 1351.95 196.694C1341.95 204.021 1331.6 211.597 1318.77 218.427C1304.94 225.793 1289.79 230.772 1273.76 236.043C1243.03 246.144 1211.25 256.609 1183.6 285.226C1171.08 298.178 1160.84 310.054 1152.33 334.796V334.844H1153.05C1161.53 310.217 1171.77 298.388 1184.2 285.484C1211.75 256.959 1243.43 246.541 1274.08 236.468C1290.15 231.207 1305.33 226.199 1319.22 218.8C1332.1 211.946 1342.46 204.356 1352.48 197.014C1363.78 188.744 1374.44 180.934 1387.41 175.17C1407.26 166.351 1423.17 162.213 1435.96 158.908L1439.95 157.851V157.335L1439.82 157.373Z" fill="white" fill-opacity="0.15"/>
<path d="M1439.75 171.377C1428.32 176.385 1400.64 192.088 1360.26 219.857C1334.94 237.263 1312.56 243.858 1288.87 250.841C1277.35 254.232 1265.44 257.743 1252.58 262.641C1223.86 273.599 1203.8 284.599 1189.47 297.341C1175.34 309.882 1168.46 322.734 1163.13 334.763V334.82H1163.85C1174.5 310.824 1189.37 287.278 1252.94 263.076C1265.76 258.188 1277.65 254.687 1289.16 251.296C1312.92 244.293 1335.37 237.683 1360.77 220.207C1400.9 192.614 1428.45 176.959 1439.97 171.899V171.33L1439.75 171.377Z" fill="white" fill-opacity="0.15"/>
<path d="M1439.73 185.936C1422.62 194.546 1403.62 206.709 1388.36 216.475C1379.62 222.072 1372.07 226.907 1366.27 230.207C1337.48 246.622 1309.61 255.461 1285.03 263.262C1272.69 267.18 1261.02 270.877 1251.36 274.985C1214.68 290.592 1184.2 319.859 1175.14 334.739L1175.09 334.82H1175.87C1184.95 319.993 1215.27 290.908 1251.75 275.392C1261.37 271.298 1273.02 267.6 1285.34 263.693C1309.97 255.882 1337.9 247.024 1366.75 230.571C1372.55 227.261 1380.11 222.44 1388.86 216.82C1404.04 207.101 1422.92 195.019 1439.98 186.429V185.822L1439.73 185.936Z" fill="white" fill-opacity="0.15"/>
<path d="M1088.54 46.2276C1095.89 64.2306 1103.1 72.9117 1111.91 74.3753C1113.2 74.597 1114.51 74.7111 1115.84 74.7148C1124.61 74.7148 1131.15 69.2718 1135.75 58.185C1138.68 51.111 1140.96 42.4395 1143.59 32.4C1146.11 22.7911 1148.96 11.9003 1153.02 0.0959587L1153.08 0.0146484H1152.31C1148.25 11.8238 1145.4 22.7098 1142.88 32.3187C1140.25 42.3629 1137.98 51.0057 1135.05 58.0606C1129.91 70.4389 1122.4 75.6284 1112.09 73.9113C1103.67 72.5147 1096.41 63.6806 1089.24 46.1032C1082.99 31.0514 1079.16 15.6026 1077.8 0.0146484L1077.08 0.0146484C1078.44 15.6444 1082.28 31.135 1088.54 46.2276Z" fill="white" fill-opacity="0.15"/>
<path d="M864.021 43.0277C920.683 29.7024 974.177 17.1137 1019.25 16.9893C1042.18 16.9271 1057.23 22.8724 1068 36.2694C1074.92 44.8787 1079.52 54.258 1083.99 63.3265C1090.47 76.4653 1096.55 88.8722 1108.55 94.7457C1111.96 96.5093 1116.13 97.4986 1120.45 97.5676C1121.53 97.568 1122.61 97.4959 1123.67 97.3524C1125.78 97.059 1127.78 96.4691 1129.53 95.6221C1131.27 94.7751 1132.73 93.6904 1133.8 92.4403C1141.82 83.2666 1148.54 56.353 1154.48 32.6104C1158.01 18.5055 1161.06 6.30422 1163.84 0.0863926V0.0146484H1163.12C1160.35 6.30422 1157.31 18.4625 1153.76 32.5387C1147.83 56.2382 1141.11 83.104 1133.15 92.2059C1132.14 93.3983 1130.75 94.4329 1129.09 95.2404C1127.42 96.048 1125.52 96.6098 1123.5 96.8884C1118.78 97.5389 1113.61 96.6445 1108.96 94.3678C1097.15 88.5853 1091.36 76.8144 1084.66 63.183C1080.19 54.0954 1075.58 44.6922 1068.62 36.0494C1057.76 22.5471 1042.63 16.5158 1019.59 16.5158H1019.23C974.055 16.6402 920.481 29.2385 863.769 42.5781C815.991 53.818 766.572 65.4358 719.961 69.927V70.4053H720.011C766.774 65.9045 816.193 54.2724 864.021 43.0277Z" fill="white" fill-opacity="0.15"/>
<path d="M841.91 59.9201C845.639 58.9922 851.09 57.5286 857.987 55.6681C894.857 45.7435 971.585 25.0955 1014.69 24.9616H1015.12C1036.72 24.9616 1050.54 29.9885 1058.52 40.7692C1067.01 52.2483 1072.37 63.0194 1077.09 72.5327C1080.54 79.4632 1083.51 85.4466 1087.08 90.4926C1094.46 100.939 1107 107.395 1118.81 107.395C1121.13 107.398 1123.43 107.141 1125.62 106.635C1140.08 103.287 1146.65 91.8079 1152.08 75.632C1153.23 72.1644 1154.65 66.3101 1156.44 58.8918C1160.76 41.0944 1167.24 14.2048 1175.8 0.119041L1175.91 0.0090332H1175.09C1166.51 14.1665 1160.02 41.0275 1155.73 58.8391C1154 65.9514 1152.52 72.0974 1151.41 75.5459C1146.03 91.5735 1139.56 102.919 1125.41 106.2C1112.26 109.256 1096.43 102.574 1087.77 90.3108C1084.22 85.2935 1081.29 79.3101 1077.81 72.3988C1073.08 62.8711 1067.73 52.0761 1059.21 40.5779C1051.11 29.668 1036.53 24.4068 1014.68 24.4833C971.441 24.6172 894.626 45.2891 857.728 55.2232C850.838 57.079 845.387 58.5426 841.672 59.4753C798.704 70.213 764.757 78.6931 719.997 83.1173V83.5956H720.047C764.901 79.1666 798.884 70.6721 841.91 59.9201Z" fill="white" fill-opacity="0.15"/>
<path d="M1203.52 204.896C1185.99 205.963 1168.69 210.535 1157.24 217.136C1131.48 231.987 1120.64 256.093 1121.34 273.393C1121.53 278.228 1123.36 281.299 1126.22 281.6C1126.38 281.607 1126.54 281.607 1126.7 281.6C1129.64 281.6 1132.85 278.73 1135.57 273.675C1139.4 266.539 1149.55 247.589 1171.41 234.144C1183.39 226.774 1197.41 223.143 1208.67 220.25C1218.67 217.672 1226.57 215.634 1229.32 211.98C1230.25 210.741 1230.2 209.588 1229.18 208.632C1225.68 205.236 1211.8 204.394 1203.52 204.896ZM1228.67 211.789C1226.05 215.275 1218.26 217.284 1208.41 219.829C1197.09 222.751 1183 226.386 1170.92 233.819C1148.93 247.34 1138.73 266.371 1134.92 273.517C1132.23 278.553 1129.03 281.385 1126.37 281.108C1123.91 280.849 1122.27 277.879 1122.09 273.364C1121.37 256.174 1132.17 232.231 1157.75 217.475C1169.08 210.942 1186.23 206.408 1203.62 205.351C1205.06 205.265 1206.61 205.222 1208.25 205.222C1216.28 205.222 1225.96 206.307 1228.62 208.885C1229.47 209.761 1229.49 210.703 1228.67 211.789Z" fill="white" fill-opacity="0.15"/>
<path d="M1421.79 0.0146484H1418.78L1420.14 0.249033C1426.13 1.20571 1432.78 2.08584 1439.86 2.87988H1439.95V2.40633C1433.47 1.67448 1427.36 0.87087 1421.79 0.0146484Z" fill="white" fill-opacity="0.15"/>
<path d="M773.21 323.063L773.383 322.987C800.022 311.35 840.211 293.763 858.736 256.935C862.379 249.688 861.954 243.695 857.476 239.128C851.867 233.412 840.132 229.964 822.608 228.878C796.487 227.261 787.487 233.182 773.836 243.853C765.787 250.128 759.552 257.604 753.519 264.831C748.205 271.202 742.719 277.793 735.887 283.733C731.149 287.866 726.268 291.424 721.552 294.863L719.975 296.021V296.748L720.241 296.537L722.085 295.188C726.815 291.74 731.696 288.172 736.484 284.025C743.338 278.056 748.846 271.451 754.174 265.066C760.466 257.523 766.413 250.401 774.405 244.164C787.905 233.642 796.796 227.754 822.557 229.337C839.837 230.408 851.407 233.785 856.893 239.381C861.213 243.82 861.645 249.674 858.074 256.772C839.635 293.443 799.54 310.977 773.008 322.576L772.836 322.652C761.986 327.397 736.959 332.601 720.112 329.602L719.997 329.578V330.056C723.682 330.671 727.472 330.968 731.272 330.941C746.744 330.994 764.506 326.871 773.21 323.063Z" fill="white" fill-opacity="0.15"/>
<path d="M755.354 319.639C754.511 319.644 753.671 319.575 752.856 319.433C751.736 319.228 750.701 318.858 749.829 318.349C748.956 317.84 748.268 317.207 747.816 316.497C744.216 311.508 752.409 304.061 757.802 299.111C758.644 298.345 759.436 297.618 760.063 297.006C773.843 283.652 780.495 273.45 786.363 264.453C789.704 259.321 792.843 254.471 796.896 249.865C799.899 246.436 803.902 244.222 808.481 243.466C812.592 242.792 817.013 243.361 821.26 245.126C830.181 248.818 832.845 256.911 832.413 262.717C831.923 269.442 826.732 275.535 821.721 280.61C808.055 294.384 790.545 306.291 770.135 315.688C767.356 316.984 760.905 319.639 755.354 319.639ZM811.879 243.672C810.788 243.671 809.7 243.758 808.639 243.93C804.247 244.657 800.396 246.8 797.501 250.105C793.491 254.691 790.302 259.522 787.004 264.64C781.122 273.661 774.455 283.882 760.639 297.279C759.998 297.896 759.199 298.623 758.363 299.393C753.072 304.238 745.066 311.556 748.442 316.291C748.856 316.939 749.484 317.517 750.281 317.982C751.077 318.447 752.021 318.786 753.043 318.974C758.716 319.978 766.6 316.75 769.725 315.315C790.054 305.945 807.495 294.076 821.102 280.347C826.055 275.325 831.182 269.303 831.679 262.693C832.096 257.016 829.519 249.115 820.879 245.532C818.203 244.36 815.083 243.715 811.879 243.672Z" fill="white" fill-opacity="0.15"/>
<path d="M1439.95 330.084C1432.59 328.707 1420.74 324.345 1418.21 317.998C1416.7 314.172 1418.82 310.346 1424.5 306.519C1425.55 305.807 1426.61 305.085 1427.66 304.401C1431.71 301.689 1435.85 298.915 1439.95 296.021V296.748C1435.85 299.646 1432.23 302.009 1428.17 304.735L1425.01 306.854C1419.53 310.537 1417.47 314.248 1418.91 317.855C1421.34 323.977 1433.02 328.272 1439.95 329.568V330.084Z" fill="white" fill-opacity="0.15"/>
</svg>
