<svg width="88" height="42" viewBox="0 0 88 42" fill="none" xmlns="http://www.w3.org/2000/svg">
<path d="M18.8891 28.2695C23.2499 22.2248 31.742 13.2605 31.2698 6.71811C30.4763 -4.29647 9.47891 0.288511 10.8167 12.3448C12.0495 23.4125 13.4856 18.7811 11.8987 29.2383C13.8569 29.3789 15.7697 29.9016 17.5316 30.7777C17.8771 29.8867 18.3333 29.0439 18.8891 28.2695" fill="currentColor"/>
<path d="M13.857 39.8184C14.8263 40.786 16.1596 41.3968 17.6001 41.5331C17.6001 41.5331 16.1768 36.7088 17.6001 32.2428C15.7819 31.4298 13.8094 30.9326 11.7861 30.7776C11.473 34.7637 12.6045 38.4172 13.857 39.8184Z" fill="currentColor"/>
<path d="M26.6545 20.0222C24.9578 22.3816 23.1613 24.6529 21.5112 26.9174C22.7954 27.8462 27.9587 30.504 42.0446 27.2496C32.5098 27.2496 27.9853 21.9409 26.6545 20.0222" fill="currentColor"/>
<path d="M49.1947 24.9826C50.0973 24.7414 50.9599 24.3828 51.8224 24.0698C46.3799 18.2536 34.8263 14.4848 27.3779 19.2642C28.7152 21.2204 36.217 28.3928 49.1947 24.9826" fill="currentColor"/>
<path d="M25.4221 29.577C23.8552 29.253 22.365 28.6658 21.0246 27.8442C16.7846 32.816 17.9806 40.2535 25.1929 41.5331C23.9467 36.3148 23.7032 33.9489 25.4221 29.537" fill="currentColor"/>
<path d="M47.9111 27.3561C50.8878 32.0689 48.757 38.0293 55.4141 41.5331C55.8597 38.4947 56.415 29.2503 52.6699 25.8887C51.5787 26.2507 48.9313 27.0458 47.9111 27.3561Z" fill="currentColor"/>
<path d="M46.7481 16.448C47.3193 10.975 46.4867 7.19141 45.372 4.70601C40.0805 4.62121 32.7661 1.71179 29.2156 1.44434C35.0712 5.16265 32.4634 12.397 28.3555 17.8114C31.5413 15.9131 41.0645 15.8936 46.3765 19.0443C46.5486 18.1376 46.6105 17.3287 46.7344 16.435" fill="currentColor"/>
<path d="M49.998 11.0595C51.2798 10.5421 52.6945 10.3968 54.0634 10.6419C55.4322 10.887 56.6938 11.5115 57.6889 12.4366C57.1003 9.45899 56.9122 6.42249 57.1291 3.3999C53.3079 3.7737 49.5695 4.48851 45.9556 4.5672C46.999 7.32637 47.4843 10.2477 47.3859 13.1777C47.9948 12.2241 48.9105 11.4816 49.998 11.0595" fill="currentColor"/>
<path d="M56.5401 12.8571C51.5134 8.39064 45.7383 13.9013 47.149 19.4793C50.9306 21.6755 54.5201 25.2527 56.0168 29.7999C57.7464 28.8683 59.6477 28.3131 61.5998 28.1697C60.7322 22.7803 60.1031 16.2861 56.5401 12.8571" fill="currentColor"/>
<path d="M57.6478 35.8432C58.5908 40.4519 63.5554 41.5331 63.5554 41.5331C63.5554 41.5331 62.6854 35.2283 61.7302 28.822C60.6412 28.9301 58.1954 29.3356 56.7109 30.4844C57.149 32.5117 57.4044 34.7012 57.6356 35.8432" fill="currentColor"/>
<path d="M78.8615 9.92038C78.2185 9.09341 77.4988 8.33166 76.7125 7.64573C74.8645 9.67644 72.3265 10.9102 69.6172 11.0948V11.0948C64.9356 11.5876 63.1303 5.83005 65.6497 2.67118C63.0047 2.05695 60.3134 2.74543 57.7147 2.96142C57.3973 17.0886 60.0886 12.357 61.8541 23.2106C67.402 26.9364 80.3692 23.5008 84.2441 22.6638C85.8909 20.5079 87.1615 18.0785 88.0001 15.4821C83.9334 17.3518 82.1282 14.2132 78.8417 9.95413" fill="currentColor"/>
<path d="M81.0736 10.2443C81.8404 9.36666 82.4182 8.28852 82.7593 7.09861C83.1004 5.90871 83.1952 4.64104 83.0359 3.3999C81.6311 3.66574 80.2763 4.21433 79.0316 5.02133C78.8042 5.61895 78.5334 6.19262 78.2222 6.73603C79.244 7.8232 80.197 8.99572 81.0736 10.2443" fill="currentColor"/>
<path d="M71.0525 5.04308C57.9187 10.7412 77.2894 14.7362 78.2223 0.466553C77.2228 0.625797 63.2494 1.04814 65.8282 7.3902C68.9867 4.62074 71.0525 5.02231 71.0525 5.02231" fill="currentColor"/>
<path d="M4.97161 10.7274C6.39835 11.6996 8.07071 12.2119 9.77778 12.1997C9.73322 11.896 9.70136 11.6055 9.66953 11.3216C8.28552 11.3283 6.92579 10.9449 5.73554 10.2124C13.6545 1.42479 -2.25349 0.876802 4.27776 10.1002C3.17012 10.5821 1.77604 10.6085 0 10.2124C0 10.2124 1.83329 11.995 4.97161 10.7274V10.7274ZM5.04799 9.64461C3.8194 8.70049 2.57808 4.43543 5.04799 4.24396C8.16721 3.99307 6.81767 8.54864 5.04799 9.64461Z" fill="currentColor"/>
</svg>
