<svg width="80" height="21" viewBox="0 0 80 21" fill="none" xmlns="http://www.w3.org/2000/svg">
<path d="M4.45567 20.0107H2.61997L2.22327 21H1.86035L3.36692 17.2983H3.71294L5.21952 21H4.85238L4.45567 20.0107ZM4.3291 19.6935L3.53574 17.7054L2.7466 19.6935H4.3291Z" fill="currentColor"/>
<path d="M9.52503 19.1375H9.90253V20.5341C9.72044 20.6872 9.50942 20.8042 9.28134 20.8786C9.03987 20.9591 8.78639 21 8.53118 20.9996C8.17921 21.0059 7.83168 20.9224 7.52299 20.7576C7.22864 20.6057 6.98371 20.3768 6.81582 20.0965C6.6497 19.8061 6.5625 19.4792 6.5625 19.1468C6.5625 18.8144 6.6497 18.4875 6.81582 18.1971C6.98509 17.9179 7.22967 17.6893 7.52299 17.5361C7.83448 17.3744 8.18309 17.2927 8.53597 17.2986C8.80315 17.2952 9.06872 17.3394 9.3196 17.429C9.54909 17.5113 9.75538 17.6453 9.92166 17.82L9.67797 18.0668C9.52933 17.925 9.35281 17.814 9.15903 17.7404C8.96524 17.6668 8.7582 17.6322 8.55032 17.6385C8.26528 17.6345 7.98393 17.7019 7.7332 17.834C7.49514 17.9598 7.29689 18.1465 7.15984 18.374C7.01969 18.6085 6.94702 18.8755 6.94956 19.1468C6.94645 19.4167 7.01918 19.6824 7.15984 19.9149C7.29501 20.1423 7.49168 20.3291 7.72842 20.455C7.97789 20.5907 8.25982 20.6598 8.54553 20.6551C8.88605 20.6605 9.21989 20.5629 9.50118 20.3758L9.52503 19.1375Z" fill="currentColor"/>
<path d="M13.5644 20.9953L12.7935 19.814C12.7074 19.814 12.617 19.814 12.5265 19.814H11.6221V20.9811H11.2646V17.301H12.5265C12.8887 17.2785 13.2463 17.3988 13.5342 17.6398C13.6585 17.7544 13.7563 17.8993 13.8199 18.0628C13.8835 18.2263 13.911 18.4038 13.9003 18.581C13.9132 18.8414 13.8436 19.0988 13.7032 19.3096C13.5627 19.5205 13.3601 19.672 13.1294 19.7387L13.952 21L13.5644 20.9953ZM13.2802 19.254C13.3688 19.1708 13.4386 19.0664 13.4841 18.9488C13.5297 18.8313 13.5498 18.7038 13.5429 18.5763C13.5502 18.4475 13.5303 18.3185 13.4847 18.1994C13.4392 18.0802 13.3692 17.9741 13.2802 17.8893C13.0567 17.7176 12.7862 17.6345 12.5136 17.654H11.6221V19.4987H12.5136C12.7877 19.5203 13.0598 19.4334 13.2802 19.254Z" fill="currentColor"/>
<path d="M16.1157 20.7576C15.8648 20.6035 15.6566 20.373 15.5144 20.0918C15.3721 19.8032 15.2974 19.4778 15.2974 19.1468C15.2974 18.8158 15.3721 18.4904 15.5144 18.2018C15.6566 17.9206 15.8648 17.69 16.1157 17.536C16.38 17.3759 16.6755 17.2943 16.9749 17.2986C17.2744 17.293 17.5701 17.3748 17.834 17.536C18.083 17.6909 18.2908 17.9193 18.4354 18.1971C18.5803 18.4864 18.6565 18.8137 18.6565 19.1468C18.6565 19.4798 18.5803 19.8071 18.4354 20.0965C18.2919 20.3754 18.0839 20.604 17.834 20.7576C17.5712 20.9224 17.275 21.0059 16.9749 20.9996C16.6752 21.0024 16.3797 20.9191 16.1157 20.7576ZM17.6622 20.4596C17.8627 20.3321 18.0295 20.1456 18.1449 19.9196C18.2577 19.6822 18.3168 19.4166 18.3168 19.1468C18.3168 18.877 18.2577 18.6114 18.1449 18.374C18.0295 18.148 17.8627 17.9615 17.6622 17.834C17.4514 17.7056 17.216 17.6384 16.9769 17.6384C16.7378 17.6384 16.5025 17.7056 16.2917 17.834C16.0891 17.96 15.9207 18.1468 15.8048 18.374C15.6895 18.6104 15.629 18.8764 15.629 19.1468C15.629 19.4172 15.6895 19.6832 15.8048 19.9196C15.9207 20.1468 16.0891 20.3336 16.2917 20.4596C16.5025 20.588 16.7378 20.6551 16.9769 20.6551C17.216 20.6551 17.4514 20.588 17.6622 20.4596Z" fill="currentColor"/>
<path d="M22.3128 17.6417C22.4308 17.7603 22.5249 17.9038 22.5893 18.0633C22.6536 18.2228 22.6868 18.3949 22.6868 18.5688C22.6868 18.7427 22.6536 18.9148 22.5893 19.0742C22.5249 19.2337 22.4308 19.3772 22.3128 19.4959C22.0173 19.7372 21.6513 19.8563 21.2813 19.8317H20.3594V21H19.9995V17.3012H21.2813C21.6519 17.2779 22.0179 17.3987 22.3128 17.6417ZM22.0538 19.2499C22.1441 19.1663 22.2153 19.0613 22.2617 18.9431C22.3082 18.825 22.3287 18.6969 22.3216 18.5688C22.329 18.4393 22.3087 18.3096 22.2623 18.1899C22.2159 18.0702 22.1446 17.9635 22.0538 17.8782C21.826 17.7056 21.5503 17.6222 21.2725 17.6417H20.3594V19.4911H21.2725C21.5511 19.5116 21.8276 19.4263 22.0538 19.2499Z" fill="currentColor"/>
<path d="M24.0303 17.2983H24.352V20.6592H26.0458V21H24.0303V17.2983Z" fill="currentColor"/>
<path d="M27.7482 20.5919C27.6221 20.4294 27.526 20.2405 27.4651 20.0359C27.4043 19.8314 27.3801 19.6153 27.3939 19.4002V17.2983H27.7399V19.3861C27.7188 19.7235 27.8094 20.0577 27.9942 20.3244C28.1994 20.527 28.4631 20.6387 28.7361 20.6387C29.0091 20.6387 29.2728 20.527 29.4781 20.3244C29.6643 20.0584 29.7564 19.7241 29.7365 19.3861V17.2983H30.0741V19.4002C30.1002 19.8344 29.9728 20.2627 29.7198 20.5919C29.4447 20.8553 29.0952 21 28.734 21C28.3728 21 28.0233 20.8553 27.7482 20.5919Z" fill="currentColor"/>
<path d="M31.9795 20.878C31.7691 20.8101 31.5775 20.6917 31.4204 20.5328L31.5658 20.2342C31.7109 20.3803 31.8866 20.4904 32.0794 20.5561C32.2899 20.6381 32.5134 20.6792 32.7385 20.6774C32.9901 20.697 33.2413 20.6349 33.4566 20.5001C33.5305 20.4485 33.5908 20.3788 33.632 20.2974C33.6733 20.216 33.6942 20.1253 33.693 20.0336C33.6964 19.9694 33.6869 19.9052 33.665 19.845C33.6431 19.7847 33.6093 19.7298 33.5657 19.6836C33.4758 19.593 33.367 19.5244 33.2476 19.483C33.1203 19.4364 32.9476 19.3851 32.7249 19.3291C32.5074 19.2759 32.2933 19.2089 32.084 19.1285C31.9271 19.0647 31.787 18.964 31.675 18.8345C31.5556 18.6835 31.4956 18.4921 31.5067 18.298C31.5043 18.1194 31.5533 17.9441 31.6477 17.7941C31.7608 17.6304 31.9191 17.5052 32.1022 17.4349C32.3338 17.3362 32.5834 17.29 32.834 17.2996C33.0352 17.2993 33.2356 17.3276 33.4294 17.3835C33.6097 17.4323 33.7804 17.5128 33.9339 17.6215L33.8066 17.9294C33.6676 17.8295 33.5143 17.7523 33.3521 17.7008C33.1914 17.6513 33.0245 17.6261 32.8567 17.6262C32.6084 17.6081 32.361 17.6736 32.1522 17.8128C32.0794 17.8656 32.02 17.9355 31.9789 18.0166C31.9378 18.0978 31.9161 18.1879 31.9158 18.2793C31.913 18.3438 31.9233 18.4083 31.9459 18.4685C31.9686 18.5287 32.0033 18.5835 32.0476 18.6292C32.1391 18.7214 32.2493 18.7915 32.3703 18.8345C32.5022 18.8812 32.6794 18.9325 32.8976 18.9885C33.1122 19.0394 33.3233 19.1048 33.5294 19.1844C33.6869 19.2447 33.8275 19.3441 33.9385 19.4737C34.0568 19.6217 34.1168 19.8098 34.1066 20.0009C34.108 20.18 34.0574 20.3554 33.9612 20.5048C33.8493 20.6697 33.6906 20.7952 33.5066 20.864C33.2727 20.96 33.0222 21.006 32.7703 20.9993C32.5121 20.9985 32.2557 20.9544 32.0113 20.8687" fill="currentColor"/>
<path d="M40.1546 20.6645V21H37.5756V20.7307L39.1051 19.2282C39.2605 19.0935 39.3925 18.9338 39.4957 18.7557C39.5636 18.626 39.5991 18.4817 39.5992 18.3352C39.6042 18.2395 39.5869 18.1439 39.5485 18.0561C39.5101 17.9683 39.4517 17.8908 39.3781 17.8297C39.1924 17.6958 38.9662 17.6307 38.738 17.6454C38.5509 17.6342 38.3637 17.6654 38.1902 17.7365C38.0167 17.8077 37.8614 17.917 37.7356 18.0565L37.4673 17.825C37.6157 17.6538 37.803 17.5209 38.0132 17.4375C38.254 17.3411 38.5118 17.2945 38.7709 17.3005C39.089 17.2825 39.4035 17.3761 39.6604 17.5651C39.7685 17.6528 39.8546 17.7648 39.9118 17.892C39.969 18.0191 39.9958 18.158 39.9899 18.2974C39.9894 18.4874 39.9459 18.6748 39.8628 18.8455C39.7408 19.0721 39.5817 19.2765 39.3922 19.4503L38.1403 20.6881L40.1546 20.6645Z" fill="currentColor"/>
<path d="M41.4734 20.7763C41.2616 20.6149 41.096 20.3922 40.9956 20.1338C40.8779 19.8207 40.8208 19.4848 40.8278 19.1468C40.8204 18.8103 40.8775 18.4758 40.9956 18.1645C41.096 17.9061 41.2616 17.6834 41.4734 17.522C41.6779 17.3725 41.9197 17.2945 42.1664 17.2985C42.4145 17.2944 42.6578 17.3724 42.8638 17.522C43.0756 17.6834 43.2411 17.9061 43.3415 18.1645C43.4632 18.4748 43.522 18.8098 43.5137 19.1468C43.5215 19.4853 43.4628 19.8217 43.3415 20.1338C43.2411 20.3922 43.0756 20.6149 42.8638 20.7763C42.6578 20.9259 42.4145 21.0039 42.1664 20.9998C41.9197 21.0038 41.6779 20.9258 41.4734 20.7763ZM42.6829 20.4784C42.8438 20.3471 42.9651 20.1673 43.0316 19.9616C43.1979 19.4333 43.1979 18.8603 43.0316 18.3321C42.9629 18.1276 42.842 17.9484 42.6829 17.8153C42.5329 17.6977 42.3517 17.6357 42.1664 17.6384C41.9812 17.6357 41.8 17.6977 41.6499 17.8153C41.4921 17.9498 41.3716 18.1285 41.3013 18.3321C41.135 18.8603 41.135 19.4333 41.3013 19.9616C41.3693 20.1664 41.4903 20.3458 41.6499 20.4784C41.8 20.5959 41.9812 20.658 42.1664 20.6553C42.3517 20.658 42.5329 20.5959 42.6829 20.4784Z" fill="currentColor"/>
<path d="M44.8329 20.7763C44.6212 20.6159 44.4568 20.3928 44.3595 20.1338C44.2382 19.8217 44.1795 19.4853 44.1873 19.1468C44.179 18.8098 44.2378 18.4748 44.3595 18.1645C44.4568 17.9055 44.6212 17.6824 44.8329 17.522C45.0391 17.373 45.2822 17.295 45.5302 17.2985C45.7769 17.2945 46.0188 17.3725 46.2232 17.522C46.435 17.6834 46.6006 17.9061 46.701 18.1645C46.8227 18.4748 46.8813 18.8098 46.8731 19.1468C46.8809 19.4853 46.8223 19.8217 46.701 20.1338C46.6006 20.3922 46.435 20.6149 46.2232 20.7763C46.0188 20.9258 45.7769 21.0038 45.5302 20.9998C45.2822 21.0033 45.0391 20.9254 44.8329 20.7763ZM46.0467 20.4784C46.2076 20.3471 46.3289 20.1673 46.3953 19.9616C46.5616 19.4333 46.5616 18.8603 46.3953 18.3321C46.3267 18.1276 46.2058 17.9484 46.0467 17.8153C45.8956 17.6998 45.7152 17.6379 45.5302 17.6379C45.3452 17.6379 45.1648 17.6998 45.0137 17.8153C44.8546 17.9484 44.7338 18.1276 44.6651 18.3321C44.4988 18.8603 44.4988 19.4333 44.6651 19.9616C44.7316 20.1673 44.8529 20.3471 45.0137 20.4784C45.1648 20.5938 45.3452 20.6558 45.5302 20.6558C45.7152 20.6558 45.8956 20.5938 46.0467 20.4784Z" fill="currentColor"/>
<path d="M49.6509 18.9152C49.8215 19.0024 49.9668 19.1344 50.0721 19.298C50.1514 19.4285 50.2028 19.575 50.2228 19.7276C50.2428 19.8803 50.231 20.0355 50.1881 20.1831C50.1452 20.3306 50.0723 20.4671 49.9742 20.5833C49.8761 20.6995 49.7551 20.7928 49.6192 20.8569C49.4256 20.9525 49.2132 21.0004 48.9986 20.997C48.7961 21.011 48.5931 20.976 48.406 20.895C48.2188 20.814 48.0526 20.6891 47.9206 20.5302C47.6504 20.1394 47.5192 19.6647 47.5491 19.1859C47.5394 18.831 47.6076 18.4784 47.7484 18.1544C47.8709 17.8862 48.07 17.663 48.3192 17.5149C48.5778 17.3665 48.8703 17.2924 49.1662 17.3002C49.4591 17.2859 49.7502 17.3536 50.0087 17.4963L49.8593 17.7997C49.6514 17.6731 49.4118 17.613 49.1707 17.627C49.0019 17.6194 48.8334 17.6498 48.677 17.7158C48.5206 17.7819 48.38 17.8822 48.2648 18.0097C48.023 18.3242 47.9036 18.7202 47.9296 19.1206C47.9236 19.2201 47.9236 19.3198 47.9296 19.4193C48.0159 19.2214 48.1621 19.0576 48.3463 18.9525C48.5511 18.8404 48.7804 18.7842 49.0122 18.7892C49.2263 18.7861 49.4383 18.8323 49.6328 18.9245L49.6509 18.9152ZM49.6056 20.4695C49.6815 20.3958 49.742 20.3068 49.7834 20.2081C49.8248 20.1093 49.8461 20.0029 49.8461 19.8954C49.8461 19.7879 49.8248 19.6815 49.7834 19.5827C49.742 19.484 49.6815 19.395 49.6056 19.3213C49.4207 19.1703 49.1889 19.094 48.9533 19.1066C48.7964 19.1069 48.6416 19.1436 48.5004 19.2139C48.3693 19.2757 48.2578 19.3744 48.1787 19.4987C48.1013 19.619 48.0603 19.7603 48.0609 19.9047C48.0627 20.0416 48.1003 20.1754 48.1697 20.2921C48.2504 20.4148 48.3615 20.513 48.4913 20.5769C48.6494 20.6552 48.8233 20.6936 48.9986 20.6889C49.2263 20.6994 49.4496 20.6211 49.6237 20.4695" fill="currentColor"/>
<path d="M3.64012 2.77144H0V0.571411H9.91742V2.77144H6.2773V12.2316H3.64012V2.77144Z" fill="currentColor"/>
<path d="M14.3058 11.4767C13.3672 10.9933 12.5869 10.2706 12.0514 9.38882C11.5191 8.47553 11.2397 7.44722 11.2397 6.40155C11.2397 5.35589 11.5191 4.32758 12.0514 3.41429C12.5885 2.53479 13.3685 1.81389 14.3058 1.33075C15.2964 0.832021 16.399 0.571411 17.5184 0.571411C18.6378 0.571411 19.7404 0.832021 20.731 1.33075C21.6663 1.81658 22.4457 2.53685 22.9855 3.41429C23.5207 4.32666 23.8018 5.35532 23.8018 6.40155C23.8018 7.44778 23.5207 8.47645 22.9855 9.38882C22.4474 10.2687 21.6677 10.9907 20.731 11.4767C19.7395 11.9726 18.6373 12.2316 17.5184 12.2316C16.3996 12.2316 15.2974 11.9726 14.3058 11.4767ZM19.3559 9.55275C19.9018 9.24428 20.3469 8.79607 20.6409 8.25862C20.9493 7.68019 21.1101 7.0401 21.1101 6.39077C21.1101 5.74144 20.9493 5.10135 20.6409 4.52292C20.3469 3.98547 19.9018 3.53726 19.3559 3.22879C18.7959 2.92879 18.1648 2.77126 17.523 2.77126C16.8811 2.77126 16.2501 2.92879 15.6901 3.22879C15.1441 3.53726 14.6991 3.98547 14.4051 4.52292C14.0967 5.10135 13.9359 5.74144 13.9359 6.39077C13.9359 7.0401 14.0967 7.68019 14.4051 8.25862C14.6991 8.79607 15.1441 9.24428 15.6901 9.55275C16.2501 9.85275 16.8811 10.0103 17.523 10.0103C18.1648 10.0103 18.7959 9.85275 19.3559 9.55275Z" fill="currentColor"/>
<path d="M37.1237 12.2316L37.1052 5.2346L33.6541 10.9978H32.4314L28.9941 5.38559V12.2316H26.4473V0.571411H28.6942L33.0819 7.81856L37.4051 0.571411H39.6336L39.6705 12.2316H37.1237Z" fill="currentColor"/>
<path d="M50.4869 9.72246H45.2913L44.2962 12.2229H41.6543L46.6518 0.571411H49.21L54.2164 12.2316H51.4952L50.4869 9.72246ZM49.6723 7.67114L47.9111 3.20142L46.1498 7.67114H49.6723Z" fill="currentColor"/>
<path d="M57.6387 11.8117C56.8822 11.6278 56.1697 11.3154 55.5381 10.8906L56.4738 8.92798C57.0218 9.30698 57.6355 9.59802 58.289 9.78878C58.9687 10.0007 59.6813 10.1098 60.399 10.1116C60.9982 10.151 61.5976 10.0363 62.13 9.78017C62.2982 9.69541 62.4388 9.57101 62.5375 9.41974C62.6361 9.26846 62.6893 9.09577 62.6914 8.91937C62.6929 8.79252 62.6639 8.66694 62.6065 8.55161C62.549 8.43628 62.4646 8.33406 62.3592 8.25224C62.1099 8.05975 61.8223 7.91359 61.5125 7.82184C61.1663 7.71424 60.6984 7.59804 60.1089 7.46892C59.3532 7.30909 58.6094 7.10496 57.882 6.85775C57.303 6.6531 56.7907 6.31523 56.3942 5.87644C55.9598 5.36463 55.7406 4.72587 55.7767 4.07736C55.7696 3.44827 55.9649 2.83132 56.3381 2.30411C56.7535 1.73866 57.341 1.2985 58.027 1.03873C58.9015 0.707637 59.842 0.549272 60.7873 0.5739C61.5385 0.573069 62.2867 0.65984 63.0142 0.83214C63.6877 0.983995 64.3306 1.23391 64.9184 1.57243L64.0669 3.54797C63.0778 2.99828 61.9474 2.70114 60.792 2.68717C60.1988 2.64659 59.6059 2.76946 59.089 3.0401C58.9177 3.13849 58.7766 3.27557 58.6792 3.4383C58.5817 3.60102 58.5312 3.78398 58.5323 3.96976C58.5307 4.15631 58.5912 4.33884 58.7058 4.49276C58.8204 4.64667 58.9836 4.76457 59.1732 4.83056C59.7983 5.07969 60.4509 5.26585 61.1195 5.38578C61.8737 5.54553 62.616 5.74967 63.3417 5.99695C63.9182 6.19758 64.43 6.52925 64.8295 6.96104C65.2666 7.46509 65.4879 8.09895 65.4517 8.7429C65.4563 9.36889 65.2575 9.98188 64.8809 10.5032C64.4566 11.067 63.8633 11.5051 63.1733 11.7643C62.2953 12.095 61.352 12.2533 60.4037 12.2291C59.4802 12.2313 58.5613 12.1095 57.6761 11.8676" fill="currentColor"/>
<path d="M70.5029 11.4767C69.5637 10.9949 68.7835 10.2719 68.2501 9.38881C67.7182 8.47552 67.439 7.44721 67.439 6.40155C67.439 5.35589 67.7182 4.32758 68.2501 3.41429C68.7849 2.5334 69.5648 1.81207 70.5029 1.33076C71.4936 0.832014 72.5961 0.571411 73.7154 0.571411C74.8347 0.571411 75.9372 0.832014 76.9279 1.33076C77.8625 1.81659 78.6412 2.53686 79.1807 3.41429C79.7185 4.32573 80.001 5.35475 80.001 6.40155C80.001 7.44835 79.7185 8.47738 79.1807 9.38881C78.6419 10.2678 77.863 10.9896 76.9279 11.4767C75.9363 11.9726 74.8341 12.2316 73.7154 12.2316C72.5966 12.2316 71.4945 11.9726 70.5029 11.4767ZM75.5491 9.55273C76.0971 9.24582 76.5438 8.79731 76.8378 8.25861C77.1428 7.67928 77.3017 7.03954 77.3017 6.39077C77.3017 5.74199 77.1428 5.10226 76.8378 4.52292C76.5438 3.98422 76.0971 3.53572 75.5491 3.2288C74.9896 2.9288 74.359 2.77127 73.7176 2.77127C73.0763 2.77127 72.4457 2.9288 71.8861 3.2288C71.3406 3.53726 70.8958 3.98547 70.602 4.52292C70.2938 5.10135 70.1332 5.74144 70.1332 6.39077C70.1332 7.04009 70.2938 7.68018 70.602 8.25861C70.8958 8.79606 71.3406 9.24427 71.8861 9.55273C72.4457 9.85274 73.0763 10.0103 73.7176 10.0103C74.359 10.0103 74.9896 9.85274 75.5491 9.55273Z" fill="currentColor"/>
</svg>
